<svg width="256" height="256" viewBox="0 0 67.733 67.733" xmlns="http://www.w3.org/2000/svg"><defs><clipPath clipPathUnits="userSpaceOnUse" id="g"><path style="fill:#fff;fill-opacity:1;stroke:#fffffb;stroke-width:.195149px;stroke-linecap:butt;stroke-linejoin:miter;stroke-opacity:1" class="powerclip" d="M33.22 3.059h30.214v46.03H33.221zm15.028 21.873h.966l.91-.198.593-.21.653-.314.594-.326.547-.42.548-.454.256-.308.589-.635.453-.76.305-.61.289-.84.206-.906.016-1.153-.058-.89-.173-.757-.296-.775-.429-.75-.428-.675-.65-.766-.627-.585-.65-.445-.857-.412-.906-.37-.791-.14-.832-.05-.923-.016-.898.156-.717.264-.56.28-.84.486-.659.519-.56.51-.461.52-.437.568-.363.651-.329.816-.239.807-.082.881v1.137l.131.93.24.693.337.782.461.717.495.643.519.519.667.519.65.461.882.453.931.321.486.116z"/></clipPath><clipPath clipPathUnits="userSpaceOnUse" id="d"><path style="fill:#fff;fill-opacity:1;stroke:#fffffb;stroke-width:.195149px;stroke-linecap:butt;stroke-linejoin:miter;stroke-opacity:1" class="powerclip" d="M-1.657 27.504h21.306v21.614H-1.657zm9.374 12.2 2.412.094-1.13-3.903z"/></clipPath><clipPath clipPathUnits="userSpaceOnUse" id="a"><path style="fill:#fff;fill-opacity:1;stroke:#fffffb;stroke-width:.195149px;stroke-linecap:butt;stroke-linejoin:miter;stroke-opacity:1" class="powerclip" d="M-2.497 40.157h26.688v27.298H-2.497zM8.847 56.06l3.775.047-1.817-6.058z"/></clipPath><clipPath clipPathUnits="userSpaceOnUse" id="b"><path class="powerclip" d="M29.34 40.082h22.957v27.403H29.34zm9.133 11.634 2.531.137.264-.09.362-.157.272-.222.247-.313.165-.38-.008-.864-.165-.322-.19-.313-.354-.247-.33-.19-.336-.08-2.47.023zm-.105 7.246-.025.09.346.026 1.376-.017 1.063-.025.543-.115.429-.239.42-.37.272-.396.173-.445-.009-.519-.066-.42-.098-.379-.231-.42-.346-.264-.28-.205-.363-.157-.338-.106-2.784.023z"/></clipPath><clipPath clipPathUnits="userSpaceOnUse" id="c"><path style="fill:#fff;fill-opacity:1;stroke:#fffffb;stroke-width:.195149px;stroke-linecap:butt;stroke-linejoin:miter;stroke-opacity:1" class="powerclip" d="M42.776 40.14H69.58v27.298H42.776zM54.21 56.03l3.823.066-1.879-6.047z"/></clipPath><clipPath clipPathUnits="userSpaceOnUse" id="f"><path style="fill:#fff;fill-opacity:1;stroke:#fffffb;stroke-width:.195149px;stroke-linecap:butt;stroke-linejoin:miter;stroke-opacity:1" class="powerclip" d="M48.362 27.57h21.2v21.547h-21.2zm9.345 12.228h2.4l-1.118-3.891z"/></clipPath><clipPath clipPathUnits="userSpaceOnUse" id="e"><path style="fill:#fff;fill-opacity:1;stroke:#fffffb;stroke-width:.195149px;stroke-linecap:butt;stroke-linejoin:miter;stroke-opacity:1" class="powerclip" d="M29.703 27.57h19.175v21.565H29.703zm7.734 10.337-.008.082h1.985l.37-.181.29-.305.246-.338.025-.881-.082-.247-.124-.264-.19-.206-.205-.23-.272-.1-2.002-.008z"/></clipPath></defs><path style="fill:#951b81;fill-opacity:1;stroke:#951b81;stroke-width:.195149px;stroke-linecap:butt;stroke-linejoin:miter;stroke-opacity:1" d="m2.64 62.323 4.186.033.922-2.702 5.898-.033.989 2.702 4.415.033-6.26-17.068-4.12-.033z" clip-path="url(#a)"/><path style="fill:#951b81;fill-opacity:1;stroke:#951b81;stroke-width:.195149px;stroke-linecap:butt;stroke-linejoin:miter;stroke-opacity:1" d="M20.83 62.224V45.288l4.02-.033.033 13.114 7.315.033.033 3.987z"/><path style="fill:#951b81;fill-opacity:1;stroke:#951b81;stroke-width:.195149px;stroke-linecap:butt;stroke-linejoin:miter;stroke-opacity:1" d="m34.537 62.29-.098-17.035 6.853-.066.688-.009.687.105.746.175.64.314.469.271.494.429.406.524.356.466.221.401.204.53.116.507.035.14.006 1.17-.052.374-.14.437-.25.466-.233.396-.297.343-.31.292-.267.227-.233.11-.268.018v.221l.21.024.262.035.239.07.314.227.245.192.268.239.256.314.25.303.274.414.245.43.116.315.134.367.053.344.023 1.439-.087.437-.128.6-.193.588-.326.582-.303.408-.402.443-.442.338-.536.35-.519.25-.576.262-.519.134-.512.093-.431.093z" clip-path="url(#b)"/><path style="fill:#951b81;fill-opacity:1;stroke:#951b81;stroke-width:.195149px;stroke-linecap:butt;stroke-linejoin:miter;stroke-opacity:1" d="m52.232 62.307.89-2.702 6.08.05.872 2.668 4.366.017-6.194-17.102-4.169.033-6.161 17.069z" clip-path="url(#c)"/><path style="fill:#951b81;fill-opacity:1;stroke:#951b81;stroke-width:.195149px;stroke-linecap:butt;stroke-linejoin:miter;stroke-opacity:1" d="m6.38 44.019.586-1.68h4.011l.528 1.672 3.006-.041-4.06-11.369H7.582L3.481 43.97z" clip-path="url(#d)"/><path style="fill:#951b81;fill-opacity:1;stroke:#951b81;stroke-width:.195149px;stroke-linecap:butt;stroke-linejoin:miter;stroke-opacity:1" d="m15.755 32.585 2.562-.025.025 8.889h5.025l-.016 2.586-7.58.017zM24.734 43.986l.017-11.385 7.727-.065.033 2.652-4.96.033-.049 1.763 3.84.016.016 2.472-3.84.033v1.91l5.059.017.033 2.604z"/><path style="fill:#951b81;fill-opacity:1;stroke:#951b81;stroke-width:.195149px;stroke-linecap:butt;stroke-linejoin:miter;stroke-opacity:1" d="M34.867 44.035 34.8 32.667l4.29.001.838.035.595.152.559.186.524.268.57.466.376.441.33.61.18.519.165.75.058.848-.074.667-.24.618-.362.56-.477.52-.47.42-.338.073.009.247 2.372 3.905-3.08.05-1.937-3.518-1.07-.008.016 3.509z" clip-path="url(#e)"/><path style="fill:#951b81;fill-opacity:1;stroke:#951b81;stroke-width:.195149px;stroke-linecap:butt;stroke-linejoin:miter;stroke-opacity:1" d="m61.54 44.019 2.884-.016-4.036-11.336-2.834.017L53.5 43.97l2.768-.017.593-1.713h4.036z" clip-path="url(#f)"/><path style="fill:#951b81;fill-opacity:1;stroke:#951b81;stroke-width:.195149px;stroke-linecap:butt;stroke-linejoin:miter;stroke-opacity:1" d="M47.432 43.992h2.68l-.024-8.738 3.192-.023-.046-2.61-3.449-.07-.046-4.566.615-.145 1.054-.28 1.055-.412 1.219-.659 1.005-.725.818-.773.734-.816.711-1.072.56-1.153.36-.967.233-.955.198-1.037.035-1.13-.07-1.049-.302-1.467-.501-1.305-.595-1.165-.792-1.037-.734-.827-.967-.839-1.153-.734-1.188-.582-1.282-.42-1.095-.186-.676-.082-1.374-.011-1.037.07-1.317.36-.74.265-.758.338-.774.412-.79.535-.874.783-.783.758-.659.947-.543.906-.371.964-.33.857-.18.881-.075.881-.033.931-.025.923.124.873.247 1.145.346 1.055.47.955.7 1.046.79.865.668.684.75.593.79.478.725.412.734.313.692.255.733.165.75.165.428.05h.288l-.016 4.489-3.526.05-.05 2.577 3.401.023z" clip-path="url(#g)"/><path style="fill:#951b81;fill-opacity:1;stroke:#951b81;stroke-width:.195149px;stroke-linecap:butt;stroke-linejoin:miter;stroke-opacity:1" d="m56.12 26.802.94 1.055.612-.49.618-.629.64-.687.7-.955.535-.932.56-1.096.384-1.153.245-.71.233-.758.163-.897.105-1.013-.059-1.13-.046-1.305-.28-1.305-.42-1.305-.442-1.141-.466-.898-.536-.85-.606-.78-.57-.665-.525-.594-.407-.407-.385-.362-1.095 1.212.431.361.513.466.489.63.594.791.373.478.408.71.326.711.43 1.037.304.92.14.874.14.92.046.99-.023 1.166-.187 1.258-.36 1.084-.513 1.35-.641 1.061-.688 1.084-.792.838-.722.734z"/><path style="fill:#951b81;fill-opacity:1;stroke:#951b81;stroke-width:.195149px;stroke-linecap:butt;stroke-linejoin:miter;stroke-opacity:1" d="m57.933 29.002 1.293 1.219.453-.42.733-.635.61-.601.56-.593.428-.569.593-.799.437-.782.247-.585.346-.758.19-.445.28-.716.33-.849.238-.717.107-.618.19-.815.099-1.096.057-1.647.009-1.03-.116-1.013-.173-1.162-.255-1.079-.478-1.178-.478-1.145-.47-1.046-.617-.964-.634-.923-.676-.823-.79-.874-.512-.51-.584-.42-.124-.05-1.351 1.31.379.379.42.395.437.478.527.536.411.55.524.664.396.67.35.56.39.727.309.647.338.856.227.734.21.71.157.676.11.723.082.804.03 1.025-.047.856-.065.786-.093.688-.145.774-.24.822-.203.763-.35.821-.332.7-.378.745-.414.693-.413.652-.554.676-.5.56-.554.535-.49.449-.477.425zM40.477 26.633l-.594-.536-.606-.559-.332-.408-.56-.725-.355-.577-.379-.683-.33-.717-.353-.742-.223-.61-.214-.749-.058-.568-.082-.544-.058-.634.009-.709.032-.675-.008-.873.157-.717.148-.766.264-.692.288-.667.321-.651.33-.667.477-.767.42-.593.42-.47.371-.37.437-.428.354-.338.289-.28-1.08-1.055-.568.396-.626.61-.568.617-.569.733-.395.547-.43.769-.438.804-.39 1.043-.285.926-.28.943-.105.77-.14 1.223v1.06l.035 1.013.105.911.173.8.206.6.338.998.362.955.52.898.526.774.404.569.387.527.462.494.494.453.428.396.272.23z"/><path style="fill:#951b81;fill-opacity:1;stroke:#951b81;stroke-width:.195149px;stroke-linecap:butt;stroke-linejoin:miter;stroke-opacity:1" d="m37.366 30.245 1.259-1.305-.529-.457-.873-.84-1.022-1.319-.61-.89-.543-.823-.454-.913-.315-.92-.536-1.41-.221-1.247-.14-1.142-.023-1.211.035-1.142.128-1.142.186-.85.233-.804.233-.757.303-.722.268-.653.286-.518.378-.641.408-.606.408-.547.437-.513.512-.588.513-.542.57-.548.53-.483-1.35-1.305-.42.24-.437.355-.291.308-.431.402-.647.693-.559.734-.542.769-.495.85-.437.752-.332.722-.332.816-.314.88-.297 1.001-.216.903-.11.891-.024 1.084.018 1.374-.018 1.276.03.583.139.699.198.926.204.774.21.688.238.722.327.734.314.664.315.594.384.63.414.593.472.659.419.547.606.606.518.478.46.471z"/></svg>