<svg width="256" height="256" viewBox="0 0 67.733 67.733" xmlns="http://www.w3.org/2000/svg"><defs><clipPath clipPathUnits="userSpaceOnUse" id="a"><path style="fill:#fff;fill-opacity:1;stroke:#fff;stroke-width:.0951127px;stroke-linecap:butt;stroke-linejoin:miter;stroke-opacity:1" class="powerclip" d="M.163 11.077h17.612V31.53H.163zm8.285 11.72h.995l-.473-3.5z"/></clipPath><clipPath clipPathUnits="userSpaceOnUse" id="b"><path style="fill:#fff;fill-opacity:1;stroke:#fff;stroke-width:.0951127px;stroke-linecap:butt;stroke-linejoin:miter;stroke-opacity:1" class="powerclip" d="M19.89 11.089h16.82v20.434H19.89zm8.094 9.075.402.024.233-.12.168-.202.089-.265-.016-1.076-.048-.184-.145-.217-.24-.12-.274-.025-.2.008z"/></clipPath><clipPath clipPathUnits="userSpaceOnUse" id="c"><path style="fill:#fff;fill-opacity:1;stroke:#fff;stroke-width:.0951127px;stroke-linecap:butt;stroke-linejoin:miter;stroke-opacity:1" class="powerclip" d="M33.226 11.078h17.698V31.61H33.226zm8.337 11.656 1.056-.022-.522-3.736z"/></clipPath><clipPath clipPathUnits="userSpaceOnUse" id="d"><path style="fill:#fff;fill-opacity:1;stroke:#fff;stroke-width:.0951127px;stroke-linecap:butt;stroke-linejoin:miter;stroke-opacity:1" class="powerclip" d="M-2 22.513h20.466V49.28H-2zM7.54 38.27h1.365l-.594-6.52z"/></clipPath><clipPath clipPathUnits="userSpaceOnUse" id="e"><path class="powerclip" d="M23.286 22.513h19.532v26.72H23.286zm9.045 11.52.423.026.265-.02.193-.048.197-.12.128-.149.097-.165.07-.182.018-2.067-.034-.198-.08-.2-.125-.26-.119-.16-.124-.036-.096-.028-.745-.026zm.01 7.217.166.035.312-.012.369-.108.284-.221.17-.295.074-.21-.023-3.095-.034-.21-.085-.16-.108-.107-.199-.09-.908-.012z"/></clipPath><clipPath clipPathUnits="userSpaceOnUse" id="f"><path style="fill:#fff;fill-opacity:1;stroke:#fff;stroke-width:.0951127px;stroke-linecap:butt;stroke-linejoin:miter;stroke-opacity:1" class="powerclip" d="M42.42 12.635h27.43v36.668H42.42zm9.17 21.387.262.091.454-.034.363-.204.17-.318-.056-2.453-.046-.239-.227-.272-.295-.148-.33-.09-.317-.023z"/></clipPath><clipPath clipPathUnits="userSpaceOnUse" id="g"><path style="fill:#fff;fill-opacity:1;stroke:#fff;stroke-width:.0951127px;stroke-linecap:butt;stroke-linejoin:miter;stroke-opacity:1" class="powerclip" d="M42.915 40.756h18.72v15.933h-18.72zm8.766 9.72.112.21.386.168h.112l.45-.12.064-.153.048-3.533-.144-.16-.217-.081-.586.008-.129.088-.104.169z"/></clipPath></defs><path style="fill:#ffc025;fill-opacity:1;stroke:#ffc025;stroke-width:.0951128px;stroke-linecap:butt;stroke-linejoin:miter;stroke-opacity:1" d="m5.218 26.482 3.066-.063.074-1.817h1.158l.154 1.823 3.049-.017-1.662-10.267-4.288-.017z" clip-path="url(#a)"/><path style="fill:#ffc025;fill-opacity:1;stroke:#ffc025;stroke-width:.0951128px;stroke-linecap:butt;stroke-linejoin:miter;stroke-opacity:1" d="m13.33 26.459 4.737.032.017-1.975-1.719-.024.024-8.4h-3.035z"/><path style="fill:#ffc025;fill-opacity:1;stroke:#ffc025;stroke-width:.0951128px;stroke-linecap:butt;stroke-linejoin:miter;stroke-opacity:1" d="M24.938 26.437v-10.29l3.304-.01.955.028.755.128.666.273.53.458.386.803.072.827-.032 1.06-.048.498-.257.401-.418.225-.578.16-.37.073-.136.008.25.032.296.08.362.105.297.209.45.393.2.458.04.859-.008 3.252-2.762.008.008-3.99-.024-.29-.145-.209-.2-.112-.225-.08-.193.016h-.193l-.04 4.617z" clip-path="url(#b)"/><path style="fill:#ffc025;fill-opacity:1;stroke:#ffc025;stroke-width:.0951128px;stroke-linecap:butt;stroke-linejoin:miter;stroke-opacity:1" d="m18.92 26.493 5.11.023.022-2.044-2.237-.023.023-2.282 1.85.011.012-1.942-1.874-.011-.011-2.056 2.01-.034.068-1.987-5.076-.023v10.368zM34.068 26.47l2.987-.01-.034-8.223 1.794.034-.034-2.169-6.496.012.068 2.01 1.738.011z"/><path style="fill:#ffc025;fill-opacity:1;stroke:#ffc025;stroke-width:.0951128px;stroke-linecap:butt;stroke-linejoin:miter;stroke-opacity:1" d="M39.905 16.125h4.18l1.782 10.436-3.043-.068-.069-1.885-1.203.023-.137 1.84h-3.134z" clip-path="url(#c)"/><path style="fill:#c5212c;fill-opacity:1;stroke:#c5212c;stroke-width:.0951128px;stroke-linecap:butt;stroke-linejoin:miter;stroke-opacity:1" d="m5.19 27.56 5.86.046 2.361 16.625H9.232l-.227-2.952-1.453-.046-.227 2.908-4.27.09z" clip-path="url(#d)"/><path style="fill:#c5212c;fill-opacity:1;stroke:#c5212c;stroke-width:.0951128px;stroke-linecap:butt;stroke-linejoin:miter;stroke-opacity:1" d="m14.047 27.56 5.27.092 1.135 7.358 1.045-7.495 5.224.091v16.625h-3.498l-.09-10.81-1.409 10.765h-2.498l-1.545-10.72-.09 10.765-3.514-.026z"/><path style="fill:#c5212c;fill-opacity:1;stroke:#c5212c;stroke-width:.0951128px;stroke-linecap:butt;stroke-linejoin:miter;stroke-opacity:1" d="m28.333 44.186.023-16.625 4.565.022 1.158.091.966.148.829.33.443.283.363.432.338.499.2.506.145.465.12.755.017.699v.955l-.08.707-.105.53-.257.386-.506.377-.425.24-.337.121-.298.04-.333.02-.008.1.41.033.273.062.397.114.33.17.375.301.317.409.228.466.204.51.085.534-.013 3.826-.066.422-.193.556-.29.573-.494.46-.42.239-.545.125-.653.074-.59.034-.547-.002z" clip-path="url(#e)"/><path style="fill:#c5212c;fill-opacity:1;stroke:#c5212c;stroke-width:.0951128px;stroke-linecap:butt;stroke-linejoin:miter;stroke-opacity:1" d="m39.323 27.575 6.713-.016v3.325l-2.602.064-.016 3.083 2.441.048.016 3.18-2.473.032.032 3.534 2.794.064.049 3.324-6.986-.048z"/><path style="fill:#c5212c;fill-opacity:1;stroke:#c5212c;stroke-width:.0951128px;stroke-linecap:butt;stroke-linejoin:miter;stroke-opacity:1" d="M52.862 44.254h3.816l-.136-6.813-.115-.342-.201-.321-.185-.298-.225-.257-.257-.208-.289-.137-.305-.128-.345-.057-.313-.048-.129-.048.072-.16h.338l.361.008.377-.057.314-.208.369-.241.233-.346.168-.393.105-.313.096-.53.024-.562-.008-.442v-.474l-.008-.289-.088-.297.008-.088.393.052.61.012.436-.023.472-.017.346-.051.477-.08.46-.08.426-.107.51-.148.597-.204.522-.227.585-.25.494-.256.613-.335.483-.3.403-.279.307-.244.073-.114-.3.069-.415.119-.397.13-.443.12-.568.085-.483.062h-.34l-.778.006-.517-.006-.585-.022-.653-.046-.585-.068-.834-.153-.795-.176-.489-.114-.88-.272-.72-.335-.648-.33-.664-.369-.733-.465-.778-.614-.715-.641-.42-.477-.443-.551-.256-.403-.238-.415-.244-.51-.17-.483-.2-.653-.158-.682-.091-.653-.051-.664-.04-.636.023-.483.028-.442.028-.699-.147.193-.392.613-.216.426-.221.551-.278.636-.2.693-.147.738-.125.727.023.624.023.528.125.682.142.647.187.568.255.51.256.45.227.397.21.346.16.227.067.057-.017.108-1.601.006.09 16.653 3.998.091-.022-7.563.306.011.386.023.205.136.181.216.091.273z" clip-path="url(#f)"/><path style="fill:#149751;fill-opacity:1;stroke:#149751;stroke-width:.0951128px;stroke-linecap:butt;stroke-linejoin:miter;stroke-opacity:1" d="m2.931 51.52 3.276.025.016-3.542 1.406 3.55 2.328-.024 1.26-3.526.065 3.566 3.284-.057.057-5.637-4.93-.016-.876 2.61-.988-2.578-4.866-.016zM16.137 51.545h6.518l-.022-1.159-2.692.023-.034-1.147 2.305-.045.012-1.102H19.93l-.012-1.01 2.442-.023v-1.193l-6.2.034zM19.044 44.737l3.095.023-2.726.993-1.999.012zM26.643 51.48l.755-1.87 1.14 1.886 3.502.065-2.08-3.212 1.397-2.433-3.043-.073-.892 1.67-.827-1.646-3.677.008 1.38 2.522-1.244 3.148zM32.603 51.533h3.736l-.022-5.678-3.77.046zM42.936 48.397l3.734-.056-.002-.862-.066-.411-.17-.276-.162-.213-.23-.17-.326-.168-.4-.164-.395-.114-.383-.093-.486-.063-.584-.028-1.06-.024-.995.032-.932.048-.594.056-.51.109-.45.132-.453.233-.37.225-.161.174-.097.17-.063.17.032 3.124.022.309.174.19.227.193.26.114.33.142.301.125.437.113.449.063.443.062.619.051.698-.006.784.012.664-.017.767-.063.533-.068.62-.164.3-.086.38-.17.415-.204.222-.228.119-.295.04-.375-.018-.613-3.747.029.017.403.006.465-.04.293-.122.136-.162.068-.238.003-.38-.017-.24-.02-.099-.09-.065-.157.01-3.314.08-.148.093-.129.212-.02.506.02.302.032.08.2.016 1.318z"/><path style="fill:#149751;fill-opacity:1;stroke:#149751;stroke-width:.0951128px;stroke-linecap:butt;stroke-linejoin:miter;stroke-opacity:1" d="m51.303 51.64 2.209-.031.915-.12.811-.193.69-.305.563-.498.096-.217-.024-3.1-.209-.45-.474-.305-.698-.265-.586-.184-.731-.145-1.927-.024-1.124.04-.659.065-.803.232-.49.241-.578.346-.265.49-.056.176.008 2.835.032.249.193.257.217.208.45.225.69.265.474.097.714.072z" clip-path="url(#g)"/><path style="fill:#ffc025;fill-opacity:1;stroke:#ffc025;stroke-width:.0951128px;stroke-linecap:butt;stroke-linejoin:miter;stroke-opacity:1" d="m56.956 26.082-.538-.089-.505-.217-.386-.2-.474-.346-.385-.297-.24-.337-.378-.506-.21-.361-.216-.33-.2-.2-.226-.072-.2.08-.185.24-.056.306.112.377.346.546.208.33.257.297.305.28.402.354.385.233.305.16.402.161.281.08.594.137.578.024.338-.088.144-.225-.048-.225-.177-.096zM60.265 24.435l-.53-.112-.522-.144-.73-.233-.748-.354-.465-.329-.562-.442-.402-.457-.265-.337-.257-.41-.273-.361-.185-.281-.104-.346-.128-.297-.225-.24-.434-.105-.37.024-.232.24-.105.37.137.586.257.498.442.667.538.626.57.538.626.538.522.241.538.193.626.225.562.184.587.048.698.017.474-.057.16-.168-.064-.193zM63.39 22.428l-.375-.182-.648-.102-.829-.25-.942-.397-.568-.307-.659-.42-.59-.5-.352-.363-.409-.443-.432-.568-.295-.534-.318-.522-.181-.42-.17-.307-.24-.261-.351-.125-.602-.045-.295.193-.16.272-.034.41.091.42.307.76.34.534.41.579.408.568.511.5.784.59.795.568.579.33.659.26.704.227.59.16.613.136.625.09h.58l.43-.124.25-.193v-.25z"/></svg>