<svg width="256" height="256" viewBox="0 0 67.733 67.733" xmlns:xlink="http://www.w3.org/1999/xlink" xmlns="http://www.w3.org/2000/svg"><defs><clipPath clipPathUnits="userSpaceOnUse" id="a"><use xlink:href="#g3851"/></clipPath><clipPath clipPathUnits="userSpaceOnUse" id="b"><path class="powerclip" d="M242.05 50.45h36.697v36.685H242.05zm16.647 12.23-.316.219-.081-.04-.077-.2-.336-.514-.464-.357-.316-.254-.427-.24-.76-.122-.779.01-.642.183-.397.311-.443.433-.433.535-.25.642-.046.525.026 1.024.168.514.214.403.494.504.397.336.484.128.184.132-.123.3-.132.617-.082 1.024.097 1.335.138.738.433.861.672 1.034.963.912.79.586.733.367.968.204.8.071 1.289.015.759-.056.693-.173.957-.438.581-.336.667-.57.673-.633.555-.692.438-.826.265-.932.082-1.014.04-1.08-.183-1.008-.178-.764-.398-.729-.504-.764-.728-.85-.83-.668-.913-.5-.728-.28-.881-.193-.683-.087-.932-.03-.785.147zm-5.443-1.817a1.36 1.36 0 0 0-1.36-1.36 1.36 1.36 0 0 0-1.36 1.36 1.36 1.36 0 0 0 1.36 1.36 1.36 1.36 0 0 0 1.36-1.36z"/></clipPath></defs><path style="fill:#e95a0b;fill-opacity:1;stroke:none;stroke-width:.264583px;stroke-linecap:butt;stroke-linejoin:miter;stroke-opacity:1" d="m283.37 88.347 3.242-.014.59-.75 1.643-2.835 1.12-1.997.816-2.078.957-3.016.877-3.342.427-3.036.102-3.036-.326-3.872-.856-3.81-.937-3.26-.876-2.222-1.243-2.384-1.427-2.241-.957-1.406-48.13-.102-.388.754-.56 1.69-.693 1.977-.398 2.15-.305 2.079-.122 1.885-.02 2.384.223 2.465.408 1.834.193.785.347.06.193-.651.907-1.824 1.09-1.752 1.431-1.66 1.758-2.017 2.248-1.974 2.104-1.412 2.16-1.34 2.177-.908 2.391-.793 2.392-.446 2.55-.202 2.421-.014 1.686.043 2.06.274 1.83.36 1.73.475 1.412.49 2.031.85 2.536 1.456 1.888 1.383.72.62 1.225 1.037 1.009 1.196.806.879.951 1.354.908 1.369.893 1.44 1.01 1.96.792 1.888.504 1.542.389 1.152.403 2.248.101 2.464.029 3.098-.331 2.435-.548 2.262-.331 1.355-.663 1.613z" transform="translate(-226.39 -34.812)"/><path style="fill:#f39000;fill-opacity:1;stroke:none;stroke-width:.264583px;stroke-linecap:butt;stroke-linejoin:miter;stroke-opacity:1" d="m233.825 48.96 2.968.044-.086.432-.346.735-.547 1.441-.577 1.643-.331 1.47-.346 1.383-.23 1.57-.044 2.378v2.017l.087 1.96.374 1.44.505 2.003.749 2.09 1.11 2.16.749 1.47 1.138 1.672 1.138 1.642 1.167 1.268 1.312 1.413 1.124 1.008 1.325.994 1.527.966 1.513.792 1.657.821 1.902.663 1.542.461 1.686.418 1.887.274 2.032.144 1.787.015h1.758l1.8-.173 2.047-.418 1.743-.433 1.945-.878 1.974-.865 1.7-1.052 1.485-1.138 1.772-1.455 1.556-1.528 1.254-1.426 1.297-1.772 1.037-1.585.864-1.542.317-.88.346.65.245 1.613.274 1.398.23 2.637-.201 2.723-.26 2.334-.432 2.017-.533 1.989-.62 1.513-.317.922-48.01.014-.95-1.311-1.225-2.104-1.427-2.665-1.21-3.286-.937-3.112-.59-3.213-.13-2.723-.029-2.81.188-2.45.273-2.017.62-2.377.634-2.032.893-2.435.836-1.714.965-1.874 1.009-1.541z" transform="translate(-226.39 -34.812)"/><path style="fill:#4c4c4c;fill-opacity:1;stroke:none;stroke-width:.337893;stroke-linejoin:bevel;stroke-miterlimit:4;stroke-dasharray:none;stroke-dashoffset:0;stroke-opacity:.377622" clip-path="url(#b)" d="M273.747 68.793a13.349 13.342 0 0 1-13.349 13.342 13.349 13.342 0 0 1-13.349-13.342A13.349 13.342 0 0 1 260.4 55.45a13.349 13.342 0 0 1 13.348 13.342z" transform="translate(-226.39 -34.812)"/></svg>