<svg width="256" height="256" viewBox="0 0 67.733 67.733" xmlns="http://www.w3.org/2000/svg"><defs><clipPath clipPathUnits="userSpaceOnUse" id="a"><path style="fill:#97162e;fill-opacity:1;stroke:#000;stroke-width:.264583px;stroke-linecap:butt;stroke-linejoin:miter;stroke-opacity:1" class="powerclip" d="M-91.266-31.789h73.23V73.436h-73.23zm35.718 57.872 2.322-.003 2.594-.346 2.334-.49 2.536-1.008 1.21-.72 1.816-1.038 1.758-1.355 1.96-1.786 1.526-1.931.807-1.383.778-1.643.894-1.758.778-2.132.374-1.7.096-1.903.077-2.939-.201-3.256-.577-2.248-1.152-3.055-1.06-1.828-1.875-2.445-2.283-2.201-2.649-1.997-2.832-1.59-2.527-.896-1.793-.346-2.14-.286-2.16.02-1.976.062-3.057.448-2.2.693-1.65.795-1.876.815-1.569 1.06-1.61 1.365-1.548 1.487-1.365 1.59-1.325 1.956-1.223 2.363-.713 2.344-.55 2.037-.306 2.507-.142 2.22.102 2.242.448 2.18.59 2.059 1.06 2.18 1.02 2.038 1.14 1.59 1.57 1.874 1.732 1.569 1.874 1.67 2.12 1.305 2.506 1.263 2.282.55 2.425.062z"/></clipPath><clipPath clipPathUnits="userSpaceOnUse" id="b"><path style="fill:#97162e;fill-opacity:1;stroke:#000;stroke-width:.264583px;stroke-linecap:butt;stroke-linejoin:miter;stroke-opacity:1" class="powerclip" d="M-26.732-31.623h49.808v73.23h-49.808zM4.279 3.342l-.937-.611-1.182-.612-1.834-.407-2.241-.082-2.283.326-1.426 1.06-1.345 1.019-.815 1.548-.652 2.038-.448 2.2-.326 1.509.04 1.874-.04 2.405.366 2.69.163 1.752.367 1.426.693 2.283 1.345 1.711 1.426.734 1.875.122 2.12-.122 1.507-.652 1.06-.734 1.14-1.019 1.101-1.14.326-1.02z"/></clipPath><clipPath clipPathUnits="userSpaceOnUse" id="c"><path style="fill:#97162e;fill-opacity:1;stroke:#000;stroke-width:.264583px;stroke-linecap:butt;stroke-linejoin:miter;stroke-opacity:1" class="powerclip" d="M70.466-13.202h48.414v54.687H70.466zM88.11 10.107l13.572-.04-.082-2.976-.408-1.548-.366-1.06-.612-1.223-.733-.489-1.997-1.019-2.079-.326h-1.508l-1.426.53-1.223.652-1.1 1.508-.896 1.712-.49 1.467-.366 1.467z"/></clipPath><clipPath clipPathUnits="userSpaceOnUse" id="d"><path style="fill:#97162e;fill-opacity:1;stroke:#000;stroke-width:.264583px;stroke-linecap:butt;stroke-linejoin:miter;stroke-opacity:1" class="powerclip" d="M110.656-13.374h47.304V41.5h-47.304zm28.965 30.693-2.277-.317-2.305.433-2.248.576-2.219.893-1.498 1.153-.865 1.037-.346 1.758-.029 1.384.951 1.7 1.643.605 2.219-.087 1.729-.288 1.095-.49 1.326-.778 1.095-.893 1.066-1.124.548-1.037.259-1.412z"/></clipPath><path id="e" d="M-78.42 188.208h681.382v135.928H-78.42z"/></defs><path style="fill:#5f161f;fill-opacity:1;stroke:#5f2015;stroke-width:.264583px;stroke-linecap:butt;stroke-linejoin:miter;stroke-opacity:1" d="m-59.827 68.304 10.352-.082-.082-31.95 1.732-.47 2.486-.794 2.832-.999 2.14-1.1 2.466-1.304 2.037-1.508 2.12-1.59 1.997-1.895 1.854-2.058 1.467-2.058 1.304-2.14 1.365-2.669.897-2.302.672-2.058.53-2.548.347-2.119.122-2.445.02-2.323-.224-2.792-.346-2.71-.673-2.67-1.019-2.669-.978-2.526-1.467-2.262-1.365-2.038-1.57-2.18-1.894-1.895-1.671-1.57-2.2-1.772-2.324-1.427-2.67-1.406-2.607-1.018-2.303-.632-1.834-.326-2.568-.428-2.812-.163-3.797-.064-2.622.346-3.084.518-2.766 1.067-3.257 1.325-2.622 1.585-3.084 2.248-2.391 2.276-2.248 2.392-1.902 2.738-1.902 3.717-1.114 2.453-.815 2.73-.449 2.222-.346 2.465-.04 3.159.06 2.608.082 2.2.244 1.957.632 2.466.795 2.384.713 1.956 1.223 2.12 1.263 1.915 1.161 1.711 1.325 1.732 1.04 1.182 1.405 1.365 1.691 1.488 1.712 1.1 1.671 1.04 2.058 1.06 2.242 1.201 1.772.775 2.018.713 1.487.265h1.57l-.103 32.48z" clip-path="url(#a)" transform="matrix(.2759 0 0 .2759 24.666 28.121)"/><path style="fill:#5f161f;fill-opacity:1;stroke:#5f2015;stroke-width:.264583px;stroke-linecap:butt;stroke-linejoin:miter;stroke-opacity:1" d="m-48.37.533.173-.994-.015-.965.173-.663.548-.26.389-.014.763.202.332.605.691.605.044.519-.058.763.058.72.49.779.62.49.23.418.072 4.207.115.677.331.677.778.476.087.36.029.26 2.853.043.23-.23.75-.188.49-.317.187-.75.014-.864-.072-.547-.144-.39-.26-6.613-.172-.39-.577-.374-.273-.302-.015-.332 1.24-.115.115-.346-.058-.389-.39-.418-.186-.216-.015-.389.418-.447.648-.749.173-.432-.662-.677-.606-.706-.691-.332-.692.03-.663-.044-.403.461-.562-1.297-.447-.043-.663 1.326-.36.763-.418.173-.432-.677-.288-.605.115-.245 1.009.029.13-.562-.649-.375.101-.634.605-.303-.187-1.195-1.095.028-.202 1.686-.245-.086.087-.62-.375-.029-.058-.72-1.786.202-.159.734-1.095.159.058.821-.332.044-.029.33.087.174.274.072-.044.49-1.844.216-.202 1.34-.691-.115.072-1.816-.476.072.072-.418-1.44.015-.015-.562.49-1.225.158-.879-.561-.202-.03-.749-.417-.187-.115-.49-1.009-.014-.202-.966-.879.015.015.922-1.398.057-1.686-1.613-1.138-.649-.389.043-.187.692-.332.187-.677-.49-.303.36.793.822.504.519-.173 1.556-.648.216-.504-.144-.75.288-.446.677-.274.202-.288-.519-.649-.1-.374.288-.043.417.403.505.288.634-.086.345-.072.289.518.1.087.735-.274.375-.562.23-.13.49.015.404.202.461-.058.432-.404.23-.49.145-.115-.159-.057-.317-.519-.201-.504.028-.159.52-.072.85v.59l.13.49.158.274.23.029-.086.417.13.289.317.158.288.1.015.304.13.36.316.144.058.331-.173.432-.245.245-.288.26-.418.115-.648.173-.461.158-.217.577.188.706-.058.418-.302.187.086.173.548.014-.188.447-.389.605-.46.36-.275.591-.057.735-.39.13-.057.821-.562.461-.864.173-.606.288-.389-.072.101 1.427-.23.475-1.11.029-.014.533.086.504.85.447 1.24.115.36.101.36.692.288.26.274.114-.029.144-.605.116-.173.605-.1.355-.56.408-.04.754.203.52.459-.042.275-.397.183.01.174.316.01.795.01.418.071.275.347.163.305-.286.113-.183.05.56.031.591.04.693-.03.438.5.061.387.184.101.51.316.274.52-.163.132-.825.204-.377.622.01.244-.611.805-.02.082-.49.692.082.265-.713.5.01.081-1.498 1.019.02.132 1.203.958.132.234-1.222s1.712-.204 1.62-.163c-.091.04.714-.173.714-.173l.315-.571.082-.999.244-.193 2.252.04.49.276.203.305.57-.101.296-.52.489-.632.693-.764.56-.611-.204-.744.398-.173.744.153.55-.877.468-.57-.132-.336.153-.57.693-.755-.133-1.019.092-1.13-.133-.816-.58-.794-.449-.795-.102-.54.082-.397.785-.276.52-.264.335-.367.051-.51z" transform="matrix(.2759 0 0 .2759 24.666 28.121)"/><path style="fill:#97162e;fill-opacity:1;stroke:#97162e;stroke-width:.264583px;stroke-linecap:butt;stroke-linejoin:miter;stroke-opacity:1" d="M17.932 33.255c-.163-.489-1.06-3.83-1.06-3.83l-.163-4.402.082-49.475-.978-1.386-1.386-.49-3.505-.162-3.994.326-1.793.733-.652 1.386-.245 18.747L2.16-7.05.734-7.376l-2.079-.367-2.893-.163-2.568.122-3.097.734-2.405.937-2.975 2.323-1.59 1.834-2.363 3.708-1.019 2.894-1.06 4.198-.285 5.175.204 4.932.815 4.483 1.63 4.564 2.405 3.668 2.69 2.364 2.852 1.59 2.12.733 3.667.122 3.342-.49 2.527-1.018 2.038-1.263 1.1-1.386.978-1.752.367-.449.285 1.875.367 2.078.582 1.059.835.691 1.7.317 3.026-.403 3.113-.577 2.305-.835z" clip-path="url(#b)" transform="matrix(.2759 0 0 .2759 24.666 28.121)"/><path style="fill:#97162e;fill-opacity:1;stroke:#97162e;stroke-width:.264583px;stroke-linecap:butt;stroke-linejoin:miter;stroke-opacity:1" d="m24.898 34.927 1.441.864 7.032.23 2.536-.921.807-1.21L36.54-5.88l-1.095-1.268-1.326-.403-4.553-.058-2.248.058-2.42.807-.346 1.671zM24.322-16.57l.115-7.925.663-.95s1.153-.548 1.268-.606c.115-.058 1.009-.23 1.009-.23l6.916.028 1.124.519.778.548.403.72-.086 8.328-.951.778-1.297.433-.75.288-6.858-.03-1.614-.489zM66.799 3.055l1.383-1.153.922-1.73.98-2.132.23-1.902-1.325-1.844-2.882-1.268-3.054-.691-2.824-.289-2.248-.345-4.323.345-3.17 1.038L47.78-5.36l-2.132 1.729-1.153 2.363L42.88 1.96l-.115 2.766.058 3.112.807 3.343 1.613 2.19 2.19 2.075 1.96 1.21 2.536 1.268 3.4 1.268 1.845.865 1.268.922.864 1.383.231.98-.173 1.182-.605 1.037-.836.72-1.297.52-1.44.23-1.21.029-1.874-.202-1.527-.49-1.816-.605-1.124-.72-1.239-.548-.836-.173-1.267 1.181-1.182 1.21-1.009 1.557-.576 2.161.144 1.384.663 1.268 1.7 1.008 2.427 1.08 1.834.733 2.282.408 3.22.285 3.83-.081 3.668-.53 2.568-.978 2.363-1.427 2.079-1.793 1.304-1.752 1.019-1.671.733-1.916.245-1.834.163-2.2-.204-2.323-.611-2.608-.774-1.671-1.468-1.957-1.752-1.263-2.241-1.426-3.139-1.345-2.404-1.02-2.078-1.262-1.427-1.182-.652-1.304v-1.55l.815-1.059.937-.693 1.427-.163s1.304-.163 1.467-.163h2.241l1.1.408 1.55.693 1.322.585z" transform="matrix(.2759 0 0 .2759 24.666 28.121)"/><path style="fill:#97162e;fill-opacity:1;stroke:#97162e;stroke-width:.264583px;stroke-linecap:butt;stroke-linejoin:miter;stroke-opacity:1" d="m88.151 18.299 21.274-.204.774-.285 1.549-1.468 1.345-1.711.652-1.1-.204-2.324-.49-3.912-1.059-3.75-1.06-2.974-1.589-2.772-2.73-2.771-3.383-1.956-2.812-.775-3.056-.366-3.465.081-2.608.122-4.075 1.142-3.424 1.63-2.16 1.63-2.69 3.342-2.037 4.238-1.1 4.442-.163 4.443-.041 4.075.57 3.26.653 3.22 1.263 3.138 1.712 2.567 1.67 2.12 2.201 1.63 2.568 1.467 3.953 1.345 4.035.53 4.645-.041 3.628-.49 3.504-.896 3.057-1.06 1.549-.774 1.06-1.345.407-1.181-.163-1.386-.652-1.386-1.141-1.793-1.59-1.345-.733-.448-1.63.367-1.794 1.1-2.445.856-2.894.448-3.22-.04-2.159-.449-1.752-.693-1.59-1.508-.896-1.385-.816-1.997-.407-1.834z" clip-path="url(#c)" transform="matrix(.2759 0 0 .2759 24.666 28.121)"/><path style="fill:#97162e;fill-opacity:1;stroke:#97162e;stroke-width:.264583px;stroke-linecap:butt;stroke-linejoin:miter;stroke-opacity:1" d="m152.828 33.092-.326-2.73-.53-2.364-.244-2.241-.033-21.78-.288-2.478-.807-2.19-1.325-2.133-1.614-1.672-2.133-1.383-3.4-1.152-2.824-.577-3.343-.46-3.746-.174-4.092.288-3.343.865-3.458 1.268-1.787 1.498-1.153 1.21-.057 1.269.288 1.383.634 1.498 1.614 2.248.807.75 1.613.115 1.556-.75 1.326-.46 1.902-.52 1.96-.576 2.132-.173.98-.057h1.729l1.614.288 1.095.634 1.153.807.806 1.671.173 1.614.173 1.96-.173.807-2.536-.289-2.997.116-1.296.057-2.248.288-2.94.663-2.65.922-3.142 1.384-2.45 2.103-1.873 2.565-1.296 2.392-.49 2.363v3.458l.634 3.285.95 2.45 1.816 2.19 2.075 1.758 1.527.749 1.845.403 2.046.116 2.103-.03 2.392-.374 1.96-.49 1.815-.922 2.104-1.412 1.499-1.037 1.123-1.124.548-.865.346.865.144 1.47.403 1.095.433 1.037.46.692.865.403 1.73.23 1.7-.143 1.873-.231 2.363-.49 1.585-.519.691-.691z" clip-path="url(#d)" transform="matrix(.2759 0 0 .2759 24.666 28.121)"/><text xml:space="preserve" transform="matrix(.073 0 0 .073 20.15 25.768)" style="font-style:normal;font-variant:normal;font-weight:700;font-stretch:normal;font-size:26.6667px;line-height:1.25;font-family:sans-serif;-inkscape-font-specification:'sans-serif Bold';white-space:pre;shape-inside:url(#e);fill:#868686;fill-opacity:1;stroke:none;stroke-opacity:1"><tspan x="-78.42" y="212.47">PROGRAMA PARA LA BÚSQUEDA Y LOCALIZACIÓN </tspan><tspan x="-78.42" y="245.804">DE PERSONAS DESAPARECIDAS, NO LOCALIZADAS, </tspan><tspan x="-78.42" y="279.137">AUSENTES Y EXTRAVIADAS</tspan></text></svg>