<?xml version="1.0" encoding="UTF-8" standalone="no"?>
<!-- Created with Inkscape (http://www.inkscape.org/) -->

<svg
   width="256"
   height="256"
   viewBox="0 0 67.733332 67.733333"
   version="1.1"
   id="svg5"
   inkscape:version="1.1.2 (b8e25be833, 2022-02-05)"
   sodipodi:docname="alert-amber-mexico-color.svg"
   xmlns:inkscape="http://www.inkscape.org/namespaces/inkscape"
   xmlns:sodipodi="http://sodipodi.sourceforge.net/DTD/sodipodi-0.dtd"
   xmlns="http://www.w3.org/2000/svg"
   xmlns:svg="http://www.w3.org/2000/svg">
  <sodipodi:namedview
     id="namedview7"
     pagecolor="#ffffff"
     bordercolor="#666666"
     borderopacity="1.0"
     inkscape:pageshadow="2"
     inkscape:pageopacity="0.0"
     inkscape:pagecheckerboard="0"
     inkscape:document-units="mm"
     showgrid="false"
     units="px"
     inkscape:zoom="1.4805976"
     inkscape:cx="-132.04128"
     inkscape:cy="50.655221"
     inkscape:window-width="1920"
     inkscape:window-height="1017"
     inkscape:window-x="-8"
     inkscape:window-y="-8"
     inkscape:window-maximized="1"
     inkscape:current-layer="layer1"
     height="256px" />
  <defs
     id="defs2" />
  <g
     inkscape:label="Layer 1"
     inkscape:groupmode="layer"
     id="layer1">
    <path
       style="fill:#ffc025;fill-opacity:1;stroke:#ffc025;stroke-width:0.0951128px;stroke-linecap:butt;stroke-linejoin:miter;stroke-opacity:1"
       d="m 5.2180082,26.481929 3.0661343,-0.06246 0.073814,-1.816969 h 1.1583182 l 0.1533061,1.822647 3.0491012,-0.01703 -1.661343,-10.267559 -4.2879887,-0.01606 z"
       id="path885" />
    <path
       style="fill:#ffc025;fill-opacity:1;stroke:#ffc025;stroke-width:0.0951128px;stroke-linecap:butt;stroke-linejoin:miter;stroke-opacity:1"
       d="m 13.329813,26.459031 c 0.04818,0 4.737665,0.03212 4.737665,0.03212 l 0.01607,-1.975366 -1.71841,-0.02409 0.02408,-8.399321 h -3.035319 z"
       id="path1115" />
    <path
       style="fill:#ffc025;fill-opacity:1;stroke:#ffc025;stroke-width:0.0951128px;stroke-linecap:butt;stroke-linejoin:miter;stroke-opacity:1"
       d="M 24.937795,26.436504 V 16.147919 l 3.304613,-0.01136 0.954572,0.02808 0.754815,0.128479 0.666486,0.273018 0.529974,0.457706 0.38544,0.802995 0.07227,0.827084 -0.0321,1.059952 -0.04818,0.497857 -0.256958,0.401497 -0.417559,0.224838 -0.578155,0.160599 -0.369375,0.07227 -0.13651,0.008 0.248927,0.03212 0.297108,0.0803 0.361348,0.104389 0.297108,0.208778 0.449676,0.393467 0.200749,0.457708 0.04015,0.859203 -0.008,3.252127 -2.762302,0.008 0.008,-3.990882 -0.02409,-0.289078 -0.14454,-0.208779 -0.200749,-0.112418 -0.224838,-0.0803 -0.192718,0.01606 H 27.92024 l -0.04017,4.617219 z"
       id="path1119" />
    <path
       style="fill:#ffffff;fill-opacity:1;stroke:#ffffff;stroke-width:0.0951128px;stroke-linecap:butt;stroke-linejoin:miter;stroke-opacity:1"
       d="m 27.984458,20.163556 -0.0321,-2.176114 0.200749,-0.008 0.273019,0.02409 0.240896,0.120449 0.14454,0.216808 0.04818,0.18469 0.01607,1.076012 -0.08833,0.264988 -0.16863,0.200749 -0.232868,0.120449 z"
       id="path1121" />
    <path
       style="fill:#ffc025;fill-opacity:1;stroke:#ffc025;stroke-width:0.0951128px;stroke-linecap:butt;stroke-linejoin:miter;stroke-opacity:1"
       d="m 18.919087,26.493284 5.110226,0.02271 0.02272,-2.044089 -2.237142,-0.02271 0.02272,-2.282566 1.851037,0.01136 0.01136,-1.941886 -1.873746,-0.01136 -0.01136,-2.055445 2.010021,-0.03407 0.06814,-1.987309 -5.076157,-0.02271 v 10.368075 z"
       id="path1117" />
    <path
       style="fill:#ffc025;fill-opacity:1;stroke:#ffc025;stroke-width:0.0951128px;stroke-linecap:butt;stroke-linejoin:miter;stroke-opacity:1"
       d="m 34.068064,26.470572 2.98664,-0.01136 -0.03408,-8.221783 1.794253,0.03407 -0.03408,-2.169006 -6.495661,0.01136 0.06814,2.010022 1.737477,0.01136 z"
       id="path1123" />
    <path
       style="fill:#ffc025;fill-opacity:1;stroke:#ffc025;stroke-width:0.0951128px;stroke-linecap:butt;stroke-linejoin:miter;stroke-opacity:1"
       d="m 39.905075,16.125207 h 4.179028 l 1.7829,10.436213 -3.04342,-0.06814 -0.06814,-1.885104 -1.203739,0.02271 -0.136273,1.839681 h -3.134272 z"
       id="path1125" />
    <path
       style="fill:#ffffff;fill-opacity:1;stroke:#ffffff;stroke-width:0.0951128px;stroke-linecap:butt;stroke-linejoin:miter;stroke-opacity:1"
       d="m 41.56306,22.73443 1.056111,-0.02271 -0.522378,-3.736141 z"
       id="path1127" />
    <path
       style="fill:#c5212c;fill-opacity:1;stroke:#c5212c;stroke-width:0.0951128px;stroke-linecap:butt;stroke-linejoin:miter;stroke-opacity:1"
       d="m 5.1896181,27.560754 5.8597239,0.04542 2.362059,16.625262 H 9.2323734 l -0.227121,-2.952574 -1.4535755,-0.04542 -0.227121,2.90715 -4.2698756,0.09085 z"
       id="path1129" />
    <path
       style="fill:#c5212c;fill-opacity:1;stroke:#c5212c;stroke-width:0.0951128px;stroke-linecap:butt;stroke-linejoin:miter;stroke-opacity:1"
       d="m 14.04734,27.560754 5.269208,0.09085 1.135607,7.358724 1.044755,-7.494996 5.223786,0.09085 V 44.23144 H 23.223031 L 23.132182,33.420478 21.724034,44.186016 H 19.2257 L 17.681276,33.465902 17.590426,44.23144 14.076596,44.2052 Z"
       id="path1131" />
    <path
       style="fill:#ffffff;fill-opacity:1;stroke:#ffffff;stroke-width:0.0951128px;stroke-linecap:butt;stroke-linejoin:miter;stroke-opacity:1"
       d="m 7.5402242,38.271078 h 1.36509 L 8.3110993,31.750764 Z"
       id="path1133" />
    <path
       style="fill:#c5212c;fill-opacity:1;stroke:#c5212c;stroke-width:0.0951128px;stroke-linecap:butt;stroke-linejoin:miter;stroke-opacity:1"
       d="m 28.333256,44.186016 0.02272,-16.625262 4.565132,0.02271 1.158319,0.09085 0.965263,0.147628 0.828994,0.329326 0.442885,0.283902 0.363393,0.43153 0.33819,0.49917 0.200749,0.505887 0.14454,0.465736 0.120448,0.754815 0.01607,0.698606 v 0.955562 l -0.0803,0.706636 -0.10439,0.529976 -0.256958,0.385437 -0.505888,0.377407 -0.425587,0.240899 -0.337259,0.120449 -0.297104,0.04015 -0.333244,0.02007 -0.008,0.100374 0.409525,0.03212 0.273221,0.06236 0.397461,0.11356 0.329325,0.17034 0.374749,0.300936 0.317973,0.408818 0.22712,0.465599 0.204409,0.511022 0.08517,0.533734 -0.01323,3.825463 -0.06626,0.421704 -0.193052,0.556446 -0.289577,0.573481 -0.493989,0.459918 -0.420174,0.23848 -0.545093,0.124916 -0.65297,0.07381 -0.590517,0.03408 -0.546535,-0.0014 z"
       id="path1135" />
    <path
       style="fill:#ffffff;fill-opacity:1;stroke:#ffffff;stroke-width:0.0951128px;stroke-linecap:butt;stroke-linejoin:miter;stroke-opacity:1"
       d="m 32.330587,34.033704 0.06814,-3.633938 0.744976,0.02606 0.09636,0.0281 0.123928,0.03669 0.11924,0.158984 0.124917,0.26119 0.07949,0.19873 0.03408,0.198731 -0.01704,2.066802 -0.07115,0.182448 -0.09636,0.164614 -0.128478,0.148554 -0.196734,0.120449 -0.192718,0.04818 -0.264989,0.02007 z"
       id="path1137" />
    <path
       style="fill:#ffffff;fill-opacity:1;stroke:#ffffff;stroke-width:0.0951128px;stroke-linecap:butt;stroke-linejoin:miter;stroke-opacity:1"
       d="m 32.341943,41.250476 0.01704,-4.485641 0.908486,0.01136 0.198732,0.09085 0.107881,0.107883 0.08517,0.158984 0.03408,0.210088 0.02272,3.094524 -0.07382,0.210087 -0.170341,0.295257 -0.2839,0.221444 -0.369073,0.107882 -0.312289,0.01136 z"
       id="path1139" />
    <path
       style="fill:#c5212c;fill-opacity:1;stroke:#c5212c;stroke-width:0.0951128px;stroke-linecap:butt;stroke-linejoin:miter;stroke-opacity:1"
       d="m 39.32274,27.575194 6.713029,-0.01606 v 3.324396 l -2.601699,0.06424 -0.01607,3.083498 2.441105,0.04818 0.01607,3.179856 -2.473222,0.03212 0.0321,3.533175 2.794418,0.06424 0.04818,3.324399 -6.986053,-0.04818 z"
       id="path1162" />
    <path
       style="fill:#c5212c;fill-opacity:1;stroke:#c5212c;stroke-width:0.0951128px;stroke-linecap:butt;stroke-linejoin:miter;stroke-opacity:1"
       d="m 52.862334,44.254152 h 3.815634 L 56.541696,37.44052 56.426518,37.098705 56.225769,36.777508 56.041078,36.4804 55.81624,36.223442 l -0.256958,-0.208779 -0.289077,-0.136509 -0.305139,-0.128479 -0.345286,-0.05621 -0.31317,-0.04818 -0.128479,-0.04818 0.07227,-0.160599 h 0.337258 l 0.361348,0.008 0.377406,-0.05621 0.313169,-0.208778 0.369375,-0.240898 0.232869,-0.345288 0.168629,-0.393467 0.10439,-0.313167 0.09636,-0.529977 0.02409,-0.562096 -0.008,-0.441647 v -0.473767 l -0.008,-0.289078 -0.08833,-0.297108 0.008,-0.08833 0.393467,0.0522 0.610275,0.01205 0.435559,-0.02318 0.471273,-0.01703 0.346361,-0.0511 0.476953,-0.07949 0.459922,-0.07949 0.425853,-0.107882 0.511021,-0.147629 0.596194,-0.204409 0.522377,-0.227121 0.584838,-0.249833 0.493989,-0.255512 0.613226,-0.335003 0.482633,-0.300936 0.403137,-0.278223 0.306617,-0.244155 0.07381,-0.113561 -0.300933,0.06814 -0.414497,0.119238 -0.397461,0.130595 -0.442889,0.119239 -0.567802,0.08517 -0.482633,0.06246 h -0.340681 l -0.77789,0.0057 -0.516701,-0.0057 -0.584834,-0.02271 -0.652974,-0.04542 -0.584837,-0.06814 -0.83467,-0.153307 -0.794923,-0.176019 -0.488313,-0.113561 -0.880094,-0.272545 -0.721106,-0.335004 -0.647298,-0.329325 -0.664326,-0.369072 -0.732466,-0.465599 -0.77789,-0.613226 -0.715434,-0.641617 -0.420173,-0.476954 -0.442885,-0.550769 -0.255513,-0.40314 -0.238476,-0.414496 -0.244157,-0.511023 -0.17034,-0.482631 -0.198729,-0.652974 -0.158985,-0.681363 -0.09085,-0.652973 -0.0511,-0.664329 -0.03975,-0.635939 0.02272,-0.482632 0.0284,-0.442886 0.0284,-0.698398 -0.147629,0.193054 -0.391785,0.613226 -0.215764,0.425852 -0.221445,0.550769 -0.278224,0.635938 -0.198729,0.69272 -0.147629,0.738144 -0.124916,0.726787 0.02272,0.624583 0.02272,0.528056 0.124916,0.681363 0.141949,0.647296 0.187376,0.567802 0.255512,0.511023 0.255509,0.448564 0.227121,0.397461 0.210088,0.346361 0.158985,0.227121 0.06814,0.05678 -0.01704,0.107882 -1.601205,0.0057 0.09085,16.653652 3.99733,0.09085 -0.02272,-7.563131 0.306613,0.01136 0.386105,0.02271 0.204409,0.136272 0.181696,0.215766 0.09085,0.272545 z"
       id="path1164" />
    <path
       style="fill:#ffffff;fill-opacity:1;stroke:#ffffff;stroke-width:0.0951128px;stroke-linecap:butt;stroke-linejoin:miter;stroke-opacity:1"
       d="m 51.590455,34.022349 -0.02272,-3.690718 0.317969,0.02271 0.329324,0.09085 0.295261,0.147629 0.227121,0.272545 0.04542,0.238477 0.05678,2.452908 -0.170344,0.31797 -0.363393,0.204408 -0.454242,0.03407 z"
       id="path1189" />
    <path
       style="fill:#149751;fill-opacity:1;stroke:#149751;stroke-width:0.0951128px;stroke-linecap:butt;stroke-linejoin:miter;stroke-opacity:1"
       d="m 2.9310373,51.520482 3.2762165,0.02408 0.016058,-3.541206 1.4052402,3.549233 2.3286838,-0.02408 1.2607002,-3.525144 0.06424,3.565295 3.284247,-0.05621 0.05621,-5.637021 L 9.6922473,45.859359 8.816983,48.469093 7.8293,45.891479 2.9631551,45.875409 Z"
       id="path1191" />
    <path
       style="fill:#149751;fill-opacity:1;stroke:#149751;stroke-width:0.0951128px;stroke-linecap:butt;stroke-linejoin:miter;stroke-opacity:1"
       d="m 16.136854,51.54474 h 6.518375 l -0.02272,-1.158319 -2.691384,0.02272 -0.03408,-1.146959 2.305278,-0.04543 0.01136,-1.101538 h -2.293922 l -0.01136,-1.010687 2.44155,-0.02272 v -1.192388 l -6.200404,0.03408 z"
       id="path1218" />
    <path
       style="fill:#149751;fill-opacity:1;stroke:#149751;stroke-width:0.0951128px;stroke-linecap:butt;stroke-linejoin:miter;stroke-opacity:1"
       d="m 19.044003,44.736785 3.094525,0.02272 -2.725452,0.993654 -1.998665,0.01136 z"
       id="path1333" />
    <path
       style="fill:#149751;fill-opacity:1;stroke:#149751;stroke-width:0.0951128px;stroke-linecap:butt;stroke-linejoin:miter;stroke-opacity:1"
       d="m 26.643458,51.480335 0.754815,-1.870978 1.140251,1.887036 3.501055,0.06424 -2.079753,-3.211978 1.397209,-2.43307 -3.043349,-0.07227 -0.891324,1.670228 -0.827082,-1.646139 -3.677715,0.008 1.381151,2.521402 -1.244642,3.147739 z"
       id="path1335" />
    <path
       style="fill:#149751;fill-opacity:1;stroke:#149751;stroke-width:0.0951128px;stroke-linecap:butt;stroke-linejoin:miter;stroke-opacity:1"
       d="m 32.603132,51.533384 h 3.736142 l -0.02272,-5.678028 -3.77021,0.04542 z"
       id="path1337" />
    <path
       style="fill:#149751;fill-opacity:1;stroke:#149751;stroke-width:0.0951128px;stroke-linecap:butt;stroke-linejoin:miter;stroke-opacity:1"
       d="m 42.936212,48.396836 3.733924,-0.05621 -0.0025,-0.861354 -0.0653,-0.411657 -0.170341,-0.275385 -0.161824,-0.212925 -0.229961,-0.17034 -0.326485,-0.167505 -0.400301,-0.16466 -0.394625,-0.113561 -0.383265,-0.09369 -0.485473,-0.06246 -0.583845,-0.028 -1.059951,-0.02409 -0.995714,0.0321 -0.931475,0.04818 -0.594213,0.05621 -0.509904,0.108406 -0.449675,0.132494 -0.453692,0.232869 -0.369378,0.224838 -0.161709,0.173745 -0.09652,0.17034 -0.06296,0.16983 0.0321,3.12365 0.02232,0.309226 0.173181,0.190216 0.22712,0.193053 0.261189,0.11356 0.329329,0.141949 0.300933,0.124916 0.437209,0.113564 0.448565,0.06246 0.442885,0.06246 0.618906,0.0511 0.698398,-0.0057 0.783566,0.01136 0.66433,-0.01704 0.766534,-0.06246 0.533733,-0.06814 0.618906,-0.164661 0.300936,-0.08517 0.380426,-0.17034 0.414497,-0.204409 0.221444,-0.227121 0.119237,-0.295256 0.03975,-0.374749 -0.01704,-0.61323 -3.747498,0.0284 0.01704,0.403141 0.0057,0.465598 -0.03974,0.292417 -0.12208,0.136272 -0.161821,0.06814 -0.238476,0.0029 -0.380429,-0.01704 -0.238477,-0.01988 -0.09937,-0.09085 -0.0653,-0.156145 0.01003,-3.314124 0.0803,-0.148553 0.09234,-0.128482 0.212792,-0.02006 0.505888,0.02006 0.301123,0.03214 0.0803,0.200749 0.01607,1.316911 z"
       id="path1368" />
    <path
       style="fill:#149751;fill-opacity:1;stroke:#149751;stroke-width:0.0951128px;stroke-linecap:butt;stroke-linejoin:miter;stroke-opacity:1"
       d="m 51.303412,51.640933 2.208236,-0.0321 0.915414,-0.120452 0.811023,-0.192718 0.690576,-0.305136 0.562096,-0.497857 0.09636,-0.216811 -0.02409,-3.099557 -0.208776,-0.449676 -0.473768,-0.305139 -0.698603,-0.264988 -0.586186,-0.184687 -0.730726,-0.144541 -1.927186,-0.02408 -1.124193,0.04015 -0.658456,0.06424 -0.802993,0.232868 -0.489826,0.240896 -0.578155,0.34529 -0.264988,0.489826 -0.05621,0.176657 0.008,2.834572 0.0321,0.248927 0.192722,0.256958 0.216807,0.20878 0.449676,0.224838 0.690575,0.264988 0.473765,0.09636 0.714668,0.07227 z"
       id="path1402" />
    <path
       style="fill:#ffc025;fill-opacity:1;stroke:#ffc025;stroke-width:0.0951128px;stroke-linecap:butt;stroke-linejoin:miter;stroke-opacity:1"
       d="m 56.956491,26.081624 -0.538004,-0.08833 -0.505888,-0.216809 -0.385436,-0.200749 -0.473765,-0.345287 -0.38544,-0.297108 -0.240896,-0.337257 -0.37741,-0.505887 -0.208776,-0.361347 -0.216811,-0.329228 -0.200749,-0.200749 -0.224838,-0.07227 -0.200745,0.0803 -0.184691,0.240899 -0.05621,0.305137 0.112418,0.377407 0.345289,0.546037 0.208776,0.329228 0.256958,0.297107 0.305139,0.281049 0.401498,0.353317 0.385437,0.232868 0.305139,0.1606 0.401498,0.160598 0.281046,0.0803 0.594217,0.136509 0.578154,0.02409 0.337259,-0.08833 0.144537,-0.224838 -0.04818,-0.224839 -0.17666,-0.09636 z"
       id="path1436" />
    <path
       style="fill:#ffc025;fill-opacity:1;stroke:#ffc025;stroke-width:0.0951128px;stroke-linecap:butt;stroke-linejoin:miter;stroke-opacity:1"
       d="m 60.264828,24.435486 -0.529977,-0.11242 -0.521946,-0.144538 -0.730722,-0.232869 -0.746788,-0.353317 -0.465734,-0.329228 -0.562096,-0.441647 -0.401499,-0.457707 -0.264988,-0.337257 -0.256958,-0.409528 -0.273015,-0.361347 -0.184691,-0.281047 -0.10439,-0.345289 -0.128479,-0.297107 -0.224838,-0.240899 -0.433614,-0.104388 -0.369379,0.02409 -0.232869,0.240898 -0.10439,0.369378 0.13651,0.586185 0.256958,0.497856 0.441645,0.666486 0.538008,0.626336 0.570127,0.538006 0.626333,0.538006 0.521949,0.240899 0.538004,0.192718 0.626337,0.224838 0.562096,0.184689 0.586186,0.04818 0.698603,0.01606 0.473768,-0.05621 0.160598,-0.168629 -0.06424,-0.192719 z"
       id="path1584" />
    <path
       style="fill:#ffc025;fill-opacity:1;stroke:#ffc025;stroke-width:0.0951128px;stroke-linecap:butt;stroke-linejoin:miter;stroke-opacity:1"
       d="m 63.389395,22.427817 -0.374749,-0.181697 -0.647294,-0.102205 -0.828994,-0.249833 -0.942551,-0.397462 -0.567805,-0.306613 -0.65865,-0.420174 -0.590514,-0.499666 -0.352037,-0.363394 -0.408821,-0.442886 -0.431529,-0.567803 -0.295257,-0.533735 -0.317969,-0.522378 -0.181696,-0.420174 -0.170341,-0.306613 -0.23848,-0.26119 -0.352037,-0.124916 -0.60187,-0.04542 -0.295257,0.193052 -0.158984,0.272545 -0.03408,0.408819 0.09085,0.420174 0.306613,0.760855 0.340681,0.533735 0.408817,0.579158 0.408821,0.567804 0.511022,0.499666 0.783566,0.590515 0.794926,0.567802 0.579157,0.329326 0.65865,0.261189 0.704078,0.227121 0.590514,0.158985 0.613225,0.136273 0.624586,0.09085 h 0.579158 l 0.431529,-0.124917 0.249832,-0.193053 v -0.249833 z"
       id="path1586" />
    <path
       style="fill:#ffffff;fill-opacity:1;stroke:#ffffff;stroke-width:0.0951128px;stroke-linecap:butt;stroke-linejoin:miter;stroke-opacity:1"
       d="M 8.4476082,22.797377 H 9.4433206 L 8.9695547,19.296322 Z"
       id="path1113" />
    <path
       style="fill:#ffffff;fill-opacity:1;stroke:#ffffff;stroke-width:0.0951128px;stroke-linecap:butt;stroke-linejoin:miter;stroke-opacity:1"
       d="m 51.680821,50.47659 0.112418,0.208779 0.385436,0.16863 h 0.112421 l 0.449676,-0.120452 0.06424,-0.152568 0.04818,-3.533174 -0.144541,-0.160599 -0.216807,-0.0803 -0.586186,0.008 -0.128478,0.08833 -0.10439,0.16863 z"
       id="path1400" />
  </g>
</svg>
