<?xml version="1.0" encoding="UTF-8" standalone="no"?>
<!-- Created with Inkscape (http://www.inkscape.org/) -->

<svg
   width="256"
   height="256"
   viewBox="0 0 67.733332 67.733333"
   version="1.1"
   id="svg5"
   inkscape:version="1.1.2 (b8e25be833, 2022-02-05)"
   sodipodi:docname="alert-amber-mexico.svg"
   xmlns:inkscape="http://www.inkscape.org/namespaces/inkscape"
   xmlns:sodipodi="http://sodipodi.sourceforge.net/DTD/sodipodi-0.dtd"
   xmlns="http://www.w3.org/2000/svg"
   xmlns:svg="http://www.w3.org/2000/svg">
  <sodipodi:namedview
     id="namedview7"
     pagecolor="#ffffff"
     bordercolor="#666666"
     borderopacity="1.0"
     inkscape:pageshadow="2"
     inkscape:pageopacity="0.0"
     inkscape:pagecheckerboard="0"
     inkscape:document-units="mm"
     showgrid="false"
     units="px"
     inkscape:zoom="0.37014941"
     inkscape:cx="244.49586"
     inkscape:cy="370.12081"
     inkscape:window-width="1920"
     inkscape:window-height="1017"
     inkscape:window-x="-8"
     inkscape:window-y="-8"
     inkscape:window-maximized="1"
     inkscape:current-layer="layer1"
     height="256px" />
  <defs
     id="defs2" />
  <g
     inkscape:label="Layer 1"
     inkscape:groupmode="layer"
     id="layer1">
    <g
       id="g7494"
       transform="matrix(0.35948189,0,0,0.35948189,-19.793701,5.3483115)">
      <path
         style="fill:#000000;fill-opacity:1;stroke:#000000;stroke-width:0.264583px;stroke-linecap:butt;stroke-linejoin:miter;stroke-opacity:1"
         d="m 69.577105,58.789101 8.529315,-0.173747 0.205335,-5.054409 h 3.222188 L 81.960407,58.63115 90.44234,58.583763 85.820847,30.021659 73.8926,29.976984 Z"
         id="path885" />
      <path
         style="fill:#000000;fill-opacity:1;stroke:#000000;stroke-width:0.264583px;stroke-linecap:butt;stroke-linejoin:miter;stroke-opacity:1"
         d="m 92.142372,58.725405 c 0.134025,0 13.179148,0.08935 13.179148,0.08935 l 0.0447,-5.495036 -4.78024,-0.06701 0.067,-23.365073 h -8.443594 z"
         id="path1115" />
      <path
         style="fill:#000000;fill-opacity:1;stroke:#000000;stroke-width:0.264583px;stroke-linecap:butt;stroke-linejoin:miter;stroke-opacity:1"
         d="m 107.69051,58.82069 14.21553,0.06318 0.0632,-5.68621 -6.22324,-0.06318 0.0632,-6.3496 5.14918,0.03159 0.0316,-5.4019 -5.21235,-0.03159 -0.0316,-5.717799 5.59144,-0.09477 0.18954,-5.52826 -14.12076,-0.06318 V 58.82069 Z"
         id="path1117" />
      <path
         style="fill:#000000;fill-opacity:1;stroke:#000000;stroke-width:0.264583px;stroke-linecap:butt;stroke-linejoin:miter;stroke-opacity:1"
         d="M 124.43324,58.662739 V 30.042146 l 9.19271,-0.03159 2.65541,0.07812 2.09973,0.357402 1.85402,0.759476 1.47427,1.273238 1.07221,2.233755 0.20104,2.300767 -0.0893,2.948556 -0.13403,1.38493 -0.7148,1.116875 -1.16156,0.625451 -1.6083,0.446752 -1.02752,0.201038 -0.37974,0.02233 0.69246,0.08935 0.82649,0.223374 1.00519,0.290388 0.82649,0.580776 1.2509,1.094539 0.55844,1.273242 0.11169,2.390116 -0.0223,9.046707 -7.68412,0.02233 0.0223,-11.101761 -0.067,-0.80415 -0.40208,-0.580777 -0.55844,-0.312724 -0.62545,-0.223377 -0.5361,0.04467 h -0.5361 L 132.618,58.636042 Z"
         id="path1119" />
      <path
         style="fill:#ffffff;fill-opacity:1;stroke:#000000;stroke-width:0.264583px;stroke-linecap:butt;stroke-linejoin:miter;stroke-opacity:1"
         d="m 132.90839,41.212769 -0.0893,-6.053473 0.55844,-0.02233 0.75948,0.06701 0.67012,0.335063 0.40208,0.603112 0.13402,0.513766 0.0447,2.993231 -0.24571,0.737137 -0.46909,0.55844 -0.64779,0.335063 z"
         id="path1121" />
      <path
         style="fill:#000000;fill-opacity:1;stroke:#000000;stroke-width:0.264583px;stroke-linecap:butt;stroke-linejoin:miter;stroke-opacity:1"
         d="m 149.83165,58.75751 8.30818,-0.03159 -0.0948,-22.871202 4.99122,0.09477 -0.0948,-6.033701 -18.06951,0.03159 0.18954,5.591442 4.83328,0.03159 z"
         id="path1123" />
      <path
         style="fill:#000000;fill-opacity:1;stroke:#000000;stroke-width:0.264583px;stroke-linecap:butt;stroke-linejoin:miter;stroke-opacity:1"
         d="m 166.06894,29.978966 h 11.62514 l 4.95964,29.031263 -8.46613,-0.189539 -0.18955,-5.243949 -3.34854,0.06318 -0.37908,5.11759 h -8.71886 z"
         id="path1125" />
      <path
         style="fill:#ffffff;fill-opacity:1;stroke:#000000;stroke-width:0.264583px;stroke-linecap:butt;stroke-linejoin:miter;stroke-opacity:1"
         d="m 170.68109,48.36438 2.93787,-0.06318 -1.45314,-10.393129 z"
         id="path1127" />
      <path
         style="fill:#000000;fill-opacity:1;stroke:#000000;stroke-width:0.264583px;stroke-linecap:butt;stroke-linejoin:miter;stroke-opacity:1"
         d="m 69.49813,61.790156 16.300471,0.12636 6.570731,46.247844 H 80.744191 l -0.631801,-8.213414 -4.043529,-0.12636 -0.631801,8.087054 -11.87786,0.25272 z"
         id="path1129" />
      <path
         style="fill:#000000;fill-opacity:1;stroke:#000000;stroke-width:0.264583px;stroke-linecap:butt;stroke-linejoin:miter;stroke-opacity:1"
         d="m 94.138376,61.790156 14.657784,0.252719 3.15901,20.47036 2.90628,-20.849439 14.53143,0.25272 v 46.247844 h -9.72974 L 119.41042,78.090627 115.49326,108.038 h -6.94982 l -4.29625,-29.821013 -0.25272,29.947373 -9.774706,-0.073 z"
         id="path1131" />
      <path
         style="fill:#ffffff;fill-opacity:1;stroke:#000000;stroke-width:0.264583px;stroke-linecap:butt;stroke-linejoin:miter;stroke-opacity:1"
         d="m 76.037002,91.583935 h 3.797382 L 78.181408,73.445848 Z"
         id="path1133" />
      <path
         style="fill:#000000;fill-opacity:1;stroke:#000000;stroke-width:0.264583px;stroke-linecap:butt;stroke-linejoin:miter;stroke-opacity:1"
         d="m 133.87867,108.038 0.0632,-46.247844 12.6992,0.06318 3.22219,0.252719 2.68515,0.410671 2.30608,0.916111 1.23201,0.789753 1.01088,1.200422 0.94077,1.388584 0.55844,1.407265 0.40208,1.295578 0.33506,2.09973 0.0447,1.943368 v 2.658165 l -0.22337,1.965706 -0.29039,1.474277 -0.7148,1.072203 -1.40727,1.049864 -1.18389,0.670126 -0.93818,0.335063 -0.82648,0.111688 -0.92701,0.05584 -0.0223,0.27922 1.13921,0.08935 0.76004,0.173485 1.10565,0.315899 0.91611,0.47385 1.04247,0.837137 0.88453,1.137242 0.6318,1.295194 0.56862,1.421553 0.23692,1.484731 -0.0368,10.6416 -0.18431,1.17309 -0.53703,1.54791 -0.80554,1.5953 -1.37417,1.27939 -1.16883,0.6634 -1.51633,0.34749 -1.81642,0.20533 -1.64269,0.0948 -1.52034,-0.004 z"
         id="path1135" />
      <path
         style="fill:#ffffff;fill-opacity:1;stroke:#000000;stroke-width:0.264583px;stroke-linecap:butt;stroke-linejoin:miter;stroke-opacity:1"
         d="m 144.99837,79.796488 0.18954,-10.108819 2.07236,0.07248 0.26805,0.07818 0.34474,0.102057 0.3317,0.442259 0.34749,0.726573 0.22113,0.552825 0.0948,0.552826 -0.0474,5.74939 -0.19792,0.507532 -0.26805,0.45792 -0.3574,0.413245 -0.54727,0.335063 -0.5361,0.134024 -0.73714,0.05584 z"
         id="path1137" />
      <path
         style="fill:#ffffff;fill-opacity:1;stroke:#000000;stroke-width:0.264583px;stroke-linecap:butt;stroke-linejoin:miter;stroke-opacity:1"
         d="m 145.02996,99.871971 0.0474,-12.478073 2.52721,0.03159 0.55283,0.25272 0.3001,0.300106 0.23693,0.442259 0.0948,0.584417 0.0632,8.60829 -0.20534,0.584417 -0.47385,0.821341 -0.78975,0.616008 -1.02668,0.300103 -0.86872,0.03159 z"
         id="path1139" />
      <path
         style="fill:#000000;fill-opacity:1;stroke:#000000;stroke-width:0.264583px;stroke-linecap:butt;stroke-linejoin:miter;stroke-opacity:1"
         d="m 164.44901,61.830325 18.67418,-0.04468 v 9.247743 l -7.23736,0.1787 -0.0447,8.577617 6.79062,0.134027 0.0447,8.845666 -6.87996,0.08935 0.0893,9.828519 7.77346,0.178703 0.13403,9.24775 -19.43367,-0.13403 z"
         id="path1162" />
      <path
         style="fill:#000000;fill-opacity:1;stroke:#000000;stroke-width:0.264583px;stroke-linecap:butt;stroke-linejoin:miter;stroke-opacity:1"
         d="m 202.1132,108.22754 h 10.61426 l -0.37908,-18.954034 -0.3204,-0.950854 -0.55844,-0.893501 -0.51377,-0.826489 -0.62545,-0.714801 -0.7148,-0.580777 -0.80415,-0.379738 -0.84883,-0.357401 -0.96051,-0.156364 -0.87117,-0.134025 -0.3574,-0.134024 0.20104,-0.446752 h 0.93818 l 1.00519,0.02233 1.04986,-0.156364 0.87117,-0.580776 1.02752,-0.670126 0.64779,-0.960514 0.46909,-1.094539 0.29039,-0.871164 0.26805,-1.47428 0.067,-1.563627 -0.0223,-1.228566 v -1.317916 l -0.0223,-0.804151 -0.24571,-0.826489 0.0223,-0.245713 1.09454,0.145195 1.69765,0.03351 1.21163,-0.06447 1.31098,-0.04739 0.9635,-0.142155 1.32678,-0.221128 1.2794,-0.221131 1.18463,-0.300106 1.42155,-0.410671 1.65848,-0.568621 1.45314,-0.631801 1.62689,-0.694981 1.37417,-0.710777 1.70586,-0.931907 1.34258,-0.837137 1.12144,-0.773956 0.85294,-0.679186 0.20533,-0.315902 -0.83713,0.189543 -1.15304,0.331695 -1.10565,0.363286 -1.23202,0.331695 -1.5795,0.236926 -1.34258,0.173744 h -0.9477 l -2.16392,0.0158 -1.43735,-0.0158 -1.62688,-0.06318 -1.81643,-0.12636 -1.62689,-0.189539 -2.32187,-0.426466 -2.2113,-0.489646 -1.35838,-0.315902 -2.44823,-0.758161 -2.00596,-0.931907 -1.80064,-0.916112 -1.84801,-1.026676 -2.03756,-1.295194 -2.16392,-1.705861 -1.99018,-1.784839 -1.16883,-1.326783 -1.23201,-1.532117 -0.71078,-1.121447 -0.66339,-1.153038 -0.67919,-1.421554 -0.47385,-1.342575 -0.55282,-1.816431 -0.44226,-1.895403 -0.25272,-1.816428 -0.14216,-1.848017 -0.11057,-1.769044 0.0632,-1.342577 0.079,-1.232012 0.079,-1.94279 -0.41067,0.537033 -1.08986,1.705861 -0.60021,1.184627 -0.61601,1.53212 -0.77396,1.769041 -0.55282,1.926995 -0.41067,2.053354 -0.34749,2.021764 0.0632,1.737452 0.0632,1.468938 0.34749,1.895403 0.39487,1.800635 0.52124,1.579502 0.71078,1.421553 0.71077,1.247807 0.6318,1.105651 0.58442,0.963499 0.44226,0.631801 0.18954,0.157949 -0.0474,0.300106 -4.4542,0.0158 0.25272,46.326818 11.1197,0.25272 -0.0632,-21.038976 0.85293,0.03159 1.07406,0.06318 0.56862,0.379079 0.50544,0.600213 0.25272,0.758161 z"
         id="path1164" />
      <path
         style="fill:#ffffff;fill-opacity:1;stroke:#000000;stroke-width:0.264583px;stroke-linecap:butt;stroke-linejoin:miter;stroke-opacity:1"
         d="m 198.57511,79.7649 -0.0632,-10.26677 0.88452,0.06318 0.91611,0.252719 0.82135,0.410673 0.6318,0.758161 0.12636,0.66339 0.15795,6.823453 -0.47386,0.884523 -1.01088,0.568619 -1.2636,0.09477 z"
         id="path1189" />
      <path
         style="fill:#000000;fill-opacity:1;stroke:#000000;stroke-width:0.264583px;stroke-linecap:butt;stroke-linejoin:miter;stroke-opacity:1"
         d="m 63.215252,128.44088 9.113718,0.067 0.04467,-9.85086 3.909071,9.87319 6.477889,-0.067 3.506993,-9.80618 0.1787,9.91787 9.136057,-0.15636 0.156364,-15.68096 -13.715254,-0.0447 -2.434794,7.25971 -2.747518,-7.17036 -13.536551,-0.0447 z"
         id="path1191" />
      <path
         style="fill:#000000;fill-opacity:1;stroke:#000000;stroke-width:0.264583px;stroke-linecap:butt;stroke-linejoin:miter;stroke-opacity:1"
         d="m 99.950946,128.50836 h 18.132694 l -0.0632,-3.22219 -7.48684,0.0632 -0.0948,-3.19059 6.41278,-0.12636 0.0316,-3.06424 h -6.38119 l -0.0316,-2.81151 6.79186,-0.0632 v -3.31696 l -17.24817,0.0948 z"
         id="path1218" />
      <path
         style="fill:#000000;fill-opacity:1;stroke:#000000;stroke-width:0.264583px;stroke-linecap:butt;stroke-linejoin:miter;stroke-opacity:1"
         d="m 108.038,109.57012 8.60829,0.0632 -7.58161,2.76413 -5.55985,0.0316 z"
         id="path1333" />
      <path
         style="fill:#000000;fill-opacity:1;stroke:#000000;stroke-width:0.264583px;stroke-linecap:butt;stroke-linejoin:miter;stroke-opacity:1"
         d="m 129.17802,128.3292 2.09973,-5.20465 3.17193,5.24932 9.73917,0.1787 -5.78542,-8.93502 3.88673,-6.76827 -8.46593,-0.20104 -2.47947,4.64621 -2.30076,-4.5792 -10.2306,0.0223 3.84206,7.01399 -3.46232,8.75632 z"
         id="path1335" />
      <path
         style="fill:#000000;fill-opacity:1;stroke:#000000;stroke-width:0.264583px;stroke-linecap:butt;stroke-linejoin:miter;stroke-opacity:1"
         d="m 145.75653,128.47677 h 10.39313 l -0.0632,-15.79503 -10.4879,0.12636 z"
         id="path1337" />
      <path
         style="fill:#000000;fill-opacity:1;stroke:#000000;stroke-width:0.264583px;stroke-linecap:butt;stroke-linejoin:miter;stroke-opacity:1"
         d="m 174.5009,119.75158 10.38696,-0.15636 -0.007,-2.3961 -0.18164,-1.14514 -0.47385,-0.76606 -0.45016,-0.59231 -0.6397,-0.47385 -0.90821,-0.46596 -1.11355,-0.45805 -1.09776,-0.3159 -1.06616,-0.26062 -1.35048,-0.17375 -1.62413,-0.0779 -2.94855,-0.067 -2.76986,0.0893 -2.59116,0.13402 -1.65297,0.15636 -1.41844,0.30156 -1.2509,0.36857 -1.26207,0.64779 -1.02753,0.62545 -0.44984,0.48332 -0.26851,0.47385 -0.17515,0.47243 0.0893,8.68931 0.0621,0.8602 0.48175,0.52914 0.6318,0.53703 0.72657,0.3159 0.91612,0.39487 0.83713,0.34749 1.21622,0.31591 1.24781,0.17374 1.23201,0.17375 1.72166,0.14215 1.94279,-0.0158 2.17971,0.0316 1.84802,-0.0474 2.13233,-0.17375 1.48473,-0.18954 1.72166,-0.45805 0.83714,-0.23693 1.05826,-0.47385 1.15304,-0.56862 0.61601,-0.6318 0.33169,-0.82134 0.11057,-1.04247 -0.0474,-1.70587 -10.42472,0.079 0.0474,1.12145 0.0158,1.29519 -0.11056,0.81344 -0.3396,0.37908 -0.45015,0.18954 -0.66339,0.008 -1.05827,-0.0474 -0.66339,-0.0553 -0.27642,-0.25272 -0.18164,-0.43436 0.0279,-9.21917 0.22338,-0.41324 0.25688,-0.35741 0.59194,-0.0558 1.40727,0.0558 0.83766,0.0894 0.22337,0.55844 0.0447,3.66336 z"
         id="path1368" />
      <path
         style="fill:#000000;fill-opacity:1;stroke:#000000;stroke-width:0.264583px;stroke-linecap:butt;stroke-linejoin:miter;stroke-opacity:1"
         d="m 197.77662,128.77595 6.14283,-0.0893 2.54648,-0.33507 2.25609,-0.5361 1.92103,-0.84882 1.56363,-1.38493 0.26805,-0.60312 -0.067,-8.62229 -0.58077,-1.2509 -1.31792,-0.84883 -1.94336,-0.73714 -1.63064,-0.51376 -2.03272,-0.40208 -5.36101,-0.067 -3.12726,0.11169 -1.83168,0.1787 -2.23375,0.64779 -1.36259,0.67012 -1.6083,0.96052 -0.73714,1.36259 -0.15637,0.49142 0.0223,7.88516 0.0893,0.69246 0.53611,0.7148 0.60311,0.58078 1.2509,0.62545 1.92103,0.73714 1.31791,0.26805 1.98805,0.20104 z"
         id="path1402" />
      <path
         style="fill:#000000;fill-opacity:1;stroke:#000000;stroke-width:0.264583px;stroke-linecap:butt;stroke-linejoin:miter;stroke-opacity:1"
         d="m 213.50225,57.675541 -1.49661,-0.245713 -1.40727,-0.603113 -1.0722,-0.55844 -1.31791,-0.960514 -1.07221,-0.826489 -0.67012,-0.938176 -1.04987,-1.407266 -0.58077,-1.005189 -0.60312,-0.915839 -0.55844,-0.55844 -0.62545,-0.201039 -0.55843,0.223377 -0.51377,0.670127 -0.15636,0.848825 0.31272,1.049864 0.96052,1.518955 0.58077,0.915839 0.7148,0.826489 0.84883,0.781815 1.11688,0.98285 1.0722,0.64779 0.84883,0.446752 1.11688,0.446749 0.78181,0.223377 1.65298,0.379738 1.6083,0.06701 0.93818,-0.245713 0.40207,-0.625451 -0.13402,-0.625452 -0.49143,-0.268049 z"
         id="path1436" />
      <path
         style="fill:#000000;fill-opacity:1;stroke:#000000;stroke-width:0.264583px;stroke-linecap:butt;stroke-linejoin:miter;stroke-opacity:1"
         d="m 222.70532,53.096345 -1.47428,-0.312727 -1.45194,-0.402074 -2.03271,-0.64779 -2.0774,-0.982851 -1.29557,-0.915839 -1.56363,-1.228566 -1.11688,-1.273241 -0.73714,-0.938176 -0.7148,-1.139216 -0.75947,-1.005189 -0.51377,-0.781812 -0.29039,-0.960517 -0.3574,-0.826487 -0.62545,-0.670129 -1.20622,-0.290385 -1.02753,0.06701 -0.64779,0.670126 -0.29039,1.027528 0.37974,1.63064 0.7148,1.384927 1.22856,1.854017 1.49662,1.742329 1.58597,1.496616 1.74232,1.496615 1.45195,0.670127 1.49661,0.536101 1.74233,0.625451 1.56363,0.513763 1.63064,0.134024 1.94336,0.04467 1.31792,-0.156361 0.44675,-0.46909 -0.1787,-0.536101 z"
         id="path1584" />
      <path
         style="fill:#000000;fill-opacity:1;stroke:#000000;stroke-width:0.264583px;stroke-linecap:butt;stroke-linejoin:miter;stroke-opacity:1"
         d="m 231.39718,47.511448 -1.04247,-0.505441 -1.80063,-0.284311 -2.30608,-0.694981 -2.62197,-1.105651 -1.57951,-0.852932 -1.83222,-1.168832 -1.64268,-1.389962 -0.97929,-1.010883 -1.13725,-1.232011 -1.20042,-1.579504 -0.82134,-1.484733 -0.88452,-1.453142 -0.50544,-1.168831 -0.47385,-0.852932 -0.6634,-0.726573 -0.97929,-0.34749 -1.67427,-0.12636 -0.82134,0.53703 -0.44226,0.758161 -0.0948,1.137243 0.25272,1.168834 0.85293,2.116531 0.9477,1.484734 1.13724,1.611092 1.13725,1.579505 1.42155,1.389962 2.17971,1.642684 2.21131,1.579501 1.61109,0.916112 1.83222,0.726573 1.95859,0.631801 1.64268,0.442259 1.70586,0.379082 1.73746,0.252719 h 1.61109 l 1.20042,-0.347491 0.69498,-0.53703 V 48.3012 Z"
         id="path1586" />
      <path
         style="fill:#ffffff;fill-opacity:1;stroke:#000000;stroke-width:0.264583px;stroke-linecap:butt;stroke-linejoin:miter;stroke-opacity:1"
         d="M 78.561146,48.539484 H 81.331 l -1.317913,-9.739169 z"
         id="path1113" />
      <path
         style="fill:#ffffff;fill-opacity:1;stroke:#000000;stroke-width:0.264583px;stroke-linecap:butt;stroke-linejoin:miter;stroke-opacity:1"
         d="m 198.82649,125.537 0.31272,0.58078 1.0722,0.46909 h 0.31273 l 1.2509,-0.33507 0.1787,-0.42441 0.13403,-9.82852 -0.40208,-0.44675 -0.60311,-0.22338 -1.63064,0.0223 -0.3574,0.24572 -0.29039,0.46909 z"
         id="path1400" />
    </g>
  </g>
</svg>
