<?xml version="1.0" encoding="UTF-8" standalone="no"?>
<!-- Created with Inkscape (http://www.inkscape.org/) -->

<svg
   width="1100"
   height="600"
   viewBox="0 0 291.04166 158.75"
   version="1.1"
   id="svg14259"
   inkscape:version="1.1.2 (b8e25be833, 2022-02-05)"
   sodipodi:docname="missing-woman.svg"
   xmlns:inkscape="http://www.inkscape.org/namespaces/inkscape"
   xmlns:sodipodi="http://sodipodi.sourceforge.net/DTD/sodipodi-0.dtd"
   xmlns="http://www.w3.org/2000/svg"
   xmlns:svg="http://www.w3.org/2000/svg">
  <sodipodi:namedview
     id="namedview14261"
     pagecolor="#ffffff"
     bordercolor="#666666"
     borderopacity="1.0"
     inkscape:pageshadow="2"
     inkscape:pageopacity="0.0"
     inkscape:pagecheckerboard="0"
     inkscape:document-units="mm"
     showgrid="false"
     units="px"
     inkscape:zoom="0.74029882"
     inkscape:cx="516.68325"
     inkscape:cy="237.74183"
     inkscape:window-width="1920"
     inkscape:window-height="1017"
     inkscape:window-x="-8"
     inkscape:window-y="-8"
     inkscape:window-maximized="1"
     inkscape:current-layer="layer1" />
  <defs
     id="defs14256">
    <clipPath
       clipPathUnits="userSpaceOnUse"
       id="clipPath15225">
      <rect
         style="fill:#00ff00;fill-opacity:0.191142;stroke:none;stroke-width:0.264583"
         id="rect15227"
         width="124.73285"
         height="124.73285"
         x="62.545128"
         y="9.2924185" />
    </clipPath>
  </defs>
  <g
     inkscape:label="Layer 1"
     inkscape:groupmode="layer"
     id="layer1">
    <g
       id="g18904"
       transform="matrix(1.0987522,0,0,1.0987522,-8.0212098,-7.893267)">
      <path
         style="fill:#bb0000;fill-opacity:1;stroke:#bb0000;stroke-width:0.565;stroke-linecap:butt;stroke-linejoin:miter;stroke-miterlimit:4;stroke-dasharray:none;stroke-opacity:1"
         d="m 128.48956,88.788962 -2.1444,-2.233755 -2.50181,-3.037906 -1.51895,-2.323105 -1.0722,-2.501805 -1.6083,-3.663357 -1.07221,-2.323105 -0.80415,-2.948557 0.80415,-1.340252 0.15081,-0.414441 -0.88452,-0.916111 -0.82134,-1.484731 -0.82134,-2.337665 -0.53703,-1.737453 -0.0948,-1.642684 -0.15796,-1.705864 0.37909,-1.42155 0.3159,-1.832224 0.78975,-0.947703 0.88452,-0.568622 0.9477,0.03159 0.22113,-0.852932 0.18954,-1.042472 0.28431,-1.484733 0.44226,-1.642684 0.44227,-1.168831 0.47385,-1.200423 0.60021,-1.516322 0.50544,-1.042471 1.45314,-1.958586 0.9477,-0.884521 1.10565,-0.979292 0.85294,-0.789752 1.35837,-0.663389 1.2636,-0.473853 1.61109,-0.12636 1.51632,0.03159 1.57951,0.157951 1.5795,0.568619 2.43243,1.263602 2.08495,1.200423 1.70586,0.947703 2.77993,1.516322 1.83222,1.010883 3.44332,1.674272 2.46402,1.263603 2.68515,1.358373 3.09583,1.484733 2.05335,1.232011 2.02177,0.916112 1.29519,0.789752 1.76905,0.884521 1.73745,1.010883 1.51632,0.852932 1.10565,0.789749 0.75816,-0.88452 0.69499,-1.137243 1.01088,-1.200422 1.32678,-0.442262 0.9477,0.315902 1.32678,1.263602 0.37909,1.832224 -0.0632,3.917167 0.0632,1.453142 -0.50545,2.084945 -0.82134,2.021764 -0.69498,1.516321 -0.82134,1.010883 -1.07406,0.694981 0.88452,1.516322 -1.45315,2.779927 -1.20042,2.779924 -0.9477,2.211306 -0.9477,2.527204 -1.51632,2.464025 -1.07407,2.653565 -1.32678,1.516321 -1.5795,1.579505 0.88452,1.832223 0.6318,1.895404 1.01088,1.326782 1.45315,0.821341 1.13724,0.631801 0.9477,0.379082 2.21131,0.442259 2.46402,0.252722 1.95858,0.379079 2.71675,0.315902 3.159,0.315899 h 2.02177 l 1.2636,0.252722 -1.45314,-1.389965 -1.01088,-1.389962 -0.82135,-1.579501 -0.50544,-1.326783 -0.56862,-2.084945 -0.44226,-1.453142 -0.26673,-2.375421 0.14037,-3.500329 0.3159,-11.941043 0.44226,-7.265715 0.69498,-4.169886 0.56863,-4.73851 -0.18954,-4.801688 -0.25273,-5.180771 -1.2636,-6.06529 -1.38996,-5.623031 -1.2636,-3.538088 -1.83223,-4.169886 -2.77992,-4.612149 -2.96947,-2.906285 -3.60126,-3.285366 -4.04353,-2.464025 -3.85399,-1.200422 -3.47491,-0.9477019 -3.7908,-0.1895404 -5.62303,-0.06318 -5.05441,-0.1263602 -3.34855,0.5054405 -3.98035,0.884522 -2.5272,1.074062 -3.41173,1.453143 -3.34854,2.527204 -3.72763,3.664447 -2.31015,3.465195 -2.41246,4.288809 -2.09973,4.601533 -1.2509,4.601535 -1.38493,5.182309 -0.44675,4.199459 -0.0447,5.092962 v 5.62906 l 0.49143,3.261281 0.26805,3.439983 0.49142,2.055053 0.23256,7.57002 0.18954,5.559851 -0.50544,6.191652 -0.44226,4.485788 -0.44226,2.969466 -0.9477,3.348546 -1.20042,1.453142 -1.89541,1.263602 -0.56862,0.12636 2.52721,-0.06318 3.03264,-0.12636 2.84311,-0.126359 2.59038,-0.442262 2.65357,-0.442259 1.95858,-0.442262 1.45314,-0.505441 1.20043,-0.758161 1.64268,-1.010883 1.38996,-1.137243 0.69498,-1.769041 z"
         id="path15352" />
      <path
         style="fill:#bb0000;fill-opacity:0.997669;stroke:#bb0000;stroke-width:0.765;stroke-linecap:butt;stroke-linejoin:miter;stroke-miterlimit:4;stroke-dasharray:none;stroke-opacity:1"
         d="m 143.20479,149.18914 9.41384,0.0632 9.03476,-0.50544 6.69709,-0.50545 5.49667,-0.25272 6.88663,-1.51632 5.7494,-0.88452 5.49666,-1.51632 4.23307,-1.45315 4.92805,-2.02176 2.65357,-1.83222 2.71674,-2.59039 2.08495,-3.34854 0.69498,-2.52721 0.12636,-3.72763 -1.07407,-4.23306 -1.83222,-3.98035 -1.8954,-4.42261 -2.02177,-4.10671 -2.02176,-2.5272 -2.27448,-2.59039 -2.88502,-2.42949 -2.1444,-1.6083 -2.27843,-1.206233 -2.09973,-0.80415 -2.72518,-0.26805 -0.88235,-0.08076 -1.09452,-0.231963 -0.66454,-0.134024 -0.51935,-0.09494 -0.81532,-0.01675 -1.39206,-0.03566 -0.96349,-0.110567 -1.2636,-0.134257 -0.78976,-0.12636 -0.82923,-0.03159 -1.54002,-0.189543 -0.83714,-0.165846 -0.98719,-0.118464 -1.08985,-0.157949 -0.6397,-0.05528 -0.80555,-0.134258 -0.52913,-0.08687 -0.66339,-0.134258 -0.71868,-0.142155 -0.19743,0.04738 -0.067,0.615164 -0.31272,0.781815 -0.62546,1.116877 -0.75947,0.982851 -1.69766,1.38494 -1.36258,1.18388 -1.92103,1.29558 -1.58597,1.04987 -2.41246,1.0722 -1.85401,0.84883 -2.39012,0.82648 -1.98804,0.73714 -1.94337,0.5361 -1.98804,0.1787 -2.12206,0.067 -1.49662,-0.1787 h -1.65298 l -1.80934,-0.26805 -1.6083,-0.3574 -2.47947,-0.80416 -2.34544,-0.67012 -1.76467,-0.62545 -1.85402,-0.91584 -1.47427,-1.00519 -1.56363,-1.00519 -1.6083,-1.00519 -1.09454,-0.82649 -1.36259,-1.22857 -0.84883,-0.826492 -0.7148,-0.915839 -0.75948,-0.938175 -0.13961,-0.469088 -0.51376,0.189867 -0.80451,0.278281 -0.61601,0.25272 -0.53703,0.157951 -1.12144,0.236926 -0.91611,0.12636 -1.38997,0.12636 -1.31098,0.07897 -1.43735,0.0158 -1.61109,0.01579 -1.67428,0.07898 -1.75325,0.03159 -1.07406,0.04739 -0.78975,0.09477 -1.2636,0.205335 -1.31099,0.09477 -1.99017,0.53703 -1.958587,0.537034 -1.547913,0.72657 -1.07406,0.6318 -2.906287,2.27449 -1.579501,1.5795 -1.6842,2.29206 -1.831679,3.2166 -2.055056,2.99323 -1.742326,3.35063 -1.429604,4.02076 -0.893501,2.68051 -0.357402,2.05505 -0.536101,3.61868 0.357402,1.92103 0.536101,2.14441 1.116878,2.01038 1.831678,2.01038 3.574005,2.41245 3.305958,1.87635 4.378159,1.69766 3.931406,1.0722 3.88673,0.98285 2.54648,0.44675 6.25452,0.98286 5.13763,0.75947 7.10334,0.49143 6.74594,0.3574 3.3953,0.40207 z"
         id="path15467" />
      <path
         style="fill:none;fill-opacity:1;stroke:#bb0000;stroke-width:2.565;stroke-linecap:butt;stroke-linejoin:miter;stroke-miterlimit:4;stroke-dasharray:none;stroke-opacity:1"
         d="m 128.98927,89.35756 2.08494,1.863815 1.80063,1.389962 1.70587,0.9477 1.54791,0.916112 1.5795,0.789752 2.27449,0.47385 2.14812,0.473851 1.92699,0.221131 2.5588,0.22113 2.14812,-0.22113 1.73746,-0.347491 1.8954,-0.631801 2.49562,-0.947701 1.38996,-1.010883 1.48473,-0.726569 1.42155,-0.947703 1.20043,-0.947701 0.86872,-1.026678 0.93191,-0.679186 1.2636,-1.216218 1.61899,-1.74535 0.51334,-0.852932 0.40795,-1.032068 0.27922,-0.770644 0.64779,-1.116878 0.44675,-0.73714 0.45792,-0.84324 0.30714,-0.709218 0.31272,-0.837658 1.51896,-3.579593 1.4973,-3.333382 0.6318,-1.168834 0.32803,-0.691261 -0.86,-1.530122 0.88792,-0.625451 0.51935,-0.474673 0.49422,-0.628243 0.39928,-0.840452 0.77902,-1.814925 0.58915,-1.842847 0.27922,-1.708822 -0.0447,-2.122066 0.0391,-1.881939 -0.0391,-1.111293 -0.25688,-1.150384 -0.50818,-0.759476 -0.61428,-0.524933 -0.43559,-0.284803 -0.55844,-0.13961 -0.48025,0.0056 -0.56961,0.206621 -0.51935,0.452337 -0.50818,0.558437 -0.78457,0.96324 -0.38698,0.734467 -0.42646,0.513339 -0.22903,0.205335 -34.62225,-18.437986 -0.92447,-0.342305 -0.60811,-0.114512 -1.01877,-0.07108 -1.48474,-0.03554 -1.33468,0.09477 -0.6081,0.102669 -0.77001,0.31985 -0.69103,0.288258 -0.30801,0.165849 -0.462,0.256669 -0.71078,0.627851 -0.86083,0.7937 -0.90426,0.793702 -0.90032,1.042472 -1.01878,1.437346 -0.616,1.326782 -0.54493,1.334681 -0.62391,1.587402 -0.37908,1.176729 -0.33959,1.2715 -0.21323,1.14514 -0.17375,1.279396 -0.22903,0.813445 -0.6318,-0.02371 -0.42646,0.01579 -0.43437,0.244822 -0.41856,0.315902 -0.48965,0.576519 -0.19991,0.239689 -0.0977,0.393699 -0.20104,0.991228 -0.15636,0.871164 -0.22337,0.837658 0.0391,1.585965 0.0782,0.982853 0.24571,1.217395 0.3574,1.306748 0.48026,1.317914 0.22337,0.748308 0.30156,0.681296 0.46908,0.725969 0.37975,0.614284 0.51376,0.502594 0.36857,0.301556 -0.36857,0.781815 -0.40208,0.658958 -0.1787,0.357399 0.1787,0.938178 0.40208,1.574798 0.90467,2.144402 1.20623,2.725182 2.07739,4.400497 1.54129,2.256092 2.56881,3.171931 1.54346,1.552765 z"
         id="path17615" />
    </g>
  </g>
</svg>
