<?xml version="1.0" encoding="UTF-8" standalone="no"?>
<!-- Created with Inkscape (http://www.inkscape.org/) -->

<svg
   width="256"
   height="256"
   viewBox="0 0 67.733332 67.733335"
   version="1.1"
   id="svg5"
   inkscape:version="1.1.2 (b8e25be833, 2022-02-05)"
   sodipodi:docname="odisea-alert-mexico-color.svg"
   xmlns:inkscape="http://www.inkscape.org/namespaces/inkscape"
   xmlns:sodipodi="http://sodipodi.sourceforge.net/DTD/sodipodi-0.dtd"
   xmlns="http://www.w3.org/2000/svg"
   xmlns:svg="http://www.w3.org/2000/svg">
  <sodipodi:namedview
     id="namedview7"
     pagecolor="#ffffff"
     bordercolor="#666666"
     borderopacity="1.0"
     inkscape:pageshadow="2"
     inkscape:pageopacity="0.0"
     inkscape:pagecheckerboard="0"
     inkscape:document-units="mm"
     showgrid="false"
     units="px"
     inkscape:zoom="3.2460937"
     inkscape:cx="100.89049"
     inkscape:cy="156.80385"
     inkscape:window-width="1920"
     inkscape:window-height="1017"
     inkscape:window-x="-8"
     inkscape:window-y="-8"
     inkscape:window-maximized="1"
     inkscape:current-layer="layer1" />
  <defs
     id="defs2">
    <rect
       x="-78.419929"
       y="188.20783"
       width="681.38204"
       height="135.92788"
       id="rect52439" />
    <rect
       x="-772.00063"
       y="339.81969"
       width="663.9554"
       height="125.47189"
       id="rect34071" />
    <inkscape:path-effect
       effect="powerclip"
       id="path-effect31163"
       is_visible="true"
       lpeversion="1"
       inverse="true"
       flatten="false"
       hide_clip="false"
       message="Use fill-rule evenodd on &lt;b&gt;fill and stroke&lt;/b&gt; dialog if no flatten result after convert clip to paths." />
    <inkscape:path-effect
       effect="powerclip"
       id="path-effect31155"
       is_visible="true"
       lpeversion="1"
       inverse="true"
       flatten="false"
       hide_clip="false"
       message="Use fill-rule evenodd on &lt;b&gt;fill and stroke&lt;/b&gt; dialog if no flatten result after convert clip to paths." />
    <inkscape:path-effect
       effect="powerclip"
       id="path-effect31147"
       is_visible="true"
       lpeversion="1"
       inverse="true"
       flatten="false"
       hide_clip="false"
       message="Use fill-rule evenodd on &lt;b&gt;fill and stroke&lt;/b&gt; dialog if no flatten result after convert clip to paths." />
    <inkscape:path-effect
       effect="powerclip"
       id="path-effect31139"
       is_visible="true"
       lpeversion="1"
       inverse="true"
       flatten="false"
       hide_clip="false"
       message="Use fill-rule evenodd on &lt;b&gt;fill and stroke&lt;/b&gt; dialog if no flatten result after convert clip to paths." />
    <clipPath
       clipPathUnits="userSpaceOnUse"
       id="clipPath31135">
      <path
         style="display:none;fill:#97162e;fill-opacity:1;stroke:#000000;stroke-width:0.264583px;stroke-linecap:butt;stroke-linejoin:miter;stroke-opacity:1"
         d="m -55.547855,26.082631 2.321917,-0.0028 2.593575,-0.34581 2.334218,-0.489898 2.535941,-1.008612 1.210337,-0.720438 1.815502,-1.037431 1.757868,-1.354423 1.959591,-1.786685 1.527326,-1.930773 0.806892,-1.38324 0.778073,-1.642598 0.893342,-1.757868 0.778074,-2.132496 0.374626,-1.7002332 0.09579,-1.9018951 0.07711,-2.9394462 -0.201721,-3.2563785 -0.576353,-2.2477657 -1.152699,-3.0546559 -1.06026,-1.8283481 -1.874689,-2.4452469 -2.28223,-2.2007214 -2.649016,-1.996952 -2.832412,-1.58941 -2.526755,-0.89659 -1.793182,-0.34641 -2.139588,-0.285279 -2.159971,0.02038 -1.976572,0.06113 -3.056557,0.448295 -2.200725,0.692819 -1.650542,0.794706 -1.874689,0.815082 -1.569032,1.059607 -1.609789,1.365263 -1.548656,1.4875247 -1.365261,1.5894103 -1.324507,1.9561974 -1.222626,2.3637386 -0.713195,2.3433614 -0.55018,2.03770552 -0.305657,2.50637798 -0.142637,2.2210991 0.101883,2.2414759 0.448294,2.180345 0.590934,2.0580831 1.059611,2.180344 1.01885,2.037706 1.141113,1.589411 1.569035,1.874689 1.73205,1.569032 1.874689,1.67092 2.119215,1.304131 2.506379,1.263378 2.282227,0.55018 2.424869,0.06113 z"
         id="path31137" />
      <path
         id="lpe_path-effect31139"
         style="fill:#97162e;fill-opacity:1;stroke:#000000;stroke-width:0.264583px;stroke-linecap:butt;stroke-linejoin:miter;stroke-opacity:1"
         class="powerclip"
         d="m -91.26612,-31.788639 h 73.229749 V 73.436183 H -91.26612 Z m 35.718265,57.87127 2.321917,-0.0028 2.593575,-0.34581 2.334218,-0.489898 2.535941,-1.008612 1.210337,-0.720438 1.815502,-1.037431 1.757868,-1.354423 1.959591,-1.786685 1.527326,-1.930773 0.806892,-1.38324 0.778073,-1.642598 0.893342,-1.757868 0.778074,-2.132496 0.374626,-1.7002332 0.09579,-1.9018951 0.07711,-2.9394462 -0.201721,-3.2563785 -0.576353,-2.2477657 -1.152699,-3.0546559 -1.06026,-1.8283481 -1.874689,-2.4452469 -2.28223,-2.2007214 -2.649016,-1.996952 -2.832412,-1.58941 -2.526755,-0.89659 -1.793182,-0.34641 -2.139588,-0.285279 -2.159971,0.02038 -1.976572,0.06113 -3.056557,0.448295 -2.200725,0.692819 -1.650542,0.794706 -1.874689,0.815082 -1.569032,1.059607 -1.609789,1.365263 -1.548656,1.4875247 -1.365261,1.5894103 -1.324507,1.9561974 -1.222626,2.3637386 -0.713195,2.3433614 -0.55018,2.03770552 -0.305657,2.50637798 -0.142637,2.2210991 0.101883,2.2414759 0.448294,2.180345 0.590934,2.0580831 1.059611,2.180344 1.01885,2.037706 1.141113,1.589411 1.569035,1.874689 1.73205,1.569032 1.874689,1.67092 2.119215,1.304131 2.506379,1.263378 2.282227,0.55018 2.424869,0.06113 z" />
    </clipPath>
    <clipPath
       clipPathUnits="userSpaceOnUse"
       id="clipPath31143">
      <path
         style="display:none;fill:#97162e;fill-opacity:1;stroke:#000000;stroke-width:0.264583px;stroke-linecap:butt;stroke-linejoin:miter;stroke-opacity:1"
         d="M 4.2791817,3.3418373 V 21.640433 l -0.3260329,1.018853 -1.100361,1.141115 -1.1411151,1.018853 -1.05960692,0.733574 -1.50790211,0.652065 -2.11921377,0.122263 -1.8746891,-0.122263 -1.4263939,-0.733574 -1.3448858,-1.711672 -0.6928197,-2.28223 -0.3667871,-1.426394 -0.1630164,-1.752427 -0.3667871,-2.689772 0.040754,-2.404492 -0.040754,-1.874689 0.3260328,-1.5079022 0.4482952,-2.2007219 0.6520659,-2.0377057 0.8150823,-1.5486563 1.3448855,-1.0188527 1.4263939,-1.0596069 2.2822304,-0.3260329 2.24147609,0.081508 1.83393501,0.4075411 1.1818694,0.6113116 z"
         id="path31145" />
      <path
         id="lpe_path-effect31147"
         style="fill:#97162e;fill-opacity:1;stroke:#000000;stroke-width:0.264583px;stroke-linecap:butt;stroke-linejoin:miter;stroke-opacity:1"
         class="powerclip"
         d="M -26.732119,-31.622715 H 23.075558 V 41.607542 H -26.732119 Z M 4.2791817,3.3418373 3.3418373,2.7305251 2.1599679,2.1192135 0.32603289,1.7116724 -1.9154432,1.6301644 -4.1976736,1.9561973 -5.6240675,3.0158042 -6.968953,4.0346569 l -0.8150823,1.5486563 -0.6520659,2.0377057 -0.4482952,2.2007219 -0.3260328,1.5079022 0.040754,1.874689 -0.040754,2.404492 0.3667871,2.689772 0.1630164,1.752427 0.3667871,1.426394 0.6928197,2.28223 1.3448858,1.711672 1.4263939,0.733574 1.8746891,0.122263 2.11921377,-0.122263 1.50790211,-0.652065 1.05960692,-0.733574 1.1411151,-1.018853 1.100361,-1.141115 0.3260329,-1.018853 z" />
    </clipPath>
    <clipPath
       clipPathUnits="userSpaceOnUse"
       id="clipPath31151">
      <path
         style="display:none;fill:#97162e;fill-opacity:1;stroke:#000000;stroke-width:0.264583px;stroke-linecap:butt;stroke-linejoin:miter;stroke-opacity:1"
         d="M 88.110388,10.107019 101.68151,10.066265 101.6,7.0912154 101.19246,5.5425591 100.82567,4.4829524 100.21436,3.2603289 99.480783,2.7712797 97.483835,1.7524268 95.405374,1.4263939 h -1.5079 l -1.426398,0.5298034 -1.222621,0.6520658 -1.10036,1.5079021 -0.896591,1.7116727 -0.48905,1.4671477 -0.366787,1.4671484 z"
         id="path31153" />
      <path
         id="lpe_path-effect31155"
         style="fill:#97162e;fill-opacity:1;stroke:#000000;stroke-width:0.264583px;stroke-linecap:butt;stroke-linejoin:miter;stroke-opacity:1"
         class="powerclip"
         d="M 70.466474,-13.201792 H 118.88022 V 41.485034 H 70.466474 Z M 88.110388,10.107019 101.68151,10.066265 101.6,7.0912154 101.19246,5.5425591 100.82567,4.4829524 100.21436,3.2603289 99.480783,2.7712797 97.483835,1.7524268 95.405374,1.4263939 h -1.5079 l -1.426398,0.5298034 -1.222621,0.6520658 -1.10036,1.5079021 -0.896591,1.7116727 -0.48905,1.4671477 -0.366787,1.4671484 z" />
    </clipPath>
    <clipPath
       clipPathUnits="userSpaceOnUse"
       id="clipPath31159">
      <path
         style="display:none;fill:#97162e;fill-opacity:1;stroke:#000000;stroke-width:0.264583px;stroke-linecap:butt;stroke-linejoin:miter;stroke-opacity:1"
         d="m 139.62083,17.319322 0.14409,3.112291 -0.25936,1.412058 -0.54754,1.037431 -1.06624,1.123882 -1.09507,0.893343 -1.3256,0.778073 -1.09507,0.489898 -1.72905,0.288174 -2.21895,0.08645 -1.6426,-0.605169 -0.95097,-1.700232 0.0288,-1.383241 0.34581,-1.757868 0.86453,-1.03743 1.49851,-1.1527 2.21895,-0.893343 2.24776,-0.57635 2.3054,-0.432263 z"
         id="path31161" />
      <path
         id="lpe_path-effect31163"
         style="fill:#97162e;fill-opacity:1;stroke:#000000;stroke-width:0.264583px;stroke-linecap:butt;stroke-linejoin:miter;stroke-opacity:1"
         class="powerclip"
         d="m 110.65648,-13.374313 h 47.30382 v 54.874352 h -47.30382 z m 28.96435,30.693635 -2.2766,-0.316996 -2.3054,0.432263 -2.24776,0.57635 -2.21895,0.893343 -1.49851,1.1527 -0.86453,1.03743 -0.34581,1.757868 -0.0288,1.383241 0.95097,1.700232 1.6426,0.605169 2.21895,-0.08645 1.72905,-0.288174 1.09507,-0.489898 1.3256,-0.778073 1.09507,-0.893343 1.06624,-1.123882 0.54754,-1.037431 0.25936,-1.412058 z" />
    </clipPath>
  </defs>
  <g
     inkscape:label="Layer 1"
     inkscape:groupmode="layer"
     id="layer1">
    <g
       id="g145650"
       transform="matrix(0.27589925,0,0,0.27589925,24.666229,28.121404)">
      <path
         style="fill:#5f161f;fill-opacity:1;stroke:#5f2015;stroke-width:0.264583px;stroke-linecap:butt;stroke-linejoin:miter;stroke-opacity:1"
         d="m -59.827035,68.303891 10.351545,-0.08151 -0.08151,-31.951223 1.73205,-0.468672 2.486001,-0.794706 2.832412,-0.998476 2.13959,-1.100363 2.465623,-1.304131 2.037707,-1.5079 2.119212,-1.58941 1.996953,-1.895068 1.854311,-2.058082 1.467149,-2.058083 1.304132,-2.139591 1.365262,-2.669394 0.89659,-2.302607 0.672443,-2.058083 0.529803,-2.547132 0.34641,-2.1192133 0.122263,-2.4452469 0.02038,-2.3229842 -0.224148,-2.7916566 -0.34641,-2.7101484 -0.672442,-2.6693942 -1.018853,-2.6693944 -0.978099,-2.5267547 -1.467149,-2.2618533 -1.365263,-2.037705 -1.569032,-2.180345 -1.895068,-1.895067 -1.670917,-1.569033 -2.200722,-1.772804 -2.322984,-1.426394 -2.669394,-1.406016 -2.608265,-1.018853 -2.302606,-0.631689 -1.833935,-0.326033 -2.567509,-0.427918 -2.812034,-0.163018 -3.797387,-0.06414 -2.622394,0.345811 -3.083473,0.518715 -2.76648,1.066248 -3.256381,1.325605 -2.622391,1.584963 -3.083475,2.247766 -2.391852,2.276583 -2.247765,2.391853 -1.901957,2.737663 -1.901955,3.7174592 -1.114221,2.4526756 -0.815084,2.7305253 -0.448294,2.2210991 -0.346411,2.4656237 -0.04075,3.1584436 0.06113,2.608263 0.08151,2.2007221 0.244525,1.9561974 0.63169,2.465624 0.794705,2.384115 0.713195,1.956198 1.222624,2.119213 1.263378,1.915443 1.161491,1.711673 1.32451,1.73205 1.03923,1.18187 1.406017,1.365263 1.691296,1.487525 1.711672,1.100359 1.670917,1.039231 2.058083,1.059606 2.241476,1.202248 1.772804,0.774327 2.017328,0.713197 1.487528,0.264901 h 1.569032 l -0.101886,32.481028 z"
         id="path930"
         clip-path="url(#clipPath31135)"
         inkscape:path-effect="#path-effect31139"
         inkscape:original-d="m -59.827035,68.303891 10.351545,-0.08151 -0.08151,-31.951223 1.73205,-0.468672 2.486001,-0.794706 2.832412,-0.998476 2.13959,-1.100363 2.465623,-1.304131 2.037707,-1.5079 2.119212,-1.58941 1.996953,-1.895068 1.854311,-2.058082 1.467149,-2.058083 1.304132,-2.139591 1.365262,-2.669394 0.89659,-2.302607 0.672443,-2.058083 0.529803,-2.547132 0.34641,-2.1192133 0.122263,-2.4452469 0.02038,-2.3229842 -0.224148,-2.7916566 -0.34641,-2.7101484 -0.672442,-2.6693942 -1.018853,-2.6693944 -0.978099,-2.5267547 -1.467149,-2.2618533 -1.365263,-2.037705 -1.569032,-2.180345 -1.895068,-1.895067 -1.670917,-1.569033 -2.200722,-1.772804 -2.322984,-1.426394 -2.669394,-1.406016 -2.608265,-1.018853 -2.302606,-0.631689 -1.833935,-0.326033 -2.567509,-0.427918 -2.812034,-0.163018 -3.797387,-0.06414 -2.622394,0.345811 -3.083473,0.518715 -2.76648,1.066248 -3.256381,1.325605 -2.622391,1.584963 -3.083475,2.247766 -2.391852,2.276583 -2.247765,2.391853 -1.901957,2.737663 -1.901955,3.7174592 -1.114221,2.4526756 -0.815084,2.7305253 -0.448294,2.2210991 -0.346411,2.4656237 -0.04075,3.1584436 0.06113,2.608263 0.08151,2.2007221 0.244525,1.9561974 0.63169,2.465624 0.794705,2.384115 0.713195,1.956198 1.222624,2.119213 1.263378,1.915443 1.161491,1.711673 1.32451,1.73205 1.03923,1.18187 1.406017,1.365263 1.691296,1.487525 1.711672,1.100359 1.670917,1.039231 2.058083,1.059606 2.241476,1.202248 1.772804,0.774327 2.017328,0.713197 1.487528,0.264901 h 1.569032 l -0.101886,32.481028 z" />
      <path
         style="fill:#5f161f;fill-opacity:1;stroke:#5f2015;stroke-width:0.264583px;stroke-linecap:butt;stroke-linejoin:miter;stroke-opacity:1"
         d="m -48.370188,0.5331239 0.172905,-0.99420404 -0.01442,-0.96538656 0.172905,-0.6628027 0.547534,-0.2593575 0.389035,-0.014409 0.763665,0.2017226 0.331401,0.6051676 0.691621,0.60516772 0.04323,0.51871514 -0.05764,0.76366396 0.05764,0.72043768 0.489897,0.7780728 0.619577,0.4898976 0.23054,0.4178538 0.07204,4.2073562 0.115271,0.6772114 0.331401,0.6772116 0.778074,0.4754888 0.08645,0.3602188 0.02882,0.2593575 2.852933,0.043226 0.230542,-0.2305399 0.749255,-0.1873139 0.489897,-0.3169925 0.187315,-0.7492553 0.01442,-0.8645252 -0.07204,-0.5475327 -0.144087,-0.3890365 -0.259357,-6.61361796 -0.172906,-0.38903637 -0.576349,-0.37462757 -0.273767,-0.3025839 -0.01442,-0.3314013 1.239152,-0.11527 0.115268,-0.3458101 -0.05763,-0.3890364 -0.389035,-0.417854 -0.187315,-0.2161313 -0.01442,-0.3890364 0.417853,-0.4466712 0.648394,-0.7492553 0.172905,-0.4322627 -0.662803,-0.6772114 -0.605168,-0.706029 -0.691618,-0.3314012 -0.691621,0.028817 -0.662802,-0.043226 -0.403445,0.4610801 -0.561943,-1.2967877 -0.44667,-0.043226 -0.662802,1.3256053 -0.36022,0.763664 -0.417853,0.1729052 -0.432263,-0.6772116 -0.288177,-0.6051677 0.115271,-0.2449489 1.008613,0.028818 0.129678,-0.5619414 -0.648393,-0.3746275 0.100861,-0.6339853 0.605169,-0.3025838 -0.187315,-1.1959269 -1.095065,0.02882 -0.201724,1.685824 -0.244948,-0.086452 0.08645,-0.6195766 -0.374626,-0.028817 -0.05764,-0.7204374 -1.786683,0.2017223 -0.158496,0.7348464 -1.095066,0.1584962 0.05763,0.821299 -0.331401,0.043226 -0.02882,0.3314014 0.08645,0.172905 0.273767,0.072044 -0.04323,0.4898975 -1.844321,0.2161312 -0.201721,1.3400143 -0.691621,-0.1152699 0.07204,-1.8155031 -0.475488,0.072044 0.07204,-0.4178538 -1.440876,0.014409 -0.01442,-0.5619414 0.489899,-1.224744 0.158496,-0.8789341 -0.561943,-0.201722 -0.02882,-0.749255 -0.417853,-0.187314 -0.115271,-0.489898 -1.008613,-0.01441 -0.201724,-0.965387 -0.878932,0.01441 0.01442,0.92216 -1.397651,0.05763 -1.685824,-1.613781 -1.13829,-0.648394 -0.389036,0.04323 -0.187314,0.69162 -0.331401,0.187314 -0.677212,-0.489898 -0.302583,0.360219 0.79248,0.821299 0.504307,0.518715 -0.172906,1.556145 -0.648393,0.216132 -0.504306,-0.144088 -0.749255,0.288175 -0.446672,0.6772117 -0.273767,0.2017223 -0.288174,-0.5187151 -0.648393,-0.1008612 -0.374629,0.2881751 -0.04323,0.4178538 0.403448,0.5043064 0.288173,0.6339853 -0.08645,0.3458099 -0.07204,0.2881752 0.518716,0.1008613 0.08645,0.7348466 -0.273767,0.3746275 -0.56194,0.2305402 -0.12968,0.4898974 0.01442,0.4034452 0.201724,0.4610801 -0.05763,0.4322627 -0.403447,0.2305399 -0.489898,0.1440876 -0.115268,-0.1584962 -0.05764,-0.3169926 -0.518716,-0.2017225 -0.504306,0.028817 -0.158496,0.5187154 -0.07204,0.8501163 v 0.5907591 l 0.12968,0.4898976 0.158496,0.2737664 0.230539,0.028817 -0.08645,0.4178539 0.129677,0.2881751 0.316995,0.15849631 0.288174,0.10086129 0.01442,0.30258381 0.129681,0.36021887 0.316992,0.14408754 0.05763,0.33140134 -0.172905,0.43226262 -0.244949,0.24494882 -0.288176,0.2593576 -0.417854,0.11527 -0.648393,0.1729051 -0.461079,0.1584963 -0.216133,0.5763501 0.187314,0.706029 -0.05763,0.4178538 -0.302585,0.1873139 0.08645,0.1729049 0.547534,0.014409 -0.187314,0.4466715 -0.389035,0.6051677 -0.461082,0.3602188 -0.273767,0.590759 -0.05763,0.7348463 -0.389035,0.1296789 -0.05764,0.821299 -0.561941,0.4610801 -0.864526,0.1729049 -0.605165,0.2881752 -0.389038,-0.072044 0.100861,1.4264667 -0.230539,0.4754892 -1.109475,0.02882 -0.01442,0.533123 0.08645,0.504307 0.850117,0.446671 1.239152,0.11527 0.36022,0.100861 0.360219,0.691621 0.288174,0.259357 0.273767,0.11527 -0.02882,0.144088 -0.605166,0.11527 -0.172905,0.605167 -0.09917,0.355272 -0.560369,0.40754 -0.04075,0.753952 0.203768,0.519614 0.458486,-0.04075 0.27509,-0.397352 0.183394,0.01019 0.173204,0.315844 0.01019,0.794705 0.01019,0.41773 0.07132,0.27509 0.346411,0.163017 0.305655,-0.285279 0.112075,-0.183394 0.05094,0.56037 0.03056,0.590934 0.04075,0.69282 -0.03056,0.438107 0.499237,0.06113 0.387165,0.183393 0.101886,0.509427 0.315843,0.27509 0.519616,-0.163017 0.13245,-0.82527 0.203772,-0.376976 0.621498,0.01019 0.244525,-0.611311 0.804894,-0.02038 0.08151,-0.489049 0.692819,0.08151 0.264904,-0.713196 0.499237,0.01019 0.08151,-1.497714 1.018853,0.02038 0.132453,1.202246 0.95772,0.132451 0.234336,-1.222623 c 0,0 1.711674,-0.203771 1.619978,-0.163017 -0.0917,0.04076 0.713194,-0.173205 0.713194,-0.173205 l 0.315847,-0.570557 0.08151,-0.998476 0.244526,-0.193582 2.251662,0.04075 0.489051,0.275091 0.203771,0.305655 0.570555,-0.101885 0.295469,-0.519615 0.48905,-0.631689 0.69282,-0.764139 0.560369,-0.611312 -0.203772,-0.743762 0.397354,-0.173205 0.743762,0.152828 0.55018,-0.876214 0.468672,-0.5705577 -0.13245,-0.3362214 0.152829,-0.5705575 0.692819,-0.7539511 -0.13245,-1.0188528 0.0917,-1.1309265 -0.13245,-0.8150823 -0.580747,-0.7947051 -0.448295,-0.7947051 -0.101885,-0.5399921 0.08151,-0.3973525 0.784516,-0.2750903 0.519615,-0.2649017 0.336222,-0.366787 0.05094,-0.50942639 z"
         id="path934" />
      <path
         style="fill:#97162e;fill-opacity:1;stroke:#97162e;stroke-width:0.264583px;stroke-linecap:butt;stroke-linejoin:miter;stroke-opacity:1"
         d="m 17.931809,33.255354 c -0.163017,-0.489047 -1.059607,-3.830886 -1.059607,-3.830886 l -0.163016,-4.401444 0.08151,-49.475491 -0.978099,-1.385639 -1.38564,-0.48905 -3.504853,-0.163017 -3.9939031,0.326034 -1.793181,0.733574 -0.6520656,1.385639 -0.2445247,18.7468917 -2.0784597,-1.752427 -1.4263939,-0.3260328 -2.0784597,-0.3667871 -2.8935419,-0.1630164 -2.5675089,0.1222624 -3.0973125,0.7335739 -2.404493,0.9373447 -2.97505,2.3229842 -1.58941,1.8339351 -2.363738,3.7086241 -1.018853,2.8935419 -1.059607,4.1976733 -0.285279,5.175772 0.203771,4.931248 0.815082,4.482952 1.630164,4.564459 2.404493,3.667871 2.689771,2.36374 2.852788,1.58941 2.1192137,0.733573 3.66787,0.122262 3.3418372,-0.489048 2.52675488,-1.018855 2.03770552,-1.263377 1.1003611,-1.385639 0.9780987,-1.752426 0.3667868,-0.448296 0.2852788,1.874689 0.3667871,2.078461 0.5815856,1.058106 0.8357077,0.691618 1.7002331,0.316994 3.0258378,-0.403447 3.112291,-0.57635 2.305401,-0.835707 z"
         id="path944"
         clip-path="url(#clipPath31143)"
         inkscape:path-effect="#path-effect31147"
         inkscape:original-d="m 17.931809,33.255354 c -0.163017,-0.489047 -1.059607,-3.830886 -1.059607,-3.830886 l -0.163016,-4.401444 0.08151,-49.475491 -0.978099,-1.385639 -1.38564,-0.48905 -3.504853,-0.163017 -3.9939031,0.326034 -1.793181,0.733574 -0.6520656,1.385639 -0.2445247,18.7468917 -2.0784597,-1.752427 -1.4263939,-0.3260328 -2.0784597,-0.3667871 -2.8935419,-0.1630164 -2.5675089,0.1222624 -3.0973125,0.7335739 -2.404493,0.9373447 -2.97505,2.3229842 -1.58941,1.8339351 -2.363738,3.7086241 -1.018853,2.8935419 -1.059607,4.1976733 -0.285279,5.175772 0.203771,4.931248 0.815082,4.482952 1.630164,4.564459 2.404493,3.667871 2.689771,2.36374 2.852788,1.58941 2.1192137,0.733573 3.66787,0.122262 3.3418372,-0.489048 2.52675488,-1.018855 2.03770552,-1.263377 1.1003611,-1.385639 0.9780987,-1.752426 0.3667868,-0.448296 0.2852788,1.874689 0.3667871,2.078461 0.5815856,1.058106 0.8357077,0.691618 1.7002331,0.316994 3.0258378,-0.403447 3.112291,-0.57635 2.305401,-0.835707 z" />
      <path
         style="fill:#97162e;fill-opacity:1;stroke:#97162e;stroke-width:0.264583px;stroke-linecap:butt;stroke-linejoin:miter;stroke-opacity:1"
         d="m 24.898327,34.92682 1.440876,0.864526 7.031473,0.230539 2.535938,-0.92216 0.806892,-1.210336 -0.172905,-39.7681607 -1.095065,-1.2679704 -1.325605,-0.4034451 -4.553167,-0.057635 -2.247765,0.057635 -2.420672,0.8068902 -0.34581,1.6714155 z"
         id="path948" />
      <path
         style="fill:#97162e;fill-opacity:1;stroke:#97162e;stroke-width:0.264583px;stroke-linecap:butt;stroke-linejoin:miter;stroke-opacity:1"
         d="m 24.321977,-16.570067 0.11527,-7.924815 0.662803,-0.950978 c 0,0 1.1527,-0.547532 1.26797,-0.605168 0.115271,-0.05764 1.008613,-0.23054 1.008613,-0.23054 l 6.916203,0.02882 1.123881,0.518715 0.778074,0.547533 0.403444,0.720438 -0.08645,8.328259 -0.950979,0.778073 -1.296787,0.432263 -0.749255,0.288175 -6.858566,-0.02882 -1.613781,-0.489897 z"
         id="path950" />
      <path
         style="fill:#97162e;fill-opacity:1;stroke:#97162e;stroke-width:0.264583px;stroke-linecap:butt;stroke-linejoin:miter;stroke-opacity:1"
         d="m 66.798983,3.0546558 1.383242,-1.1527003 0.92216,-1.72905045 0.979794,-2.13249565 0.230542,-1.9019555 -1.325607,-1.8443204 -2.881749,-1.2679704 -3.054657,-0.6916203 -2.824115,-0.2881751 -2.247768,-0.3458102 -4.322625,0.3458102 -3.169925,1.0374304 -2.708846,1.5561453 -2.132497,1.7290504 -1.1527,2.3630358 -1.613781,3.227561 -0.115268,2.7664807 0.05763,3.1122908 0.806889,3.3428309 1.613781,2.190131 2.190131,2.07486 1.959592,1.210336 2.535941,1.26797 3.400465,1.26797 1.84432,0.864526 1.267971,0.92216 0.864526,1.38324 0.230539,0.979796 -0.172905,1.181517 -0.605168,1.037431 -0.835708,0.720438 -1.296786,0.518715 -1.440876,0.23054 -1.210337,0.02882 -1.873136,-0.201724 -1.527328,-0.489897 -1.815505,-0.605168 -1.123881,-0.720437 -1.239155,-0.547533 -0.835708,-0.172905 -1.267967,1.181518 -1.181519,1.210336 -1.008612,1.556144 -0.576353,2.161315 0.14409,1.383239 0.662802,1.26797 1.700234,1.008613 2.426533,1.079685 1.833936,0.733574 2.282229,0.407543 3.219575,0.285279 3.830886,-0.08151 3.667871,-0.529801 2.567509,-0.978099 2.363737,-1.426395 2.078461,-1.793182 1.304131,-1.752425 1.018852,-1.670918 0.733573,-1.915444 0.244525,-1.833935 L 71.76799,22.414761 71.564219,20.091777 70.952907,17.483514 70.17858,15.812595 68.711431,13.856398 66.959006,12.59302 64.717527,11.166626 61.579463,9.8217407 59.174969,8.8028879 57.096508,7.5395105 55.670116,6.3576414 55.01805,5.0535099 V 3.5048536 l 0.815081,-1.0596069 0.937345,-0.6928199 1.426395,-0.1630165 c 0,0 1.304131,-0.1630164 1.467149,-0.1630164 0.163015,0 2.241476,0 2.241476,0 l 1.100359,0.4075411 1.548657,0.6928199 1.322311,0.5855359 z"
         id="path966" />
      <path
         style="fill:#97162e;fill-opacity:1;stroke:#97162e;stroke-width:0.264583px;stroke-linecap:butt;stroke-linejoin:miter;stroke-opacity:1"
         d="m 88.151143,18.298596 21.273647,-0.203771 0.77433,-0.285278 1.54865,-1.467149 1.34489,-1.711672 0.65206,-1.100361 -0.20377,-2.322984 -0.48905,-3.9123953 -1.0596,-3.749378 -1.05961,-2.97505015 -1.58941,-2.77127955 -2.73053,-2.7712795 -3.38259,-1.9561974 -2.81203,-0.774328 -3.056558,-0.3667871 -3.464099,0.081508 -2.608265,0.1222621 -4.075409,1.1411154 -3.423346,1.6301643 -2.159968,1.6301646 -2.689773,3.34183697 -2.037704,4.23842753 -1.10036,4.442198 -0.163018,4.4421981 -0.04075,4.075412 0.570558,3.260329 0.652066,3.219574 1.263377,3.138066 1.711672,2.567509 1.670918,2.119214 2.200722,1.630164 2.567509,1.467149 3.95315,1.344885 4.034657,0.529804 4.645967,-0.04075 3.627114,-0.489051 3.50485,-0.896591 3.05656,-1.059606 1.54866,-0.774327 1.0596,-1.344887 0.40755,-1.181868 -0.16302,-1.385641 -0.65207,-1.385639 -1.14111,-1.793181 -1.58941,-1.344886 -0.73358,-0.448295 -1.63016,0.366787 -1.79318,1.100361 -2.44525,0.855837 -2.893536,0.448294 -3.219574,-0.04075 -2.159969,-0.448294 -1.752428,-0.692821 -1.58941,-1.507902 -0.896588,-1.38564 -0.815083,-1.996951 -0.407541,-1.833935 z"
         id="path970"
         clip-path="url(#clipPath31151)"
         inkscape:path-effect="#path-effect31155"
         inkscape:original-d="m 88.151143,18.298596 21.273647,-0.203771 0.77433,-0.285278 1.54865,-1.467149 1.34489,-1.711672 0.65206,-1.100361 -0.20377,-2.322984 -0.48905,-3.9123953 -1.0596,-3.749378 -1.05961,-2.97505015 -1.58941,-2.77127955 -2.73053,-2.7712795 -3.38259,-1.9561974 -2.81203,-0.774328 -3.056558,-0.3667871 -3.464099,0.081508 -2.608265,0.1222621 -4.075409,1.1411154 -3.423346,1.6301643 -2.159968,1.6301646 -2.689773,3.34183697 -2.037704,4.23842753 -1.10036,4.442198 -0.163018,4.4421981 -0.04075,4.075412 0.570558,3.260329 0.652066,3.219574 1.263377,3.138066 1.711672,2.567509 1.670918,2.119214 2.200722,1.630164 2.567509,1.467149 3.95315,1.344885 4.034657,0.529804 4.645967,-0.04075 3.627114,-0.489051 3.50485,-0.896591 3.05656,-1.059606 1.54866,-0.774327 1.0596,-1.344887 0.40755,-1.181868 -0.16302,-1.385641 -0.65207,-1.385639 -1.14111,-1.793181 -1.58941,-1.344886 -0.73358,-0.448295 -1.63016,0.366787 -1.79318,1.100361 -2.44525,0.855837 -2.893536,0.448294 -3.219574,-0.04075 -2.159969,-0.448294 -1.752428,-0.692821 -1.58941,-1.507902 -0.896588,-1.38564 -0.815083,-1.996951 -0.407541,-1.833935 z" />
      <path
         style="fill:#97162e;fill-opacity:1;stroke:#97162e;stroke-width:0.264583px;stroke-linecap:butt;stroke-linejoin:miter;stroke-opacity:1"
         d="m 152.82792,33.092339 -0.32604,-2.730526 -0.5298,-2.36374 -0.24453,-2.241475 -0.0322,-21.779782 -0.28817,-2.4783056 -0.80689,-2.19013059 -1.32561,-2.13249571 -1.61378,-1.6714155 -2.13249,-1.3832403 -3.40047,-1.1527004 -2.82412,-0.5763501 -3.34283,-0.4610801 -3.74627,-0.1729049 -4.09209,0.2881749 -3.34283,0.8645252 -3.4581,1.2679704 -1.78669,1.4985105 -1.1527,1.2103354 -0.0576,1.2679703 0.28817,1.38324036 0.63399,1.49851044 1.61378,2.2477657 0.80689,0.7492553 1.61378,0.1152699 1.55615,-0.7492552 1.3256,-0.4610801 1.90196,-0.5187152 1.95959,-0.5763502 2.13249,-0.172905 0.9798,-0.057635 h 1.72905 l 1.61378,0.288175 1.09507,0.6339852 1.1527,0.8068903 0.80688,1.6714155 0.17291,1.6137805 0.1729,1.9595904 -0.1729,0.8068902 -2.53594,-0.2881751 -2.99702,0.1152702 -1.29679,0.057635 -2.24777,0.2881752 -2.93938,0.6628031 -2.65121,0.92216 -3.14111,1.38324 -2.44949,2.103678 -1.87314,2.564758 -1.29678,2.391854 -0.4899,2.363035 v 3.458101 l 0.63398,3.285196 0.95098,2.449488 1.81551,2.190131 2.07486,1.757868 1.52732,0.749255 1.84432,0.403445 2.04605,0.115271 2.10367,-0.02882 2.39186,-0.374626 1.95959,-0.489897 1.8155,-0.92216 2.10368,-1.41206 1.49851,-1.037429 1.12388,-1.123884 0.54754,-0.864526 0.34581,0.864526 0.14408,1.469694 0.40345,1.095066 0.43226,1.037428 0.46108,0.691621 0.86452,0.403445 1.72906,0.230539 1.70023,-0.144086 1.87314,-0.23054 2.36303,-0.489897 1.58497,-0.518716 0.69162,-0.691621 z"
         id="path972"
         clip-path="url(#clipPath31159)"
         inkscape:path-effect="#path-effect31163"
         inkscape:original-d="m 152.82792,33.092339 -0.32604,-2.730526 -0.5298,-2.36374 -0.24453,-2.241475 -0.0322,-21.779782 -0.28817,-2.4783056 -0.80689,-2.19013059 -1.32561,-2.13249571 -1.61378,-1.6714155 -2.13249,-1.3832403 -3.40047,-1.1527004 -2.82412,-0.5763501 -3.34283,-0.4610801 -3.74627,-0.1729049 -4.09209,0.2881749 -3.34283,0.8645252 -3.4581,1.2679704 -1.78669,1.4985105 -1.1527,1.2103354 -0.0576,1.2679703 0.28817,1.38324036 0.63399,1.49851044 1.61378,2.2477657 0.80689,0.7492553 1.61378,0.1152699 1.55615,-0.7492552 1.3256,-0.4610801 1.90196,-0.5187152 1.95959,-0.5763502 2.13249,-0.172905 0.9798,-0.057635 h 1.72905 l 1.61378,0.288175 1.09507,0.6339852 1.1527,0.8068903 0.80688,1.6714155 0.17291,1.6137805 0.1729,1.9595904 -0.1729,0.8068902 -2.53594,-0.2881751 -2.99702,0.1152702 -1.29679,0.057635 -2.24777,0.2881752 -2.93938,0.6628031 -2.65121,0.92216 -3.14111,1.38324 -2.44949,2.103678 -1.87314,2.564758 -1.29678,2.391854 -0.4899,2.363035 v 3.458101 l 0.63398,3.285196 0.95098,2.449488 1.81551,2.190131 2.07486,1.757868 1.52732,0.749255 1.84432,0.403445 2.04605,0.115271 2.10367,-0.02882 2.39186,-0.374626 1.95959,-0.489897 1.8155,-0.92216 2.10368,-1.41206 1.49851,-1.037429 1.12388,-1.123884 0.54754,-0.864526 0.34581,0.864526 0.14408,1.469694 0.40345,1.095066 0.43226,1.037428 0.46108,0.691621 0.86452,0.403445 1.72906,0.230539 1.70023,-0.144086 1.87314,-0.23054 2.36303,-0.489897 1.58497,-0.518716 0.69162,-0.691621 z" />
      <text
         xml:space="preserve"
         transform="matrix(0.26458333,0,0,0.26458333,-16.368345,-8.5299826)"
         id="text52437"
         style="font-style:normal;font-variant:normal;font-weight:bold;font-stretch:normal;font-size:26.6667px;line-height:1.25;font-family:sans-serif;-inkscape-font-specification:'sans-serif Bold';white-space:pre;shape-inside:url(#rect52439);fill:#868686;fill-opacity:1;stroke:none;stroke-opacity:1"><tspan
           x="-78.419922"
           y="212.47024"
           id="tspan145765">PROGRAMA PARA LA BÚSQUEDA Y LOCALIZACIÓN </tspan><tspan
           x="-78.419922"
           y="245.80361"
           id="tspan145767">DE PERSONAS DESAPARECIDAS, NO LOCALIZADAS, </tspan><tspan
           x="-78.419922"
           y="279.13699"
           id="tspan145769">AUSENTES Y EXTRAVIADAS</tspan></text>
    </g>
  </g>
</svg>
