<?xml version="1.0" encoding="UTF-8" standalone="no"?>
<!-- Created with Inkscape (http://www.inkscape.org/) -->

<svg
   width="1100"
   height="600"
   viewBox="0 0 291.04166 158.75"
   version="1.1"
   id="svg5"
   inkscape:export-filename="C:\Users\jorge\Documents\Projects\desaparecidos\images\custom-icons\woman-man-1100x600.png"
   inkscape:export-xdpi="96"
   inkscape:export-ydpi="96"
   inkscape:version="1.1.2 (b8e25be833, 2022-02-05)"
   sodipodi:docname="woman-man.svg"
   xmlns:inkscape="http://www.inkscape.org/namespaces/inkscape"
   xmlns:sodipodi="http://sodipodi.sourceforge.net/DTD/sodipodi-0.dtd"
   xmlns="http://www.w3.org/2000/svg"
   xmlns:svg="http://www.w3.org/2000/svg">
  <sodipodi:namedview
     id="namedview7"
     pagecolor="#ffffff"
     bordercolor="#666666"
     borderopacity="1.0"
     inkscape:pageshadow="2"
     inkscape:pageopacity="0.0"
     inkscape:pagecheckerboard="0"
     inkscape:document-units="px"
     showgrid="false"
     units="px"
     width="1100px"
     inkscape:zoom="0.70710678"
     inkscape:cx="549.42197"
     inkscape:cy="366.28131"
     inkscape:window-width="1920"
     inkscape:window-height="1017"
     inkscape:window-x="-8"
     inkscape:window-y="-8"
     inkscape:window-maximized="1"
     inkscape:current-layer="layer1" />
  <defs
     id="defs2">
    <clipPath
       clipPathUnits="userSpaceOnUse"
       id="clipPath2960">
      <rect
         style="fill:#00ff1c;fill-opacity:0.314685;stroke:none;stroke-width:0.261014"
         id="rect2962"
         width="88.335274"
         height="152.07512"
         x="52.916668"
         y="3.3675961" />
    </clipPath>
    <clipPath
       clipPathUnits="userSpaceOnUse"
       id="clipPath3098">
      <rect
         style="fill:#00ff1c;fill-opacity:0.314685;stroke:none;stroke-width:0.260241"
         id="rect3100"
         width="88.657936"
         height="152.01918"
         x="147.08582"
         y="0.92603803" />
    </clipPath>
    <clipPath
       clipPathUnits="userSpaceOnUse"
       id="clipPath4554">
      <g
         inkscape:label="Clip"
         id="use4556"
         style="fill:#3b5998;fill-opacity:1;stroke:#3b0000;stroke-opacity:1">
        <path
           style="fill:#3b5998;fill-opacity:1;stroke:#3b0000;stroke-width:0.264583px;stroke-linecap:butt;stroke-linejoin:miter;stroke-opacity:1"
           d="m 206.7388,96.986327 h 10.61641 l -0.0331,54.338803 c 0,0 0.23151,0.84336 0.38034,1.19062 0.14883,0.34727 0.59531,0.99219 0.678,1.07487 0.0827,0.0827 0.38033,0.54571 0.49609,0.66146 0.11575,0.11576 0.66146,0.39688 0.66146,0.39688 l 0.44648,0.33073 0.57878,0.23151 0.51263,0.14882 2.03398,0.0331 1.11588,-0.30829 0.6665,-0.49111 0.6782,-0.47941 0.47941,-0.51449 0.53788,-0.71328 0.29233,-0.60804 0.058,-0.17614 0.14056,-59.299737 0.39688,-0.595312 0.33073,-0.760678 0.49609,-0.926041 0.23151,-1.025261 0.0992,-30.62552 18.85156,26.392187 0.77722,0.810287 1.00872,0.578776 0.92604,0.23151 0.89297,0.09922 1.25677,-0.03307 c 0,0 0.71107,-0.248047 0.94258,-0.380339 0.23151,-0.132291 1.00872,-0.628385 1.00872,-0.628385 l 0.51263,-0.463021 0.46302,-0.644922 0.47956,-0.810286 0.28112,-0.760677 0.0165,-2.033985 -0.23151,-0.760677 -0.42995,-0.975651 -0.71107,-0.926041 -26.70638,-37.256641 -1.14101,-1.653645 -0.8599,-1.091407 -1.00872,-0.959114 -0.94258,-0.694531 -1.90169,-0.859896 -1.00873,-0.297657 -0.95911,-0.148828 h -16.35456 l -0.81029,0.198438 -1.32291,0.330729 -1.5875,0.760677 -1.10795,0.826823 -0.67799,0.51263 -0.59531,0.744141 -0.72761,0.942578"
           id="path6502" />
        <path
           style="fill:#3b5998;fill-opacity:1;stroke:#3b0000;stroke-width:0.264583px;stroke-linecap:butt;stroke-linejoin:miter;stroke-opacity:1"
           d="m 196.96568,39.919034 c -0.64485,0.859872 -1.05826,1.570939 -1.05826,1.570939 l -27.48085,38.443659 -0.38308,1.458815 -0.13229,1.488281 0.56224,1.686719 1.15755,1.322917 1.0914,0.826822 1.45521,0.297657 1.52136,0.06615 0.83509,-0.413411 0.85989,-0.429948 0.42264,-0.223615 19.69108,-27.198016 -0.0468,29.255993 0.0234,0.876977 0.14032,0.853591 0.39756,0.935445 0.47942,1.005602 0.43264,0.724968 0.11693,0.222168 -0.14032,57.728543 0.1754,1.63702 0.58465,1.06407 0.92375,1.19269 0.91206,0.6782 0.65481,0.26894 1.04068,0.10524 1.36809,-0.0117 0.87697,-0.17538 0.59635,-0.23386 1.04068,-0.77175 0.87698,-0.94713 0.39756,-0.91206 0.24556,-0.85359 0.13444,-54.473648"
           id="path6504" />
      </g>
    </clipPath>
  </defs>
  <g
     inkscape:label="Layer 1"
     inkscape:groupmode="layer"
     id="layer1">
    <g
       id="g5442"
       transform="translate(3.4037725,-0.04975864)">
      <path
         style="fill:#bb0000;fill-opacity:1;stroke:#bb0000;stroke-width:0.264583px;stroke-linecap:butt;stroke-linejoin:miter;stroke-opacity:1"
         d="m 64.007711,119.71336 0.04677,31.38412 c 0,0 0.210476,1.40317 0.584653,1.96443 0.374179,0.56127 0.935445,1.26285 1.286234,1.44994 0.350793,0.18709 0.888672,0.49111 1.169305,0.63143 0.280633,0.14031 0.514493,0.18708 0.912056,0.23386 0.397566,0.0468 0.958832,0.0702 1.286235,0.0702 0.327406,0 0.818515,-0.14032 1.239464,-0.3508 0.42095,-0.21047 1.216076,-0.56126 1.543482,-0.93544 0.327403,-0.37418 1.028985,-1.26285 1.169302,-1.66041 0.140316,-0.39756 0.327406,-0.65481 0.350792,-1.05237 0.02339,-0.39757 0.140317,-31.89862 0.140317,-31.89862 l 10.617282,-0.0468 0.04677,31.85184 c 0,0 0.187087,1.0056 0.374176,1.23946 0.18709,0.23386 0.30402,0.74836 0.608039,1.12254 0.30402,0.37417 1.052372,0.88867 1.239462,0.91205 0.187089,0.0234 0.514493,0.37418 0.935442,0.58465 0.42095,0.21048 0.02339,0.0468 0.444336,0.21048 0.42095,0.1637 2.391227,-0.0351 2.391227,-0.0351 0,0 0.82436,-0.45603 1.046528,-0.65481 0.222168,-0.19878 0.713274,-0.24555 1.11084,-0.76005 0.397563,-0.51449 0.935442,-1.07576 1.017294,-1.42655 0.08185,-0.35079 0.245554,-0.79512 0.304019,-1.09914 0.05846,-0.30402 0.187635,-31.95583 0.187635,-31.95583 l 13.229169,0.0331 -11.674742,-53.015885 v -7.606771 l 19.380732,26.921354 c 0,0 1.14102,0.777213 1.70325,0.859895 0.56224,0.08268 1.62058,0.28112 1.62058,0.28112 0,0 1.20716,-0.01654 1.37252,-0.148828 0.16537,-0.132292 1.32292,-0.677995 1.32292,-0.677995 l 0.74414,-0.74414 0.77721,-1.141016 0.36381,-0.909505 0.0992,-1.041797 -0.0331,-1.190625 -0.16536,-0.79375 -0.19844,-0.363802 -29.269533,-41.093098 -1.190625,-1.157552 -1.653646,-1.12448 -1.653646,-0.661458 -2.050521,-0.23151 -4.233333,-0.03307 H 71.073697 l -1.223698,0.198437 -2.017448,0.661459 -1.389062,0.79375 -0.892969,0.760677 -1.091406,1.289843 -1.389063,2.050521 -1.885156,2.513542 -2.811198,3.902604 -22.985677,32.279166 -0.363802,1.157552 -0.03307,1.422136 0.264584,1.223698 0.859896,1.322916 1.058333,1.091406 1.190625,0.56224 1.653646,0.165365 1.5875,-0.231511 0.892968,-0.496094 1.289844,-1.322916 1.091406,-1.5875 17.528646,-24.473958 0.06615,7.441406 -11.586623,52.985224 0.07016,0.21047 13.049435,-0.11693 z"
         id="path3604" />
      <ellipse
         style="fill:#bb0000;fill-opacity:1;stroke:#bb0000;stroke-width:0.289583;stroke-opacity:1"
         id="path3787"
         cx="78.902611"
         cy="17.164845"
         rx="13.9"
         ry="13.791407" />
    </g>
    <g
       id="g6500"
       transform="translate(-0.06300806,-0.06474432)">
      <circle
         style="fill:#3b5998;fill-opacity:1;stroke:#3b5998;stroke-width:0.382221;stroke-opacity:1"
         id="path4314"
         cx="208.70163"
         cy="17.33329"
         r="13.783877" />
      <path
         style="fill:#3b5998;fill-opacity:1;stroke:#3b5998;stroke-width:0.264583px;stroke-linecap:butt;stroke-linejoin:miter;stroke-opacity:1"
         d="m 203.53073,97.044205 10.50892,-0.0083 -0.0248,54.107285 c 0,0 0.0827,0.81029 0.16537,1.00872 0.0827,0.19844 0.28112,0.62839 0.3638,0.74415 0.0827,0.11575 0.59627,0.79724 0.59627,0.79724 l 0.61973,0.64312 0.6782,0.44434 0.64311,0.35079 0.5145,0.19878 0.3274,0.0585 2.17491,-0.0117 0.71327,-0.26893 0.70159,-0.39756 0.43264,-0.3391 0.77174,-0.74835 0.52619,-0.73667 0.22216,-0.57296 0.19879,-0.57295 0.0117,-2.11645 -0.0468,-2.32691 0.0819,-54.594817 0.22544,-0.263634 0.3638,-0.51263 0.29766,-0.851628 0.26458,-0.768945 0.21498,-0.760677 0.0827,-0.595313 0.14111,-29.993293 19.05966,26.51982 0.81851,0.818512 0.93545,0.514496 0.91206,0.233859 0.88867,0.04677 1.28623,-0.11693 0.6782,-0.350793 0.74835,-0.420949 0.8419,-0.701583 0.65481,-0.795126 0.37418,-0.748355 0.21047,-0.865285 v -1.894274 l -0.30402,-1.005602 -0.56126,-1.052372 -28.0734,-39.054146 -1.02526,-1.488281 -1.25677,-1.091406 -1.62057,-0.859896 -1.42214,-0.595312 -1.32291,-0.264584 -16.30495,-0.165364 -1.52136,0.330729 -1.65364,0.56224 -1.38906,0.727604 -1.02527,0.859896 -0.95911,1.02526 -0.76068,1.190625 -28.26356,39.524204 -0.37418,1.099145 -0.16371,1.052375 v 0.982215 l 0.28064,1.028989 0.63142,1.052372 0.8419,0.795126 0.93544,0.701585 0.93545,0.35079 0.88867,0.07016 0.88867,0.07016 0.91206,-0.23386 1.12253,-0.514495 0.65481,-0.608036 19.34029,-26.823839 0.0136,29.673425 0.11575,0.843359 0.33073,1.107943 0.34727,0.909505 0.38033,0.826823 0.38034,0.479557 -0.0245,58.698121 0.3274,0.91206 0.57296,1.15761 0.77174,0.81852 0.90037,0.61973 0.92375,0.39756 0.18708,0.0585 2.37369,-0.0351 0.87698,-0.23387 0.58465,-0.4911 0.40926,-0.31571 0.4911,-0.52619 0.63143,-0.72497 0.42095,-0.80682 0.21047,-0.59634 z"
         id="path5477" />
    </g>
  </g>
</svg>
