<svg width="256" height="256" viewBox="0 0 67.733 67.733" xmlns="http://www.w3.org/2000/svg"><defs><path id="b" d="M-86.698 215.655h76.677v46.616h-76.677z"/><path id="a" d="M57.508 112.402h116.759v67.093H57.508z"/></defs><path style="fill:none;stroke:#000;stroke-width:1.04563;stroke-linecap:butt;stroke-linejoin:miter;stroke-miterlimit:4;stroke-dasharray:none;stroke-opacity:1" d="m12.51 53.59 46.782.434.667-.028.683-.086.653-.113.739-.27.512-.313.54-.426.369-.483.199-.427.028-.37.142-.127.214-.455.206-.572.201-.683.04-.402.03-1.627-.09-.453-.2-.733-.332-.784-.623-1.045-.774-.914-1.035-.944-.703-.503-1.115-.613-1.176-.432-.743-.14-.553-.04-.894.06-.884.11-.844.13-.684.202-.472.13.04-.462-.01-.412.01-.582v-.533l-.04-.543-.09-.793-.1-.653-.182-.764-.331-.894-.402-.915-.492-.874-.613-.783-.724-.704-.844-.512-.904-.412-.914-.281-1.116-.151-1.105-.06-1.165-.08-1.206.02-.824.1-.603.16-.512.222-.03-.292-.05-.412-.141-.673-.221-.613-.332-.894-.482-1.156-.352-.683-.563-.864-.813-1.055-1.065-1.015-1.025-.814-1.166-.723-1.356-.613-1.007-.333-1.264-.299-1.55-.199-1.917-.042-1.79.227-1.947.475-1.698.643-1.718.925-1.216.844-.954.914-.865.975-.612.994-.282.513-.382.964-.944-.16-1.487-.04-1.095.17-.584.143-.668.185-.632.291-.781.42-.526.376-.675.59-.448.497-.419.604-.42.838-.333.889-.192.795-.114.846-.042 1.15v1.024l.12.852.192.931.206.462.206.398.15.241-.285.007-.447.114-.604.256-.647.405-.49.447-.54.604-.504.633-.42.753-.305.653-.32.867-.213.831-.149.81-.07.874.042.831.142.547.227.661.334.675.37.66.362.491.483.561.604.476.746.405.718.285.618.191.852.213 1.03.143.782.056z" transform="translate(.115 -3.688)"/><text xml:space="preserve" transform="translate(-8.283 -22.753) scale(.45985)" style="font-style:normal;font-weight:400;font-size:40px;line-height:1.25;font-family:sans-serif;white-space:pre;shape-inside:url(#a);fill:#000;fill-opacity:1;stroke:none"><tspan x="57.508" y="148.797"><tspan style="font-family:'Times New Roman';-inkscape-font-specification:'Times New Roman, '">API</tspan></tspan></text><text xml:space="preserve" transform="matrix(.17366 0 0 .17366 26.564 -10.439)" style="font-style:normal;font-variant:normal;font-weight:400;font-stretch:normal;font-size:40px;line-height:1.25;font-family:Consolas;-inkscape-font-specification:Consolas;white-space:pre;shape-inside:url(#b);fill:#000;fill-opacity:1;stroke:none"><tspan x="-86.697" y="250.361">&lt;/&gt;</tspan></text></svg>