<svg width="1100" height="600" viewBox="0 0 291.042 158.75" xmlns="http://www.w3.org/2000/svg"><path style="fill:#3b5998;fill-opacity:1;stroke:#3b5998;stroke-width:.264583px;stroke-linecap:butt;stroke-linejoin:miter;stroke-opacity:1" d="m10.29 11.392.115.198.13.146.174.166.332.19.406.193.328.086.344.083.268.032H13.49l.434-.024.356-.02.37-.063.38-.079.328-.102.237-.119.26-.158.221-.17.222-.197.05-.134v-.071l.62-.008.423.031.466.036.573.095.422.134.364.186.418.304.288.284.364.494.316.509.206.43.185.513.14.525-.034.732-.102.264-.198.233-.28.26-.348.214-.355.181-.494.158-.367.091-.34.095-.493.146-.545.087-.53.075-.603.063-.672.071-.624.024-3.42.026-.473-.038-.577-.008-.647-.095-.754-.106-.87-.174-.469-.107-.573-.161-.497-.178-.332-.17-.304-.154-.229-.174-.182-.197-.11-.154-.087-.182-.06-.217-.015-.193.012-.233.035-.23.06-.311.11-.352.123-.395.17-.284.205-.371.252-.375.253-.3.34-.34.312-.221.308-.178.383-.11.343-.1.36-.066z" transform="matrix(8.98285 0 0 8.98285 25.69 -3.585)"/><path style="fill:none;fill-opacity:1;stroke:#3b5998;stroke-width:.264583px;stroke-linecap:butt;stroke-linejoin:miter;stroke-opacity:1" d="m13.41 11.301.53-.079.56-.213.442-.26.371-.293.308-.276.332-.395.284-.395.23-.316.22-.458.182-.363.08-.34.11-.063.158-.134.205-.308.071-.3.103-.316.07-.34v-.45l-.015-.292-.079-.174-.166-.174-.182.087-.142.11-.15.175-.15.126-.11.047-.142-.015-.008-.198-.032-.229-.087-.237-.126-.221-.182-.213-.15-.15-.166-.095-.04.016.048.087.071.087.04.118-.032.063-.118-.079-.174-.095-.19-.094-.15-.08-.197-.094-.146-.032h-.249l-.237.008-.26.04-.28.043-.186.036-.297.027-.26.016-.289-.008-.244-.02-.206-.027-.252-.063-.135-.044-.146-.067-.181-.055-.174-.036h-.11l-.139.052-.19.079-.15.126-.15.126-.098.138-.135.143-.05.102-.111.162-.08.154-.098.158-.04.158-.035.134-.032.11H9.96l-.166-.023-.119-.118-.094-.119-.119-.126-.087-.11-.087-.064-.086.103-.127.142-.016.221v.348l-.028.336.017.296.067.274.106.229.112.229.145.229.123.072.1.056.09.257.122.296.151.34.229.352.184.257.19.263.151.218.302.312.279.24.178.146.207.15.28.196.323.145.285.084.262.067.196.056z" transform="matrix(8.98285 0 0 8.98285 25.69 -3.585)"/><path style="fill:#3b5998;fill-opacity:1;stroke:#3b5998;stroke-width:.264583px;stroke-linecap:butt;stroke-linejoin:miter;stroke-opacity:1" d="m17.331 5.252-.005-.301.005-.3v-.367l-.035-.34-.08-.394-.118-.328-.124-.279-.137-.229-.098-.165-.176-.254-.14-.192-.15-.168-.123-.13-.209-.174-.229-.174-.292-.142-.296-.146-.273-.107-.32-.122-.276-.048-.395-.007-.576-.016-.43.004-.297.008-.419.07-.288.076-.276.094-.391.19-.273.166-.284.213-.257.265-.225.233-.185.26-.21.371-.126.328-.09.26-.107.265-.04.308-.063.328-.024.324.004.328.012.272.202.257.181.213.158.122.095.016.067-.106.11-.297.135-.248.134-.221.134-.182.154-.17.127-.114.166-.135.197-.094.193-.083.202.015.162.052.17.055.229.099.275.07.273.031.402.02.263-.003.276-.03.196-.029.254-.047.237-.036.218-.023.265.009.212.025.162.058.19.092.12.07.106.067.095.056.126.067-.081-.134-.084-.131-.033-.03.19-.073.19.117.145.148.198.248.148.218.098.235.028.148.025.142.005.078.011.048.101-.053.081-.062.112-.114.089-.087.084-.067.114-.07z" transform="matrix(8.98285 0 0 8.98285 25.69 -3.585)"/><path style="fill:#3b5998;fill-opacity:1;stroke:#3b5998;stroke-width:.0828135px;stroke-linecap:butt;stroke-linejoin:miter;stroke-opacity:1" d="m13.407 8.463-.117-.002-.016.013-.026.003-.046-.001-.016.013h-.03l-.044-.002-.02.02-.048-.005-.012.016-.05-.003-.012.014-.028-.003-.027.018-.032.001-.051.025-.045.004-.011.013-.026-.002-.003.012-.021-.001-.005.008-.032.003-.034.012-.048.009-.022.004-.022.013-.049.005-.013.01-.043.017-.03.022-.035.016-.04.033-.024.03-.006.005h-.018l-.021.025.003.017-.015.015-.02.032-.011.017-.018.021-.012.036-.016.033-.003.027-.012.027-.001.024h-.008l.003.045-.003.076.01.019v.023l.006.03.011.02.01.038.014.023.011.006.003.018.005.015.024.015.027.017.03.012.033.005.032.002.047-.001.04-.013.03-.001.016-.012.023.001.005-.016.037-.005.015-.013.036-.01.033-.01.026-.009.018-.014.035-.012h.032l.001-.011.049-.001.017-.017.042-.002.017-.008.045.002.003-.017.051-.002.015-.007.032-.007.023-.007.027-.01.035-.01.035-.016.032-.011.032-.01.026-.011.022-.015.042-.02.022-.003.021.003.021.012.014.01.02.01.032.012.007.01.032-.002.001.005c0 .003.021.01.021.01l.019.006.021.015.034-.003.003.011.033.002.01.013h.033l.008.007.021.008.013.006.022-.002.002.007.044.005.008.01.057.002.015.011.035.005.017.012.023-.003.016.014.033.003.011.01h.027l.008.011.023.004.016.01.025.002.017.013.026.009.023.004.027.01.036.008.013.005v.007l.004.004.124-.002.017-.005.02-.008.022-.012.019-.014.006-.012v-.01l.008-.013.015-.017.009-.023.009-.019.007-.023.012-.007.001-.014.001-.034.008-.01.01-.015-.005-.1-.01-.017-.004-.029L14.505 9l-.02-.045-.026-.048-.004-.017-.012-.023-.022-.022-.023-.034-.028-.023-.032-.037-.014-.012h-.008l-.036-.033-.045-.025-.042-.017-.045-.015-.03-.009-.032-.009h-.034l-.018-.02-.04.001-.004-.009-.032-.004-.042-.011-.008-.017h-.047l-.006-.015-.049-.006-.045-.008-.035-.015-.01-.01-.051-.004-.008-.007-.062-.003-.006-.014h-.079l-.005-.013-.087-.003z" transform="matrix(8.98285 0 0 8.98285 25.69 -3.585)"/></svg>