<svg width="1100" height="600" viewBox="0 0 291.042 158.75" xmlns="http://www.w3.org/2000/svg"><path style="fill:#b00;fill-opacity:1;stroke:#b00;stroke-width:.565;stroke-linecap:butt;stroke-linejoin:miter;stroke-miterlimit:4;stroke-dasharray:none;stroke-opacity:1" d="m128.49 88.789-2.145-2.234-2.502-3.038-1.519-2.323-1.072-2.502-1.608-3.663-1.072-2.323-.804-2.949.804-1.34.15-.414-.884-.916-.821-1.485-.822-2.338-.537-1.737-.095-1.643-.157-1.706.379-1.421.316-1.833.79-.947.884-.569.947.032.222-.853.19-1.043.283-1.484.443-1.643.442-1.169.474-1.2.6-1.517.505-1.042 1.454-1.959.947-.884 1.106-.98.853-.79 1.358-.663 1.264-.474 1.611-.126 1.516.032 1.58.158 1.58.568 2.432 1.264 2.085 1.2 1.706.948 2.78 1.516 1.832 1.011 3.443 1.674 2.464 1.264 2.685 1.358 3.096 1.485 2.053 1.232 2.022.916 1.295.79 1.77.885 1.737 1.01 1.516.853 1.106.79.758-.884.695-1.138 1.01-1.2 1.328-.442.947.316 1.327 1.263.38 1.832-.064 3.918.063 1.453-.505 2.085-.822 2.021-.695 1.517-.82 1.01-1.075.696.885 1.516-1.454 2.78-1.2 2.78-.948 2.211-.947 2.527-1.517 2.464-1.074 2.654-1.327 1.516-1.58 1.58.885 1.832.632 1.895 1.011 1.327 1.453.821 1.137.632.948.38 2.211.442 2.464.252 1.96.38 2.716.315 3.159.316h2.022l1.263.253-1.453-1.39-1.01-1.39-.822-1.58-.506-1.326-.568-2.085-.442-1.453-.267-2.376.14-3.5.316-11.941.442-7.266.695-4.17.569-4.738-.19-4.802-.252-5.18-1.264-6.066-1.39-5.623-1.264-3.538-1.832-4.17-2.78-4.612-2.97-2.907-3.6-3.285-4.044-2.464-3.854-1.2-3.475-.948-3.79-.19-5.624-.063-5.054-.126-3.349.505-3.98.885-2.527 1.074-3.412 1.453-3.348 2.527-3.728 3.665-2.31 3.465-2.413 4.289-2.1 4.601-1.25 4.602-1.385 5.182-.447 4.2-.045 5.093v5.629l.492 3.26.268 3.44.491 2.056.233 7.57.19 5.56-.506 6.191-.442 4.486-.443 2.97-.947 3.348-1.2 1.453-1.896 1.264-.569.126 2.527-.063 3.033-.126 2.843-.127 2.59-.442 2.654-.442 1.959-.442 1.453-.506 1.2-.758 1.643-1.01 1.39-1.138.695-1.77z" transform="translate(-8.021 -7.893) scale(1.09875)"/><path style="fill:#b00;fill-opacity:.997669;stroke:#b00;stroke-width:.765;stroke-linecap:butt;stroke-linejoin:miter;stroke-miterlimit:4;stroke-dasharray:none;stroke-opacity:1" d="m143.205 149.19 9.414.062 9.034-.505 6.697-.506 5.497-.252 6.887-1.517 5.75-.884 5.496-1.516 4.233-1.454 4.928-2.021 2.654-1.833 2.716-2.59 2.085-3.348.695-2.528.127-3.727-1.075-4.233-1.832-3.98-1.895-4.423-2.022-4.107-2.022-2.527-2.274-2.59-2.885-2.43-2.145-1.608-2.278-1.207-2.1-.804-2.725-.268-.882-.08-1.095-.233-.664-.134-.52-.095-.815-.016-1.392-.036-.964-.11-1.263-.135-.79-.126-.83-.032-1.54-.19-.836-.165-.987-.119-1.09-.158-.64-.055-.806-.134-.529-.087-.663-.134-.719-.142-.197.047-.067.615-.313.782-.625 1.117-.76.983-1.698 1.385-1.362 1.184-1.921 1.295-1.586 1.05-2.413 1.072-1.854.849-2.39.826-1.988.738-1.943.536-1.988.178-2.122.067-1.497-.178h-1.653l-1.81-.268-1.607-.358-2.48-.804-2.345-.67-1.765-.625-1.854-.916-1.474-1.005-1.564-1.006-1.608-1.005-1.095-.826-1.362-1.229-.85-.826-.714-.916-.76-.938-.14-.47-.513.19-.804.279-.616.252-.537.158-1.122.237-.916.127-1.39.126-1.31.079-1.438.016-1.611.016-1.675.079-1.753.031-1.074.047-.79.095-1.263.206-1.311.094-1.99.537-1.959.537-1.548.727-1.074.632-2.906 2.274-1.58 1.58-1.684 2.292-1.832 3.216-2.055 2.994-1.742 3.35-1.43 4.021-.893 2.68-.358 2.056-.536 3.618.358 1.921.536 2.145 1.117 2.01 1.831 2.01 3.574 2.413 3.306 1.876 4.379 1.698 3.93 1.072 3.888.983 2.546.447 6.255.983 5.137.76 7.104.49 6.746.358 3.395.402z" transform="translate(-8.021 -7.893) scale(1.09875)"/><path style="fill:none;fill-opacity:1;stroke:#b00;stroke-width:2.565;stroke-linecap:butt;stroke-linejoin:miter;stroke-miterlimit:4;stroke-dasharray:none;stroke-opacity:1" d="m128.99 89.358 2.084 1.863 1.8 1.39 1.707.948 1.548.916 1.58.79 2.274.474 2.148.474 1.927.22 2.559.222 2.148-.221 1.737-.348 1.896-.632 2.495-.947 1.39-1.011 1.485-.727 1.421-.947 1.2-.948.87-1.027.931-.679 1.264-1.216 1.619-1.746.513-.852.408-1.033.28-.77.647-1.117.447-.737.458-.843.307-.71.313-.837 1.519-3.58 1.497-3.333.632-1.17.328-.69-.86-1.53.888-.626.52-.475.493-.628.4-.84.779-1.815.589-1.843.28-1.709-.046-2.122.04-1.882-.04-1.111-.256-1.15-.509-.76-.614-.525-.436-.285-.558-.14-.48.006-.57.207-.52.452-.507.559-.785.963-.387.734-.426.514-.23.205-34.622-18.438-.924-.342-.608-.115-1.019-.07-1.485-.036-1.334.094-.609.103-.77.32-.69.288-.309.166-.462.257-.71.627-.861.794-.904.794-.9 1.042-1.02 1.438-.616 1.326-.544 1.335-.624 1.588-.38 1.176-.34 1.272-.212 1.145-.174 1.28-.23.813-.63-.024-.427.016-.435.245-.418.316-.49.576-.2.24-.098.393-.2.992-.157.87-.223.838.039 1.586.078.983.246 1.218.357 1.306.48 1.318.224.749.301.681.47.726.38.614.513.503.368.301-.368.782-.402.66-.179.357.179.938.402 1.575.905 2.144 1.206 2.725 2.077 4.4 1.541 2.257 2.57 3.172 1.543 1.552z" transform="translate(-8.021 -7.893) scale(1.09875)"/></svg>