<svg width="1100" height="600" viewBox="0 0 291.042 158.75" xmlns="http://www.w3.org/2000/svg"><g transform="translate(3.404 -.05)"><path style="fill:#b00;fill-opacity:1;stroke:#b00;stroke-width:.264583px;stroke-linecap:butt;stroke-linejoin:miter;stroke-opacity:1" d="m64.008 119.713.046 31.384s.211 1.404.585 1.965c.374.561.936 1.263 1.286 1.45.351.187.889.491 1.17.631.28.14.514.187.912.234.397.047.959.07 1.286.07.327 0 .818-.14 1.24-.35.42-.21 1.216-.562 1.543-.936.327-.374 1.029-1.263 1.17-1.66.14-.398.327-.655.35-1.053.023-.397.14-31.898.14-31.898l10.618-.047.046 31.852s.187 1.005.375 1.24c.187.233.304.748.608 1.122.304.374 1.052.888 1.24.912.186.023.514.374.934.584.421.21.024.047.445.21.42.165 2.391-.034 2.391-.034s.824-.456 1.047-.655c.222-.199.713-.246 1.11-.76.398-.515.936-1.076 1.018-1.427.082-.35.245-.795.304-1.099.058-.304.187-31.956.187-31.956l13.23.034L95.614 66.51v-7.607l19.38 26.921s1.142.777 1.704.86c.562.083 1.62.281 1.62.281s1.208-.016 1.373-.149c.165-.132 1.323-.678 1.323-.678l.744-.744.777-1.14.364-.91.1-1.042-.034-1.19-.165-.794-.199-.364-29.27-41.093-1.19-1.158-1.654-1.124-1.653-.662-2.05-.231-4.234-.033H71.074l-1.224.198-2.017.662-1.39.793-.892.76-1.092 1.29-1.389 2.051-1.885 2.514-2.811 3.902-22.986 32.28-.364 1.157-.033 1.422.265 1.224.86 1.323 1.058 1.091 1.19.563 1.654.165 1.588-.232.893-.496 1.29-1.323 1.09-1.587 17.53-24.474.066 7.441-11.587 52.986.07.21 13.05-.117z"/><ellipse style="fill:#b00;fill-opacity:1;stroke:#b00;stroke-width:.289583;stroke-opacity:1" cx="78.903" cy="17.165" rx="13.9" ry="13.791"/></g><g transform="translate(-.063 -.065)"><circle style="fill:#3b5998;fill-opacity:1;stroke:#3b5998;stroke-width:.382221;stroke-opacity:1" cx="208.702" cy="17.333" r="13.784"/><path style="fill:#3b5998;fill-opacity:1;stroke:#3b5998;stroke-width:.264583px;stroke-linecap:butt;stroke-linejoin:miter;stroke-opacity:1" d="m203.53 97.044 10.51-.008-.025 54.107s.083.81.165 1.009c.083.198.281.628.364.744.083.116.596.797.596.797l.62.643.678.445.643.35.515.2.327.058 2.175-.012.713-.269.702-.397.433-.34.771-.748.527-.736.222-.573.199-.573.011-2.117-.047-2.327.082-54.595.226-.263.364-.513.297-.851.265-.77.215-.76.082-.595.142-29.994 19.06 26.52.818.819.935.514.912.234.889.047 1.286-.117.678-.351.749-.42.842-.702.654-.796.375-.748.21-.865v-1.895l-.304-1.005-.561-1.052-28.074-39.055-1.025-1.488-1.257-1.091-1.62-.86-1.422-.596-1.323-.264-16.305-.165-1.522.33-1.653.562-1.39.728-1.025.86-.959 1.025-.76 1.19-28.264 39.525-.374 1.1-.164 1.052v.982l.28 1.029.632 1.052.842.795.936.702.935.35.889.07.888.071.912-.234 1.123-.514.655-.608 19.34-26.824.014 29.673.115.844.331 1.107.347.91.38.827.381.48-.024 58.697.327.913.573 1.157.772.819.9.62.924.397.187.058 2.374-.035.877-.233.584-.492.41-.315.49-.526.632-.725.421-.807.21-.597z"/></g></svg>