<?xml version="1.0" encoding="UTF-8" standalone="no"?>
<!-- Created with Inkscape (http://www.inkscape.org/) -->

<svg
   width="1100"
   height="600"
   viewBox="0 0 291.04166 158.75"
   version="1.1"
   id="svg5"
   inkscape:version="1.1.2 (b8e25be833, 2022-02-05)"
   sodipodi:docname="mx-mor-o.svg"
   xmlns:inkscape="http://www.inkscape.org/namespaces/inkscape"
   xmlns:sodipodi="http://sodipodi.sourceforge.net/DTD/sodipodi-0.dtd"
   xmlns="http://www.w3.org/2000/svg"
   xmlns:svg="http://www.w3.org/2000/svg">
  <sodipodi:namedview
     id="namedview7"
     pagecolor="#ffffff"
     bordercolor="#666666"
     borderopacity="1.0"
     inkscape:pageshadow="2"
     inkscape:pageopacity="0.0"
     inkscape:pagecheckerboard="0"
     inkscape:document-units="mm"
     showgrid="false"
     units="px"
     inkscape:zoom="0.52347032"
     inkscape:cx="337.17289"
     inkscape:cy="307.56281"
     inkscape:window-width="1920"
     inkscape:window-height="1017"
     inkscape:window-x="-8"
     inkscape:window-y="-8"
     inkscape:window-maximized="1"
     inkscape:current-layer="layer1" />
  <defs
     id="defs2" />
  <g
     inkscape:label="Layer 1"
     inkscape:groupmode="layer"
     id="layer1">
    <path
       style="fill:none;fill-opacity:1;stroke:#000000;stroke-width:1.25280208;stroke-linecap:butt;stroke-linejoin:miter;stroke-miterlimit:4;stroke-dasharray:none;stroke-opacity:1"
       d="m 147.73519,157.26352 0.61579,-0.33589 0.11201,-0.41986 0.41987,-0.3079 0.25192,-0.6718 -0.30791,-0.72776 -0.084,-0.58781 c 0,0 0.084,-0.3079 0.19593,-0.3359 0.11201,-0.028 1.23162,-0.19593 1.23162,-0.19593 l 0.47584,-0.13996 0.13996,-0.6438 0.72776,-0.30789 -0.028,-0.6158 0.83973,0.028 0.67178,-0.81174 -0.0561,-0.50383 0.81174,0.0559 -0.0561,-0.44785 0.97969,-1.03567 0.47586,0.028 -0.084,-0.64378 0.64379,-0.36389 0.3359,-1.20362 -0.19594,-0.47584 0.33588,-0.50383 0.47586,0.39186 0.33589,-0.41987 0.3079,0.41987 h 0.69978 l -0.084,-0.50384 0.83974,-0.3359 0.47585,0.36389 0.55982,-0.33589 -0.22394,-0.30789 0.78375,-0.6718 0.67179,-0.028 0.27991,-0.084 0.39187,-0.3079 -0.028,-0.22393 0.19594,-0.39187 0.028,-0.58781 0.13996,-0.27992 0.44785,-0.16794 0.0561,-0.2799 -0.36388,-0.22394 -0.084,-0.50383 -0.22392,-0.19594 -0.0559,-0.25192 0.50384,-0.3359 -0.27991,-0.27992 0.50384,-0.5878 -0.36389,-0.3079 0.3359,-0.22393 0.19593,-0.3359 0.44786,0.11201 0.39188,-0.25191 0.67178,1.31558 0.47585,-0.0561 0.75576,-0.084 0.13996,-0.11201 0.19593,0.16794 0.55982,-0.13994 0.89571,-0.27992 0.19594,-0.13995 0.27992,0.50383 0.64378,0.028 0.30791,-0.16795 0.16795,-0.25191 0.084,-0.6438 0.83973,0.39188 0.50384,-0.25192 0.16794,-0.3079 0.36388,0.3079 0.44785,-0.39188 0.39188,0.084 0.92371,-0.81173 0.41986,-0.084 0.47585,-0.25192 0.39187,0.028 0.3359,-0.27991 0.22393,-0.41986 -0.0559,-0.23793 -0.028,-0.40587 0.13996,-0.43386 -0.23794,-0.47585 0.0701,-0.47584 0.50384,0.16794 h 0.40587 l 0.084,-0.44786 -0.18194,-0.36388 0.19594,-0.41987 -0.18194,-0.39187 -0.15396,-0.53183 -0.014,-0.55982 0.12597,-0.47585 0.26591,-0.27992 0.46186,-0.112 0.65778,0.028 0.46185,-0.13996 -0.51783,-0.11201 -0.44786,-0.0561 -0.2799,-0.25192 0.65778,-0.18194 0.82574,-0.15395 0.58781,-0.12597 0.67179,-0.27991 0.43386,-0.46184 0.43386,-0.20994 0.48984,-0.19593 0.65779,-0.36388 0.6018,-0.22394 0.54584,-0.084 0.51783,-0.50383 0.78375,-0.18196 0.43386,-0.46184 0.74176,0.16794 0.34989,-0.30789 0.48984,0.41986 0.43386,0.12595 1.35757,-0.36388 0.23792,0.18195 0.3079,-0.37789 0.57381,-0.37787 0.16796,-0.43386 0.20992,-0.36388 -0.23791,-0.47585 0.20993,-0.54584 1.31557,-0.79774 -0.0559,-0.62979 v -0.51784 l -0.44786,-0.68577 -0.61581,-0.3499 0.18196,-0.32189 0.5738,-0.028 -0.26591,-1.07766 1.02166,-1.63747 0.51784,0.07 0.3219,-0.3219 h 0.96569 l 0.12596,0.26591 h 0.60182 l 0.15395,0.3079 0.41986,-0.3079 0.25192,0.44785 0.78375,-0.33587 0.23792,0.18193 0.028,0.68578 0.33589,-0.028 0.22392,0.36388 -0.40586,0.2939 -0.014,0.16795 0.57381,0.19594 0.084,0.53182 0.76974,0.46186 0.042,0.57382 0.53183,0.014 0.20993,0.82574 0.098,0.084 0.90971,0.042 v 0.44786 l 0.67178,0.64379 0.46185,-0.20994 0.084,0.3499 0.6298,0.57382 -0.54582,0.62979 1.23161,0.76976 0.25192,0.042 0.79774,-0.34988 0.57381,0.88171 h 0.47586 l 0.58781,0.27991 0.64378,-0.084 0.3499,0.19594 0.042,0.51784 0.36388,0.098 0.042,0.83973 0.12595,0.36387 0.0561,0.47586 v 0.25191 l 0.51784,-0.0701 0.0701,0.32188 -0.23793,0.60181 0.26592,0.20994 0.18194,-0.12596 0.16794,0.36388 0.028,0.34989 0.55983,-0.014 0.33589,0.39187 0.36388,-0.23793 0.16795,-0.37787 1.20362,-0.22393 0.15394,0.46185 0.13996,0.098 -0.084,0.34988 0.51783,1.24561 0.014,0.23791 1.27359,0.72778 0.33588,-0.042 2.02936,-1.02167 1.42754,-0.0701 0.25192,-0.0559 -0.014,-0.6298 -1.00769,-0.75576 1.07767,-0.75576 -0.76976,-0.18195 0.27991,-0.3079 -0.36388,-0.89571 h 0.83939 l -0.13996,-0.40586 -0.65779,-0.0701 0.014,-0.58781 0.53184,0.0701 0.3219,-0.60181 -0.25192,-0.36388 0.25192,-0.47584 -0.44786,-0.47585 0.68577,0.028 0.3079,-0.34989 -0.22391,-0.48984 0.33587,-0.36389 -0.15394,-0.40586 0.12597,-0.23793 0.37787,-0.44786 0.11201,-1.04965 -0.47585,-0.55983 -0.9377,0.76976 -0.2939,-0.042 0.028,-0.22393 0.22392,-0.23792 -0.028,-0.20994 -0.23793,-0.07 0.0559,-0.25192 0.60181,-0.88172 -0.23793,-0.85373 -0.23792,-0.76975 0.36388,0.0701 0.27992,0.19594 0.22393,-0.15394 0.042,-0.29392 -0.2939,-0.25192 -0.46185,-0.0561 -0.58782,0.042 -0.30791,-0.098 -0.30789,-0.30791 -0.13995,-0.50382 0.3079,-0.22394 0.34988,-0.78375 h 0.37788 l 0.11201,-1.30158 0.50384,-0.25193 0.20994,-1.32957 -0.6158,-0.6158 -0.29392,-0.82574 0.37788,-1.20361 -1.2456,-0.89571 0.23793,-0.58782 -0.82574,-0.028 -0.042,-0.41987 -0.34989,-0.51782 0.51782,-0.014 0.098,-0.43386 0.23792,-0.3219 -0.13995,-0.54583 -0.40588,0.23792 -0.0559,-0.37786 -0.40587,-0.3919 0.19594,-0.3079 0.41987,0.22394 0.26591,-0.014 0.0979,-0.55981 -0.41986,-0.39188 0.112,-0.50384 0.26592,-0.85373 -0.72776,-1.72145 -0.3219,-0.18194 -0.028,-0.6158 -0.50382,-0.20993 0.36388,-0.37788 -0.0561,-0.2939 0.3079,0.028 0.2799,-0.33591 0.37788,-0.084 -0.20992,-1.17563 0.25191,-0.33589 0.23793,-0.40586 -0.16794,-0.937713 -0.36389,-0.47585 -0.53183,-0.58781 -0.20994,-1.62348 -0.27991,-0.48984 0.26592,-0.27991 -0.5878,-0.18194 0.32188,-0.22393 -0.0979,-1.14764 0.13818,-0.33176 -0.0692,-0.19793 -0.24741,-0.33647 0.19792,-0.45523 -0.31668,-0.91047 -0.31667,-0.16823 -0.38597,-0.12865 -0.0891,-0.46513 -0.47502,-0.51461 -0.0105,-0.39585 0.17814,-0.24741 -0.38596,-0.65316 -0.24741,-0.0495 -0.68284,-0.682846 0.0891,-0.43544 -0.21773,-0.435436 -0.28699,-0.475025 -0.0494,-0.346372 -0.30678,-0.415646 -0.0105,-0.524504 -0.39586,-0.73233 -0.0593,-1.019322 -0.20783,-0.2672 -0.0198,-0.366165 -0.18802,-0.286994 0.0198,-0.45523 0.26719,-0.494815 -0.20782,-0.148445 0.35626,-0.247409 0.38597,0.05937 0.33647,-0.316685 0.44533,-0.405749 0.33648,-0.09897 0.36616,-0.286994 0.23751,-0.415645 0.62347,-0.494817 0.0891,-1.068803 0.0742,-0.257304 0.48492,-0.316684 -0.0593,-0.75212 0.33648,-0.311734 0.0247,-0.682849 0.51955,-0.613571 -2.55308,-1.205705 -1.8614,1.53951 -2.57517,-0.979689 1.19534,-1.387812 -0.33647,-0.237511 v -0.762018 l 0.32658,-0.415645 v -0.32658 l 0.41564,-0.277099 0.16824,-0.593779 0.73233,-0.692743 0.5344,-1.336005 0.10887,-0.356266 0.38594,-0.475024 -0.099,-0.989634 0.36617,-0.296889 0.2375,-1.0787 0.17814,-0.296891 -0.33648,-0.316683 -0.0791,-0.573987 0.71253,-0.831291 -0.0544,-0.851083 0.13361,-0.291945 0.60367,-0.07422 0.0105,-0.890669 0.66305,-0.440388 0.2672,0.583884 0.38101,-0.08907 0.46018,-0.836242 0.35627,-0.18308 0.95499,-1.326108 0.20783,-0.959945 0.18802,-0.178134 -0.0791,-0.410699 0.0396,-0.381007 0.18803,-0.282047 0.0544,-0.717481 0.12371,-0.40575 0.16329,-0.336477 0.36121,-0.267201 0.78676,-0.504713 0.0929,-0.220575 -0.028,-0.727767 0.084,-0.300903 0.46887,-0.188939 0.18893,-0.237927 0.049,-0.6228 0.13296,-0.160948 0.35688,0.028 0.16794,-0.223929 0.12596,-0.412868 0.46186,-0.580815 0.3149,-1.014676 0.24491,-0.930703 0.19594,-0.713769 0.091,-0.342893 1.13364,-0.209931 -0.035,-0.972691 0.45485,-0.265913 0.3079,0.06998 0.53184,-0.55982 -0.38487,-0.167949 -0.028,-0.272911 0.3219,-0.454855 0.19593,-0.09097 0.0489,-0.580813 0.39889,-0.279913 -0.44786,-0.405869 -0.25192,-1.322578 -1.35757,-0.720768 -1.5535,0.419865 -1.2876,1.714452 -0.32888,0.014 -0.81875,0.713773 -0.60179,-0.014 -0.47586,0.265916 -0.35689,0.832732 0.0909,1.322578 0.077,0.370881 0.6298,0.559821 0.19594,0.195937 -0.091,0.139957 -0.79074,0.258915 -0.34289,0.608807 -0.77675,0.09796 -0.45486,0.832734 -0.51083,0.08398 -0.16095,-1.72145 0.50384,-0.454854 0.20994,-0.972689 0.47584,-0.545824 0.23792,-1.063661 -0.098,-0.552822 -0.27991,-0.321898 0.077,-1.231606 0.57382,-0.09097 0.83974,-0.804742 0.014,-0.601808 0.55982,-0.552822 0.37789,-0.007 0.16794,-0.370881 0.45485,0.07697 0.3289,-0.02798 0.86772,-0.573818 0.13995,-0.419865 1.04267,-0.881719 0.15396,-1.763437 0.22392,-0.552823 0.0909,-0.727766 -0.0701,-0.573817 -0.15395,-0.391876 0.049,-0.160947 0.20294,-0.230926 0.17493,-0.986683 0.45486,-0.426864 0.17495,-0.573818 0.42686,-0.167946 0.48284,-0.517834 0.36389,-0.545826 0.25192,-1.133637 0.021,-0.370882 0.24491,-0.06997 0.37089,-0.741763 0.44786,-1.609486 0.77675,-1.287588 0.13296,-1.840412 0.50384,-0.783749 0.80474,-0.503839 0.9377,-0.636796 0.57382,-0.636796 0.32888,-0.664788 0.049,-0.412869 -3.70881,2.078336 -0.61581,0.104969 -0.76974,0.18894 -0.48285,0.03499 -0.37088,0.05598 -4.66626,7.265808 0.0198,0.296889 -0.61357,-0.03959 -1.20735,1.227145 -0.099,0.45523 -0.0593,0.366165 -1.21725,0.96984 -0.15835,0.306788 -1.09849,1.276625 -0.37606,0.0099 -0.61357,-0.306785 -2.33554,-0.21772 -0.73232,0.346374 -0.56409,-0.128654 -0.60368,0.0099 -0.0791,0.09897 -0.71254,-0.04948 -0.99952,0.494817 -0.61358,-0.148446 -0.0891,0.37606 -0.86097,-0.03959 -0.35627,0.296889 -0.50471,-0.475023 h -0.56409 l -0.47502,0.168238 -0.49482,-0.197926 -0.14845,-0.138549 -0.62347,0.237512 -0.46512,0.415647 -0.58389,-0.04949 -0.287,-0.385956 -0.21772,0.0297 -0.40575,0.435437 -0.27708,0.366165 -0.22762,0.395854 -0.13855,0.08907 -0.2969,-0.346372 -1.22714,-0.465128 -1.01932,-0.31668 -0.79171,-0.118757 -1.15787,-0.01979 -0.60367,-0.672951 -0.11876,-0.415644 -0.089,-0.633368 -1.01931,-0.890669 -0.8115,0.217719 -0.46513,0.435439 -0.61358,0.633365 -0.69274,-0.989633 -0.94014,0.05937 -2.49388,-1.603205 -0.16824,-0.188032 -0.0791,-0.08907 0.19792,-0.08907 -0.0198,-0.197927 -0.19792,-0.108862 0.0494,-0.138548 0.38595,-0.376061 0.11876,-0.89067 -2.48764,-2.949424 0.2939,-0.699776 0.084,-1.511517 -0.26592,-0.335891 0.07,-0.517835 -0.86772,-0.839733 -0.084,-0.139955 0.25192,-0.475847 0.20994,-2.351248 -1.52551,-0.6298 -1.74945,-1.665467 -1.93138,-0.293906 -0.97968,0.014 -2.5332,-3.778792 0.40587,-0.209934 -0.12596,-0.447856 0.014,-0.391875 -0.15395,-0.153939 -5.33228,-0.895714 -2.54719,1.805423 -2.16932,-1.035668 -2.64515,-2.435222 -8.49528,-1.0496651 -2.67314,1.8893961 -3.03703,5.388277 -11.98018,-2.351248 -2.07132,-5.2623169 -17.01857,-1.021674 -9.79686,-6.745842 -2.91108,1.567498 -3.582841,5.010398 -0.83974,2.0713379 0.13995,1.119641 -0.33588,3.023034 0.22392,2.225288 0.39188,1.245602 0.41987,0.559822 0.53182,0.531829 0.3079,0.53183 -1.31557,0.153951 -0.26592,1.917386 1.2456,1.175625 -1.16163,0.81174 -0.056,1.441539 -0.12596,0.433861 0.22394,0.447857 0.95169,1.819418 0.9097,1.06366 -0.40586,0.391875 0.26592,3.162988 -0.0699,2.617162 0.33589,0.657791 -0.36388,0.363885 -0.0559,0.839732 -0.2799,0.699774 -0.86773,1.217612 0.0699,0.293906 -0.46184,-0.251921 -0.36388,0.195938 -0.056,0.223928 -0.58782,0.615803 -0.9377,0.05598 -0.79775,0.391874 -0.19593,0.47585 -0.44786,-0.08398 -0.16794,0.209934 -0.098,0.867723 0.028,0.279909 -0.39188,0.503839 h -0.3082 l -0.18194,0.993682 -0.81174,0.405869 -0.46186,0.559821 -1.2456,1.301586 -1.2316,1.581493 -0.40587,0.979687 -1.007683,-0.839732 -6.367962,0.797746 -0.755759,3.274952 -0.811739,0.195936 -0.811741,-0.55982 -0.475848,0.02799 v 0.475847 l -1.231608,0.02799 -0.33589,2.379238 0.923703,0.531831 v 0.531828 l 0.223928,0.167948 -1.231605,0.335893 -0.05598,1.399553 0.363883,1.679462 -0.028,1.819417 0.783747,1.315579 -4.254639,10.412672 -0.895713,0.335894 -0.111962,0.419865 -0.559821,-0.111963 -0.615803,0.447855 -0.671788,1.259598 0.08398,1.231606 -0.335895,0.811741 -0.307902,-0.139955 -2.687137,3.918748 -0.811741,0.167944 0.08398,0.643793 -1.287588,1.679463 1.903391,4.058704 -0.111963,0.727765 0.559822,0.08398 0.3079,-0.419865 0.279913,0.50384 -0.25192,0.335891 -0.447858,-0.028 1.063662,3.778795 0.447857,0.67178 0.111962,0.69978 1.8754,4.17067 1.455534,2.15531 -0.27991,0.11196 0.867723,2.995043 -0.139956,0.83973 0.363884,0.69978 1.03567,-0.22392 0.251919,-0.44786 1.119642,0.36388 0.167945,0.33589 -0.3079,0.41987 v 0.41987 l -0.419867,0.3359 0.671785,1.28757 1.063662,-0.13994 -0.167949,0.92369 0.783751,0.41986 0.419865,0.3639 1.09165,-0.39187 0.363885,0.53183 0.363883,-0.22393 -0.05598,0.47585 -0.923704,1.56749 0.531828,3.38692 1.427544,0.50384 0.167945,0.30791 0.279912,-0.13996 1.175625,0.6158 -0.05598,0.33589 1.371563,2.68715 0.223926,0.0701 1.553503,2.65915 0.867723,0.028 0.293908,0.78375 0.937698,0.25192 0.6578,1.51151 1.02167,1.25961 1.30158,1.18961 -0.13995,0.27991 0.084,2.49121 1.66548,1.63747 -0.3219,1.81941 2.19729,0.22393 0.056,-0.20993 0.64379,-0.042 -1.48353,-2.33725 -0.32189,-1.21761 1.02167,0.43386 0.13996,0.2939 1.84741,-0.40586 1.17562,-0.92371 v 3.63883 l -0.15395,0.22394 0.0559,0.82573 0.18194,0.79774 0.084,0.23794 3.079021,0.82573 0.41987,-0.34989 1.06365,-0.55983 2.18331,0.13997 2.21129,0.51783 0.16794,0.23792 6.15804,0.55982 0.33589,-0.26592 0.084,-0.72776 0.014,-0.11201 7.40364,-0.098 -0.39188,1.5955 0.12596,0.13994 2.60317,1.80543 0.69977,0.46185 2.18331,2.07135 -0.44787,-2.2253 -0.22392,-0.098 -0.18194,-0.62979 0.19593,-1.63748 1.59549,-1.34356 0.39187,-0.014 0.54583,-0.75575 1.34357,-1.02168 0.22392,0.098 0.54584,-0.53183 1.2655,-0.26808 0.19793,0.11876 0.099,0.35626 0.92036,-0.13855 0.0495,-0.64326 0.12865,-0.2672 -0.58389,-0.63336 -0.0297,-0.53442 0.79172,0.0297 0.0692,0.66305 0.5245,0.44533 -0.21771,0.91047 0.93024,1.0985 -0.56409,1.88029 0.54431,0.56409 0.18803,0.46513 0.0105,0.31668 0.5245,0.39587 0.93026,-0.20783 0.0105,0.91046 -1.00943,0.94014 0.13853,0.58389 0.32659,0.52451 0.37606,0.36617 0.35626,0.19792 0.22762,0.0494 c 0,0 1.44487,0.82139 1.50425,0.85108 0.0593,0.0297 0.82139,0.0593 0.82139,0.0593 l 0.35627,0.52451 0.19793,1.21725 1.63289,1.77144 0.35627,0.0494 0.21772,-0.22761 1.23705,0.31668 0.36615,0.82139 0.16824,0.0694 0.45524,0.68286 1.0688,0.92035 0.0105,1.76154 -0.50472,0.59379 0.17815,0.35627 0.5146,0.0105 0.90056,-0.88077 0.099,0.0297 0.36615,1.44486 0.38597,0.20782 0.23751,-0.0396 0.24741,0.16824 0.0494,1.46465 -0.21772,0.0396 -0.53441,-0.20783 -0.18802,0.18803 v 0.69275 l 0.28699,0.72243 v 0.44533 l -1.01932,1.05891 -0.0791,0.64326 0.10886,0.51461 0.2969,0.41565 0.5542,0.45524 0.59377,0.35626 0.52451,0.18802 z"
       id="path874" />
  </g>
</svg>
