<?xml version="1.0" encoding="UTF-8" standalone="no"?>
<!-- Created with Inkscape (http://www.inkscape.org/) -->

<svg
   width="1100"
   height="600"
   viewBox="0 0 291.04166 158.75001"
   version="1.1"
   id="svg6627"
   inkscape:version="1.1.2 (b8e25be833, 2022-02-05)"
   sodipodi:docname="missing-man.svg"
   inkscape:export-filename="C:\Users\jorge\Documents\Projects\desaparecidos\images\custom-icons\missing-man.png"
   inkscape:export-xdpi="96"
   inkscape:export-ydpi="96"
   xmlns:inkscape="http://www.inkscape.org/namespaces/inkscape"
   xmlns:sodipodi="http://sodipodi.sourceforge.net/DTD/sodipodi-0.dtd"
   xmlns="http://www.w3.org/2000/svg"
   xmlns:svg="http://www.w3.org/2000/svg">
  <sodipodi:namedview
     id="namedview6629"
     pagecolor="#ffffff"
     bordercolor="#666666"
     borderopacity="1.0"
     inkscape:pageshadow="2"
     inkscape:pageopacity="0.0"
     inkscape:pagecheckerboard="0"
     inkscape:document-units="mm"
     showgrid="false"
     units="px"
     inkscape:zoom="0.74029882"
     inkscape:cx="495.07035"
     inkscape:cy="259.35473"
     inkscape:window-width="1920"
     inkscape:window-height="1017"
     inkscape:window-x="-8"
     inkscape:window-y="-8"
     inkscape:window-maximized="1"
     inkscape:current-layer="layer1" />
  <defs
     id="defs6624">
    <clipPath
       clipPathUnits="userSpaceOnUse"
       id="clipPath7535">
      <rect
         style="fill:#00e700;fill-opacity:0.344988;stroke:none;stroke-width:0.264583"
         id="rect7537"
         width="63.796028"
         height="67.012634"
         x="-141.17328"
         y="-38.599277" />
    </clipPath>
    <clipPath
       clipPathUnits="userSpaceOnUse"
       id="clipPath12759">
      <rect
         style="fill:#00ff00;fill-opacity:0.342657;stroke:none;stroke-width:0.264583;stroke-opacity:1"
         id="rect12761"
         width="54.682308"
         height="29.30686"
         x="-45.03249"
         y="98.106491" />
    </clipPath>
  </defs>
  <g
     inkscape:label="Layer 1"
     inkscape:groupmode="layer"
     id="layer1">
    <g
       id="g14033"
       transform="matrix(8.9828475,0,0,8.9828475,25.690376,-3.5849147)">
      <path
         style="fill:#3b5998;fill-opacity:1;stroke:#3b5998;stroke-width:0.264583px;stroke-linecap:butt;stroke-linejoin:miter;stroke-opacity:1"
         d="m 10.290462,11.392165 0.114514,0.197438 0.130309,0.146104 0.173745,0.165848 0.331696,0.18954 0.406722,0.193489 0.327747,0.08687 0.343541,0.08292 0.268516,0.03159 h 0.501492 0.600211 l 0.434364,-0.02369 0.355388,-0.01974 0.371183,-0.06318 0.379081,-0.07897 0.327746,-0.102668 0.236926,-0.118463 0.260618,-0.15795 0.22113,-0.169797 0.221131,-0.197437 0.05133,-0.134258 v -0.07108 l 0.619955,-0.0079 0.422518,0.03159 0.465953,0.03554 0.57257,0.09477 0.422517,0.134258 0.363285,0.185592 0.418569,0.304054 0.288259,0.28431 0.363286,0.493595 0.316034,0.509157 0.206622,0.429998 0.184285,0.513763 0.13961,0.524932 -0.03351,0.731555 -0.102268,0.264009 -0.197438,0.232977 -0.280362,0.260618 -0.34749,0.213233 -0.355389,0.181643 -0.493594,0.15795 -0.367235,0.09082 -0.339593,0.09477 -0.493594,0.146104 -0.544929,0.08687 -0.529133,0.07503 -0.60416,0.06318 -0.671289,0.07108 -0.623904,0.02369 -3.420222,0.02607 -0.473252,-0.03791 -0.576519,-0.0079 -0.647596,-0.09477 L 9.2756311,17.354789 8.4069043,17.181043 7.9370022,17.074427 7.3644325,16.912528 6.8668891,16.734834 6.5351934,16.565037 6.231139,16.411036 6.0021112,16.23729 5.8204684,16.039852 5.7099033,15.885851 5.6230305,15.704208 5.563799,15.487026 5.548003,15.293537 5.559848,15.060561 5.595387,14.831533 5.654619,14.519581 5.7651841,14.168142 5.8875955,13.773266 6.0573921,13.488955 6.2627275,13.117772 6.515448,12.74264 l 0.2527205,-0.300105 0.3395932,-0.339594 0.3119517,-0.22113 0.308003,-0.177694 0.3830297,-0.110565 0.3435418,-0.09872 0.359337,-0.06713 z"
         id="path7572" />
      <path
         style="fill:none;fill-opacity:1;stroke:#3b5998;stroke-width:0.264583px;stroke-linecap:butt;stroke-linejoin:miter;stroke-opacity:1"
         d="m 13.40998,11.301344 0.529133,-0.07898 0.560724,-0.213232 0.442261,-0.260618 0.371183,-0.292209 0.308003,-0.276412 0.331696,-0.3948763 0.28431,-0.3948758 0.229028,-0.3159006 0.221131,-0.4580556 0.181642,-0.3632859 0.07898,-0.339593 0.110565,-0.06318 0.15795,-0.1342578 0.205335,-0.308003 0.07108,-0.3001058 0.102668,-0.3159006 0.07108,-0.3395929 V 6.0021112 l -0.0158,-0.2922079 -0.07897,-0.1737456 -0.165848,-0.1737452 -0.181643,0.086873 -0.142155,0.1105652 -0.150053,0.1737452 -0.150053,0.1263603 -0.110565,0.047385 -0.142156,-0.015796 -0.0079,-0.1974379 -0.03159,-0.2290281 -0.08687,-0.2369254 -0.12636,-0.2211303 -0.181643,-0.213233 -0.150053,-0.1500529 -0.165848,-0.09477 -0.03949,0.015796 0.04739,0.086873 0.07108,0.086873 0.03949,0.1184627 -0.03159,0.06318 -0.118463,-0.078975 -0.173745,-0.09477 -0.18954,-0.09477 -0.150053,-0.078975 -0.197438,-0.09477 -0.146104,-0.03159 h -0.248772 l -0.236925,0.0079 -0.260618,0.039487 -0.280362,0.043436 -0.185591,0.035539 -0.296157,0.027641 -0.260618,0.015796 -0.28826,-0.0079 -0.244822,-0.019743 -0.205336,-0.027641 -0.25272,-0.06318 -0.134258,-0.043436 -0.146104,-0.067129 -0.181643,-0.055283 -0.173745,-0.035539 h -0.110566 l -0.138206,0.051334 -0.18954,0.078975 -0.150053,0.1263602 -0.150053,0.1263602 -0.09872,0.1382067 -0.134258,0.1421554 -0.05133,0.1026675 -0.110565,0.1618991 -0.07897,0.1540015 -0.09872,0.1579502 -0.03949,0.1579504 -0.03554,0.1342578 -0.03159,0.1105651 H 9.9587649 L 9.7929172,5.9152387 9.6744545,5.796776 9.5796842,5.6783133 9.4612215,5.5519531 9.374349,5.441388 9.2874763,5.3782078 9.2006035,5.4808754 9.0742433,5.6230308 9.0584477,5.844161 v 0.3474908 l -0.028497,0.336496 0.016753,0.2959725 0.067013,0.273635 0.1061035,0.2289598 0.1116875,0.2289598 0.1451941,0.2289599 0.1228566,0.072597 0.1005189,0.055844 0.08935,0.2568819 0.1228566,0.2959724 0.1507781,0.3406476 0.22896,0.3518164 0.184285,0.2568816 0.189869,0.2624664 0.150778,0.217791 0.301557,0.3127249 0.27922,0.240129 0.1787,0.145194 0.206622,0.150778 0.27922,0.195454 0.323894,0.145194 0.284804,0.08377 0.262466,0.06701 0.195453,0.05584 z"
         id="path9771" />
      <path
         style="fill:#3b5998;fill-opacity:1;stroke:#3b5998;stroke-width:0.264583px;stroke-linecap:butt;stroke-linejoin:miter;stroke-opacity:1"
         d="m 17.331143,5.2521154 -0.0056,-0.301557 0.0055,-0.2989223 V 4.2844018 L 17.295557,3.9448086 17.216582,3.5499328 17.098119,3.222186 16.973742,2.9429715 16.836925,2.7140117 16.739198,2.5492723 16.56329,2.2951827 16.42368,2.1025214 16.272829,1.9348911 16.150418,1.8045821 15.941133,1.6308368 15.712106,1.4570915 15.419897,1.3149362 15.123741,1.1688322 14.851276,1.0622157 14.531427,0.93980425 l -0.276413,-0.0473851 -0.394876,-0.007898 -0.576518,-0.0157951 -0.430415,0.003949 -0.296157,0.007898 -0.418568,0.0710776 -0.288259,0.0750264 -0.276413,0.09477 -0.390927,0.1895404 -0.272464,0.1658479 -0.284311,0.2132328 -0.256669,0.2645668 -0.225079,0.2329768 -0.185592,0.2606181 -0.2092841,0.3711828 -0.1263602,0.3277471 -0.090821,0.260618 -0.1066165,0.2645666 -0.039487,0.3080031 -0.06318,0.3277466 -0.023694,0.3237982 0.00395,0.3277471 0.011845,0.2724642 0.2013866,0.256669 0.181643,0.213233 0.1579502,0.1224114 0.09477,0.015796 0.067129,-0.1066165 0.110565,-0.2961568 0.134257,-0.2487716 0.134258,-0.2211306 0.134258,-0.1816428 0.154002,-0.1697966 0.12636,-0.1145138 0.165848,-0.1342577 0.197437,-0.09477 0.19349,-0.082924 0.201386,0.015796 0.161899,0.051334 0.169797,0.055283 0.229028,0.098719 0.275131,0.070708 0.273635,0.030714 0.402076,0.019545 0.262466,-0.00279 0.276427,-0.030714 0.195454,-0.027922 0.254089,-0.047467 0.237337,-0.036298 0.217791,-0.022339 0.265258,0.00838 0.212207,0.02513 0.161947,0.058636 0.189869,0.092142 0.120064,0.069805 0.106104,0.067013 0.09493,0.055844 0.125649,0.067013 -0.08097,-0.1340252 -0.08377,-0.1312331 -0.03351,-0.030714 0.189869,-0.072597 0.18987,0.1172721 0.145193,0.1479862 0.198246,0.2485051 0.147987,0.2177913 0.09773,0.2345441 0.02792,0.1479862 0.02513,0.1424019 0.0056,0.078182 0.01117,0.047467 0.100519,-0.053052 0.08097,-0.061428 0.111688,-0.1144799 0.08935,-0.086558 0.08377,-0.067013 0.11448,-0.069805 z"
         id="path10167" />
      <path
         style="fill:#3b5998;fill-opacity:1;stroke:#3b5998;stroke-width:0.0828135px;stroke-linecap:butt;stroke-linejoin:miter;stroke-opacity:1"
         d="m 13.406717,8.4628453 -0.117109,-0.0018 -0.01573,0.01311 -0.02622,0.0026 -0.04545,-8.76e-4 -0.01573,0.01311 -0.03059,8.76e-4 -0.0437,-0.0026 -0.0201,0.0201 -0.04807,-0.0052 -0.01224,0.01573 -0.04894,-0.0026 -0.01311,0.01398 -0.02797,-0.0035 -0.02709,0.01835 -0.03146,8.77e-4 -0.05156,0.02534 -0.04457,0.0035 -0.01136,0.01311 -0.02534,-0.0018 -0.0035,0.01136 -0.02097,-8.77e-4 -0.0052,0.0087 -0.03146,0.0026 -0.03408,0.01224 -0.04807,0.0087 -0.02185,0.0044 -0.02272,0.01311 -0.04807,0.0044 -0.01311,0.01049 -0.0437,0.0166 -0.02971,0.02185 -0.03496,0.0166 -0.0402,0.03234 -0.0236,0.02971 -0.0061,0.0061 -0.01835,-8.77e-4 -0.02097,0.02534 0.0035,0.01661 -0.01486,0.01573 -0.0201,0.03146 -0.01136,0.01748 -0.01748,0.02097 -0.01224,0.03583 -0.0166,0.03321 -0.0026,0.02709 -0.01224,0.02709 -8.76e-4,0.0236 h -0.0079 l 0.0026,0.04457 -0.0026,0.07691 0.01049,0.01835 v 0.02272 l 0.0052,0.02971 0.01136,0.02097 0.0096,0.03758 0.01398,0.02272 0.01136,0.0061 0.0026,0.01835 0.0052,0.01486 0.02447,0.01486 0.02709,0.01748 0.02884,0.01224 0.03408,0.0044 0.03146,0.0026 0.04719,-0.0018 0.0402,-0.01311 0.02971,-8.76e-4 0.0166,-0.01136 0.02272,8.76e-4 0.0044,-0.01573 0.03758,-0.0052 0.01486,-0.01311 0.03583,-0.01049 0.03321,-0.0087 0.02622,-0.0096 0.01783,-0.01444 0.03461,-0.01174 0.03275,-6.26e-4 6.26e-4,-0.0105 0.04882,-0.0012 0.01669,-0.01669 0.04264,-0.0018 0.01669,-0.008 0.04511,0.0012 0.0031,-0.01607 c 0,0 0.05376,-0.0037 0.05129,-0.0025 -0.0025,0.0012 0.01483,-0.0068 0.01483,-0.0068 l 0.03152,-0.0074 0.02348,-0.0068 0.02719,-0.0099 0.03461,-0.0099 0.03522,-0.01607 0.03152,-0.01112 0.03213,-0.0105 0.02595,-0.0105 0.02225,-0.01483 0.0414,-0.0204 0.02225,-0.0031 0.02163,0.0031 0.02101,0.01236 0.0136,0.0093 0.0204,0.01051 0.03152,0.01236 0.0074,0.0093 0.03213,-0.0018 c 0,0 6.26e-4,0.0031 6.26e-4,0.0056 0,0.0025 0.02101,0.0099 0.02101,0.0099 l 0.01854,0.0056 0.02163,0.01483 0.03337,-0.0025 0.0037,0.01112 0.03275,0.0018 0.0105,0.01298 0.03275,-6.26e-4 0.0074,0.008 0.02163,0.008 0.01298,0.0056 0.02163,-0.0018 0.0018,0.0068 0.04449,0.0049 0.0074,0.0093 0.05747,0.0031 0.01483,0.01112 0.03461,0.0043 0.01792,0.01174 0.02225,-0.0025 0.01669,0.0136 0.03275,0.0031 0.01112,0.01112 0.02719,-6.26e-4 0.008,0.01112 0.02286,0.0037 0.01545,0.0105 0.02534,0.0013 0.0173,0.01298 0.02534,0.0087 0.02348,0.0049 0.02719,0.01051 0.03523,0.0068 0.0136,0.0056 v 0.0062 l 0.0037,0.0049 0.124212,-0.0025 0.01669,-0.0049 0.01977,-0.008 0.02225,-0.01236 0.01915,-0.0136 0.0062,-0.01236 -6.26e-4,-0.0099 0.008,-0.01236 0.01545,-0.01792 0.0086,-0.02286 0.0093,-0.01854 0.0068,-0.02286 0.01174,-0.0074 0.0019,-0.01421 6.26e-4,-0.03399 0.008,-0.0105 0.0093,-0.01421 -0.0043,-0.10073 -0.0105,-0.01607 -0.0031,-0.02905 -0.0049,-0.03646 -0.01978,-0.04511 -0.02595,-0.04758 -0.0037,-0.0173 -0.01174,-0.02225 -0.02286,-0.02225 -0.02287,-0.03398 -0.02719,-0.02348 -0.03213,-0.03646 -0.01421,-0.01236 h -0.008 l -0.03584,-0.03337 -0.04573,-0.0241 -0.04202,-0.0173 -0.04449,-0.01545 -0.02966,-0.0087 -0.03275,-0.0087 -0.03399,-6.26e-4 -0.0173,-0.01977 -0.04079,0.0012 -0.0031,-0.0087 -0.03214,-0.0043 -0.04202,-0.01112 -0.0086,-0.01669 -0.04635,-0.0012 -0.0062,-0.01421 -0.04882,-0.0062 -0.04511,-0.008 -0.03523,-0.01421 -0.01051,-0.0105 -0.05067,-0.0043 -0.0074,-0.0062 -0.06242,-0.0037 -0.0056,-0.0136 h -0.0791 l -0.0056,-0.0136 -0.08652,-0.0025 z"
         id="path12796" />
    </g>
  </g>
</svg>
